M48
;DRILL file {KiCad 5.0.2-bee76a0~70~ubuntu16.04.1} date Tue 11 Dec 2018 21:33:38 MST
;FORMAT={-:-/ absolute / inch / decimal}
FMAT,2
INCH,TZ
T1C0.0287
T2C0.0300
T3C0.0512
%
G90
G05
T1
X6.1Y-3.6563
X6.1Y-4.1063
X6.1Y-4.3937
X4.15Y-4.1063
X4.15Y-4.3937
X4.15Y-3.6563
X4.15Y-3.9437
X6.1Y-3.9437
T2
X5.65Y-2.975
X5.65Y-3.075
X5.65Y-3.175
X5.65Y-3.275
X5.65Y-3.375
X5.65Y-3.475
X5.65Y-3.575
X5.65Y-3.675
X5.65Y-3.775
X5.65Y-3.875
X5.65Y-3.975
X5.65Y-4.075
X5.65Y-4.175
X5.65Y-4.275
X5.65Y-4.375
X6.55Y-2.975
X6.55Y-3.075
X6.55Y-3.175
X6.55Y-3.275
X6.55Y-3.375
X6.55Y-3.475
X6.55Y-3.575
X6.55Y-3.675
X6.55Y-3.775
X6.55Y-3.875
X6.55Y-3.975
X6.55Y-4.075
X6.55Y-4.175
X6.55Y-4.275
X6.55Y-4.375
X3.7Y-2.975
X3.7Y-3.075
X3.7Y-3.175
X3.7Y-3.275
X3.7Y-3.375
X3.7Y-3.475
X3.7Y-3.575
X3.7Y-3.675
X3.7Y-3.775
X3.7Y-3.875
X3.7Y-3.975
X3.7Y-4.075
X3.7Y-4.175
X3.7Y-4.275
X3.7Y-4.375
X4.6Y-2.975
X4.6Y-3.075
X4.6Y-3.175
X4.6Y-3.275
X4.6Y-3.375
X4.6Y-3.475
X4.6Y-3.575
X4.6Y-3.675
X4.6Y-3.775
X4.6Y-3.875
X4.6Y-3.975
X4.6Y-4.075
X4.6Y-4.175
X4.6Y-4.275
X4.6Y-4.375
T3
X3.3Y-4.3031
X3.3Y-4.5
X3.3Y-4.6969
X5.25Y-4.3031
X5.25Y-4.5
X5.25Y-4.6969
T0
M30
