G04 #@! TF.GenerationSoftware,KiCad,Pcbnew,5.0.2-bee76a0~70~ubuntu16.04.1*
G04 #@! TF.CreationDate,2018-12-11T21:33:29-07:00*
G04 #@! TF.ProjectId,ESP8266-WiFi-RFID,45535038-3236-4362-9d57-6946692d5246,rev?*
G04 #@! TF.SameCoordinates,Original*
G04 #@! TF.FileFunction,Copper,L2,Bot*
G04 #@! TF.FilePolarity,Positive*
%FSLAX46Y46*%
G04 Gerber Fmt 4.6, Leading zero omitted, Abs format (unit mm)*
G04 Created by KiCad (PCBNEW 5.0.2-bee76a0~70~ubuntu16.04.1) date Tue 11 Dec 2018 21:33:29 MST*
%MOMM*%
%LPD*%
G01*
G04 APERTURE LIST*
G04 #@! TA.AperFunction,ComponentPad*
%ADD10C,1.950000*%
G04 #@! TD*
G04 #@! TA.AperFunction,ComponentPad*
%ADD11C,1.238000*%
G04 #@! TD*
G04 #@! TA.AperFunction,ComponentPad*
%ADD12C,1.524000*%
G04 #@! TD*
G04 #@! TA.AperFunction,Conductor*
%ADD13C,0.250000*%
G04 #@! TD*
G04 #@! TA.AperFunction,Conductor*
%ADD14C,0.254000*%
G04 #@! TD*
G04 APERTURE END LIST*
D10*
G04 #@! TO.P,J1,2*
G04 #@! TO.N,Net-(J1-Pad2)*
X83820000Y-114300000D03*
G04 #@! TO.P,J1,1*
G04 #@! TO.N,VCC1*
X83820000Y-109300000D03*
G04 #@! TO.P,J1,3*
G04 #@! TO.N,GND1*
X83820000Y-119300000D03*
G04 #@! TD*
G04 #@! TO.P,J2,3*
G04 #@! TO.N,GND2*
X133350000Y-119300000D03*
G04 #@! TO.P,J2,1*
G04 #@! TO.N,VCC2*
X133350000Y-109300000D03*
G04 #@! TO.P,J2,2*
G04 #@! TO.N,Net-(J2-Pad2)*
X133350000Y-114300000D03*
G04 #@! TD*
D11*
G04 #@! TO.P,R1,2*
G04 #@! TO.N,Net-(J1-Pad2)*
X105410000Y-111600000D03*
G04 #@! TO.P,R1,1*
G04 #@! TO.N,Net-(R1-Pad1)*
X105410000Y-104300000D03*
G04 #@! TD*
G04 #@! TO.P,R2,1*
G04 #@! TO.N,GND1*
X105410000Y-92870000D03*
G04 #@! TO.P,R2,2*
G04 #@! TO.N,Net-(R1-Pad1)*
X105410000Y-100170000D03*
G04 #@! TD*
G04 #@! TO.P,R3,2*
G04 #@! TO.N,Net-(J2-Pad2)*
X154940000Y-111600000D03*
G04 #@! TO.P,R3,1*
G04 #@! TO.N,Net-(R3-Pad1)*
X154940000Y-104300000D03*
G04 #@! TD*
G04 #@! TO.P,R4,1*
G04 #@! TO.N,GND2*
X154940000Y-92870000D03*
G04 #@! TO.P,R4,2*
G04 #@! TO.N,Net-(R3-Pad1)*
X154940000Y-100170000D03*
G04 #@! TD*
D12*
G04 #@! TO.P,U1,1*
G04 #@! TO.N,Net-(U1-Pad1)*
X93980000Y-75565000D03*
G04 #@! TO.P,U1,2*
G04 #@! TO.N,Net-(U1-Pad2)*
X93980000Y-78105000D03*
G04 #@! TO.P,U1,3*
G04 #@! TO.N,Net-(U1-Pad3)*
X93980000Y-80645000D03*
G04 #@! TO.P,U1,4*
G04 #@! TO.N,Net-(U1-Pad4)*
X93980000Y-83185000D03*
G04 #@! TO.P,U1,5*
G04 #@! TO.N,Net-(U1-Pad5)*
X93980000Y-85725000D03*
G04 #@! TO.P,U1,6*
G04 #@! TO.N,Net-(U1-Pad6)*
X93980000Y-88265000D03*
G04 #@! TO.P,U1,7*
G04 #@! TO.N,Net-(U1-Pad7)*
X93980000Y-90805000D03*
G04 #@! TO.P,U1,8*
G04 #@! TO.N,Net-(U1-Pad8)*
X93980000Y-93345000D03*
G04 #@! TO.P,U1,9*
G04 #@! TO.N,Net-(U1-Pad9)*
X93980000Y-95885000D03*
G04 #@! TO.P,U1,10*
G04 #@! TO.N,GND1*
X93980000Y-98425000D03*
G04 #@! TO.P,U1,11*
G04 #@! TO.N,Net-(U1-Pad11)*
X93980000Y-100965000D03*
G04 #@! TO.P,U1,12*
G04 #@! TO.N,Net-(U1-Pad12)*
X93980000Y-103505000D03*
G04 #@! TO.P,U1,13*
G04 #@! TO.N,Net-(U1-Pad13)*
X93980000Y-106045000D03*
G04 #@! TO.P,U1,14*
G04 #@! TO.N,GND1*
X93980000Y-108585000D03*
G04 #@! TO.P,U1,15*
G04 #@! TO.N,VCC1*
X93980000Y-111125000D03*
G04 #@! TO.P,U1,16*
G04 #@! TO.N,Net-(U1-Pad16)*
X116840000Y-111125000D03*
G04 #@! TO.P,U1,17*
G04 #@! TO.N,GND1*
X116840000Y-108585000D03*
G04 #@! TO.P,U1,18*
G04 #@! TO.N,Net-(U1-Pad18)*
X116840000Y-106045000D03*
G04 #@! TO.P,U1,19*
G04 #@! TO.N,Net-(U1-Pad19)*
X116840000Y-103505000D03*
G04 #@! TO.P,U1,20*
G04 #@! TO.N,Net-(U1-Pad20)*
X116840000Y-100965000D03*
G04 #@! TO.P,U1,21*
G04 #@! TO.N,Net-(R1-Pad1)*
X116840000Y-98425000D03*
G04 #@! TO.P,U1,22*
G04 #@! TO.N,Net-(U1-Pad22)*
X116840000Y-95885000D03*
G04 #@! TO.P,U1,23*
G04 #@! TO.N,Net-(U1-Pad23)*
X116840000Y-93345000D03*
G04 #@! TO.P,U1,24*
G04 #@! TO.N,GND1*
X116840000Y-90805000D03*
G04 #@! TO.P,U1,25*
G04 #@! TO.N,Net-(U1-Pad25)*
X116840000Y-88265000D03*
G04 #@! TO.P,U1,26*
G04 #@! TO.N,Net-(U1-Pad26)*
X116840000Y-85725000D03*
G04 #@! TO.P,U1,27*
G04 #@! TO.N,Net-(U1-Pad27)*
X116840000Y-83185000D03*
G04 #@! TO.P,U1,28*
G04 #@! TO.N,Net-(U1-Pad28)*
X116840000Y-80645000D03*
G04 #@! TO.P,U1,29*
G04 #@! TO.N,Net-(U1-Pad29)*
X116840000Y-78105000D03*
G04 #@! TO.P,U1,30*
G04 #@! TO.N,Net-(U1-Pad30)*
X116840000Y-75565000D03*
G04 #@! TD*
G04 #@! TO.P,U2,30*
G04 #@! TO.N,Net-(U2-Pad30)*
X166370000Y-75565000D03*
G04 #@! TO.P,U2,29*
G04 #@! TO.N,Net-(U2-Pad29)*
X166370000Y-78105000D03*
G04 #@! TO.P,U2,28*
G04 #@! TO.N,Net-(U2-Pad28)*
X166370000Y-80645000D03*
G04 #@! TO.P,U2,27*
G04 #@! TO.N,Net-(U2-Pad27)*
X166370000Y-83185000D03*
G04 #@! TO.P,U2,26*
G04 #@! TO.N,Net-(U2-Pad26)*
X166370000Y-85725000D03*
G04 #@! TO.P,U2,25*
G04 #@! TO.N,Net-(U2-Pad25)*
X166370000Y-88265000D03*
G04 #@! TO.P,U2,24*
G04 #@! TO.N,GND2*
X166370000Y-90805000D03*
G04 #@! TO.P,U2,23*
G04 #@! TO.N,Net-(U2-Pad23)*
X166370000Y-93345000D03*
G04 #@! TO.P,U2,22*
G04 #@! TO.N,Net-(U2-Pad22)*
X166370000Y-95885000D03*
G04 #@! TO.P,U2,21*
G04 #@! TO.N,Net-(R3-Pad1)*
X166370000Y-98425000D03*
G04 #@! TO.P,U2,20*
G04 #@! TO.N,Net-(U2-Pad20)*
X166370000Y-100965000D03*
G04 #@! TO.P,U2,19*
G04 #@! TO.N,Net-(U2-Pad19)*
X166370000Y-103505000D03*
G04 #@! TO.P,U2,18*
G04 #@! TO.N,Net-(U2-Pad18)*
X166370000Y-106045000D03*
G04 #@! TO.P,U2,17*
G04 #@! TO.N,GND2*
X166370000Y-108585000D03*
G04 #@! TO.P,U2,16*
G04 #@! TO.N,Net-(U2-Pad16)*
X166370000Y-111125000D03*
G04 #@! TO.P,U2,15*
G04 #@! TO.N,VCC2*
X143510000Y-111125000D03*
G04 #@! TO.P,U2,14*
G04 #@! TO.N,GND2*
X143510000Y-108585000D03*
G04 #@! TO.P,U2,13*
G04 #@! TO.N,Net-(U2-Pad13)*
X143510000Y-106045000D03*
G04 #@! TO.P,U2,12*
G04 #@! TO.N,Net-(U2-Pad12)*
X143510000Y-103505000D03*
G04 #@! TO.P,U2,11*
G04 #@! TO.N,Net-(U2-Pad11)*
X143510000Y-100965000D03*
G04 #@! TO.P,U2,10*
G04 #@! TO.N,GND2*
X143510000Y-98425000D03*
G04 #@! TO.P,U2,9*
G04 #@! TO.N,Net-(U2-Pad9)*
X143510000Y-95885000D03*
G04 #@! TO.P,U2,8*
G04 #@! TO.N,Net-(U2-Pad8)*
X143510000Y-93345000D03*
G04 #@! TO.P,U2,7*
G04 #@! TO.N,Net-(U2-Pad7)*
X143510000Y-90805000D03*
G04 #@! TO.P,U2,6*
G04 #@! TO.N,Net-(U2-Pad6)*
X143510000Y-88265000D03*
G04 #@! TO.P,U2,5*
G04 #@! TO.N,Net-(U2-Pad5)*
X143510000Y-85725000D03*
G04 #@! TO.P,U2,4*
G04 #@! TO.N,Net-(U2-Pad4)*
X143510000Y-83185000D03*
G04 #@! TO.P,U2,3*
G04 #@! TO.N,Net-(U2-Pad3)*
X143510000Y-80645000D03*
G04 #@! TO.P,U2,2*
G04 #@! TO.N,Net-(U2-Pad2)*
X143510000Y-78105000D03*
G04 #@! TO.P,U2,1*
G04 #@! TO.N,Net-(U2-Pad1)*
X143510000Y-75565000D03*
G04 #@! TD*
D13*
G04 #@! TO.N,Net-(J1-Pad2)*
X102710000Y-114300000D02*
X83820000Y-114300000D01*
X105410000Y-111600000D02*
X102710000Y-114300000D01*
G04 #@! TO.N,Net-(J2-Pad2)*
X152240000Y-114300000D02*
X133350000Y-114300000D01*
X154940000Y-111600000D02*
X152240000Y-114300000D01*
G04 #@! TO.N,Net-(U1-Pad20)*
X116840000Y-100965000D02*
X116045000Y-100170000D01*
G04 #@! TO.N,Net-(R1-Pad1)*
X105410000Y-100170000D02*
X105410000Y-104300000D01*
X107155000Y-98425000D02*
X105410000Y-100170000D01*
X116840000Y-98425000D02*
X107155000Y-98425000D01*
G04 #@! TO.N,Net-(R3-Pad1)*
X154940000Y-100170000D02*
X154940000Y-104300000D01*
X156685000Y-98425000D02*
X154940000Y-100170000D01*
X166370000Y-98425000D02*
X156685000Y-98425000D01*
G04 #@! TO.N,VCC1*
X92902370Y-111125000D02*
X92267370Y-111760000D01*
X93980000Y-111125000D02*
X92902370Y-111125000D01*
X86280000Y-111760000D02*
X83820000Y-109300000D01*
X92267370Y-111760000D02*
X86280000Y-111760000D01*
G04 #@! TO.N,VCC2*
X142432370Y-111125000D02*
X142240000Y-111317370D01*
X143510000Y-111125000D02*
X142432370Y-111125000D01*
X134324999Y-110274999D02*
X133350000Y-109300000D01*
X135367370Y-111317370D02*
X134324999Y-110274999D01*
X142240000Y-111317370D02*
X135367370Y-111317370D01*
G04 #@! TD*
D14*
G04 #@! TO.N,GND2*
G36*
X173863000Y-124333000D02*
X125857000Y-124333000D01*
X125857000Y-120434442D01*
X132395163Y-120434442D01*
X132490763Y-120698704D01*
X133091429Y-120921049D01*
X133731461Y-120896605D01*
X134209237Y-120698704D01*
X134304837Y-120434442D01*
X133350000Y-119479605D01*
X132395163Y-120434442D01*
X125857000Y-120434442D01*
X125857000Y-119041429D01*
X131728951Y-119041429D01*
X131753395Y-119681461D01*
X131951296Y-120159237D01*
X132215558Y-120254837D01*
X133170395Y-119300000D01*
X133529605Y-119300000D01*
X134484442Y-120254837D01*
X134748704Y-120159237D01*
X134971049Y-119558571D01*
X134946605Y-118918539D01*
X134748704Y-118440763D01*
X134484442Y-118345163D01*
X133529605Y-119300000D01*
X133170395Y-119300000D01*
X132215558Y-118345163D01*
X131951296Y-118440763D01*
X131728951Y-119041429D01*
X125857000Y-119041429D01*
X125857000Y-118165558D01*
X132395163Y-118165558D01*
X133350000Y-119120395D01*
X134304837Y-118165558D01*
X134209237Y-117901296D01*
X133608571Y-117678951D01*
X132968539Y-117703395D01*
X132490763Y-117901296D01*
X132395163Y-118165558D01*
X125857000Y-118165558D01*
X125857000Y-113979751D01*
X131740000Y-113979751D01*
X131740000Y-114620249D01*
X131985108Y-115211992D01*
X132438008Y-115664892D01*
X133029751Y-115910000D01*
X133670249Y-115910000D01*
X134261992Y-115664892D01*
X134714892Y-115211992D01*
X134777849Y-115060000D01*
X152165153Y-115060000D01*
X152240000Y-115074888D01*
X152314847Y-115060000D01*
X152314852Y-115060000D01*
X152536537Y-115015904D01*
X152787929Y-114847929D01*
X152830331Y-114784470D01*
X154760802Y-112854000D01*
X155189436Y-112854000D01*
X155650334Y-112663090D01*
X156003090Y-112310334D01*
X156194000Y-111849436D01*
X156194000Y-111350564D01*
X156003090Y-110889666D01*
X155960543Y-110847119D01*
X164973000Y-110847119D01*
X164973000Y-111402881D01*
X165185680Y-111916337D01*
X165578663Y-112309320D01*
X166092119Y-112522000D01*
X166647881Y-112522000D01*
X167161337Y-112309320D01*
X167554320Y-111916337D01*
X167767000Y-111402881D01*
X167767000Y-110847119D01*
X167554320Y-110333663D01*
X167161337Y-109940680D01*
X166970353Y-109861572D01*
X167101143Y-109807397D01*
X167170608Y-109565213D01*
X166370000Y-108764605D01*
X165569392Y-109565213D01*
X165638857Y-109807397D01*
X165779393Y-109857535D01*
X165578663Y-109940680D01*
X165185680Y-110333663D01*
X164973000Y-110847119D01*
X155960543Y-110847119D01*
X155650334Y-110536910D01*
X155189436Y-110346000D01*
X154690564Y-110346000D01*
X154229666Y-110536910D01*
X153876910Y-110889666D01*
X153686000Y-111350564D01*
X153686000Y-111779198D01*
X151925199Y-113540000D01*
X134777849Y-113540000D01*
X134714892Y-113388008D01*
X134261992Y-112935108D01*
X133670249Y-112690000D01*
X133029751Y-112690000D01*
X132438008Y-112935108D01*
X131985108Y-113388008D01*
X131740000Y-113979751D01*
X125857000Y-113979751D01*
X125857000Y-108979751D01*
X131740000Y-108979751D01*
X131740000Y-109620249D01*
X131985108Y-110211992D01*
X132438008Y-110664892D01*
X133029751Y-110910000D01*
X133670249Y-110910000D01*
X133822241Y-110847043D01*
X133840526Y-110865328D01*
X133840529Y-110865330D01*
X134777041Y-111801843D01*
X134819441Y-111865299D01*
X135070833Y-112033274D01*
X135292518Y-112077370D01*
X135292522Y-112077370D01*
X135367369Y-112092258D01*
X135442216Y-112077370D01*
X142165153Y-112077370D01*
X142240000Y-112092258D01*
X142314847Y-112077370D01*
X142314852Y-112077370D01*
X142458199Y-112048856D01*
X142718663Y-112309320D01*
X143232119Y-112522000D01*
X143787881Y-112522000D01*
X144301337Y-112309320D01*
X144694320Y-111916337D01*
X144907000Y-111402881D01*
X144907000Y-110847119D01*
X144694320Y-110333663D01*
X144301337Y-109940680D01*
X144110353Y-109861572D01*
X144241143Y-109807397D01*
X144310608Y-109565213D01*
X143510000Y-108764605D01*
X142709392Y-109565213D01*
X142778857Y-109807397D01*
X142919393Y-109857535D01*
X142718663Y-109940680D01*
X142325680Y-110333663D01*
X142308676Y-110374715D01*
X142135833Y-110409096D01*
X141913926Y-110557370D01*
X135682172Y-110557370D01*
X134915330Y-109790529D01*
X134915328Y-109790526D01*
X134897043Y-109772241D01*
X134960000Y-109620249D01*
X134960000Y-108979751D01*
X134714892Y-108388008D01*
X134704186Y-108377302D01*
X142100856Y-108377302D01*
X142128638Y-108932368D01*
X142287603Y-109316143D01*
X142529787Y-109385608D01*
X143330395Y-108585000D01*
X143689605Y-108585000D01*
X144490213Y-109385608D01*
X144732397Y-109316143D01*
X144919144Y-108792698D01*
X144898353Y-108377302D01*
X164960856Y-108377302D01*
X164988638Y-108932368D01*
X165147603Y-109316143D01*
X165389787Y-109385608D01*
X166190395Y-108585000D01*
X166549605Y-108585000D01*
X167350213Y-109385608D01*
X167592397Y-109316143D01*
X167779144Y-108792698D01*
X167751362Y-108237632D01*
X167592397Y-107853857D01*
X167350213Y-107784392D01*
X166549605Y-108585000D01*
X166190395Y-108585000D01*
X165389787Y-107784392D01*
X165147603Y-107853857D01*
X164960856Y-108377302D01*
X144898353Y-108377302D01*
X144891362Y-108237632D01*
X144732397Y-107853857D01*
X144490213Y-107784392D01*
X143689605Y-108585000D01*
X143330395Y-108585000D01*
X142529787Y-107784392D01*
X142287603Y-107853857D01*
X142100856Y-108377302D01*
X134704186Y-108377302D01*
X134261992Y-107935108D01*
X133670249Y-107690000D01*
X133029751Y-107690000D01*
X132438008Y-107935108D01*
X131985108Y-108388008D01*
X131740000Y-108979751D01*
X125857000Y-108979751D01*
X125857000Y-100687119D01*
X142113000Y-100687119D01*
X142113000Y-101242881D01*
X142325680Y-101756337D01*
X142718663Y-102149320D01*
X142925513Y-102235000D01*
X142718663Y-102320680D01*
X142325680Y-102713663D01*
X142113000Y-103227119D01*
X142113000Y-103782881D01*
X142325680Y-104296337D01*
X142718663Y-104689320D01*
X142925513Y-104775000D01*
X142718663Y-104860680D01*
X142325680Y-105253663D01*
X142113000Y-105767119D01*
X142113000Y-106322881D01*
X142325680Y-106836337D01*
X142718663Y-107229320D01*
X142909647Y-107308428D01*
X142778857Y-107362603D01*
X142709392Y-107604787D01*
X143510000Y-108405395D01*
X144310608Y-107604787D01*
X144241143Y-107362603D01*
X144100607Y-107312465D01*
X144301337Y-107229320D01*
X144694320Y-106836337D01*
X144907000Y-106322881D01*
X144907000Y-105767119D01*
X144694320Y-105253663D01*
X144301337Y-104860680D01*
X144094487Y-104775000D01*
X144301337Y-104689320D01*
X144694320Y-104296337D01*
X144907000Y-103782881D01*
X144907000Y-103227119D01*
X144694320Y-102713663D01*
X144301337Y-102320680D01*
X144094487Y-102235000D01*
X144301337Y-102149320D01*
X144694320Y-101756337D01*
X144907000Y-101242881D01*
X144907000Y-100687119D01*
X144694320Y-100173663D01*
X144441221Y-99920564D01*
X153686000Y-99920564D01*
X153686000Y-100419436D01*
X153876910Y-100880334D01*
X154180000Y-101183424D01*
X154180001Y-103286575D01*
X153876910Y-103589666D01*
X153686000Y-104050564D01*
X153686000Y-104549436D01*
X153876910Y-105010334D01*
X154229666Y-105363090D01*
X154690564Y-105554000D01*
X155189436Y-105554000D01*
X155650334Y-105363090D01*
X156003090Y-105010334D01*
X156194000Y-104549436D01*
X156194000Y-104050564D01*
X156003090Y-103589666D01*
X155700000Y-103286576D01*
X155700000Y-101183424D01*
X156003090Y-100880334D01*
X156194000Y-100419436D01*
X156194000Y-99990801D01*
X156999802Y-99185000D01*
X165172700Y-99185000D01*
X165185680Y-99216337D01*
X165578663Y-99609320D01*
X165785513Y-99695000D01*
X165578663Y-99780680D01*
X165185680Y-100173663D01*
X164973000Y-100687119D01*
X164973000Y-101242881D01*
X165185680Y-101756337D01*
X165578663Y-102149320D01*
X165785513Y-102235000D01*
X165578663Y-102320680D01*
X165185680Y-102713663D01*
X164973000Y-103227119D01*
X164973000Y-103782881D01*
X165185680Y-104296337D01*
X165578663Y-104689320D01*
X165785513Y-104775000D01*
X165578663Y-104860680D01*
X165185680Y-105253663D01*
X164973000Y-105767119D01*
X164973000Y-106322881D01*
X165185680Y-106836337D01*
X165578663Y-107229320D01*
X165769647Y-107308428D01*
X165638857Y-107362603D01*
X165569392Y-107604787D01*
X166370000Y-108405395D01*
X167170608Y-107604787D01*
X167101143Y-107362603D01*
X166960607Y-107312465D01*
X167161337Y-107229320D01*
X167554320Y-106836337D01*
X167767000Y-106322881D01*
X167767000Y-105767119D01*
X167554320Y-105253663D01*
X167161337Y-104860680D01*
X166954487Y-104775000D01*
X167161337Y-104689320D01*
X167554320Y-104296337D01*
X167767000Y-103782881D01*
X167767000Y-103227119D01*
X167554320Y-102713663D01*
X167161337Y-102320680D01*
X166954487Y-102235000D01*
X167161337Y-102149320D01*
X167554320Y-101756337D01*
X167767000Y-101242881D01*
X167767000Y-100687119D01*
X167554320Y-100173663D01*
X167161337Y-99780680D01*
X166954487Y-99695000D01*
X167161337Y-99609320D01*
X167554320Y-99216337D01*
X167767000Y-98702881D01*
X167767000Y-98147119D01*
X167554320Y-97633663D01*
X167161337Y-97240680D01*
X166954487Y-97155000D01*
X167161337Y-97069320D01*
X167554320Y-96676337D01*
X167767000Y-96162881D01*
X167767000Y-95607119D01*
X167554320Y-95093663D01*
X167161337Y-94700680D01*
X166954487Y-94615000D01*
X167161337Y-94529320D01*
X167554320Y-94136337D01*
X167767000Y-93622881D01*
X167767000Y-93067119D01*
X167554320Y-92553663D01*
X167161337Y-92160680D01*
X166970353Y-92081572D01*
X167101143Y-92027397D01*
X167170608Y-91785213D01*
X166370000Y-90984605D01*
X165569392Y-91785213D01*
X165638857Y-92027397D01*
X165779393Y-92077535D01*
X165578663Y-92160680D01*
X165185680Y-92553663D01*
X164973000Y-93067119D01*
X164973000Y-93622881D01*
X165185680Y-94136337D01*
X165578663Y-94529320D01*
X165785513Y-94615000D01*
X165578663Y-94700680D01*
X165185680Y-95093663D01*
X164973000Y-95607119D01*
X164973000Y-96162881D01*
X165185680Y-96676337D01*
X165578663Y-97069320D01*
X165785513Y-97155000D01*
X165578663Y-97240680D01*
X165185680Y-97633663D01*
X165172700Y-97665000D01*
X156759848Y-97665000D01*
X156685000Y-97650112D01*
X156610152Y-97665000D01*
X156610148Y-97665000D01*
X156436605Y-97699520D01*
X156388462Y-97709096D01*
X156201418Y-97834076D01*
X156137071Y-97877071D01*
X156094671Y-97940527D01*
X155119199Y-98916000D01*
X154690564Y-98916000D01*
X154229666Y-99106910D01*
X153876910Y-99459666D01*
X153686000Y-99920564D01*
X144441221Y-99920564D01*
X144301337Y-99780680D01*
X144110353Y-99701572D01*
X144241143Y-99647397D01*
X144310608Y-99405213D01*
X143510000Y-98604605D01*
X142709392Y-99405213D01*
X142778857Y-99647397D01*
X142919393Y-99697535D01*
X142718663Y-99780680D01*
X142325680Y-100173663D01*
X142113000Y-100687119D01*
X125857000Y-100687119D01*
X125857000Y-98217302D01*
X142100856Y-98217302D01*
X142128638Y-98772368D01*
X142287603Y-99156143D01*
X142529787Y-99225608D01*
X143330395Y-98425000D01*
X143689605Y-98425000D01*
X144490213Y-99225608D01*
X144732397Y-99156143D01*
X144919144Y-98632698D01*
X144891362Y-98077632D01*
X144732397Y-97693857D01*
X144490213Y-97624392D01*
X143689605Y-98425000D01*
X143330395Y-98425000D01*
X142529787Y-97624392D01*
X142287603Y-97693857D01*
X142100856Y-98217302D01*
X125857000Y-98217302D01*
X125857000Y-75287119D01*
X142113000Y-75287119D01*
X142113000Y-75842881D01*
X142325680Y-76356337D01*
X142718663Y-76749320D01*
X142925513Y-76835000D01*
X142718663Y-76920680D01*
X142325680Y-77313663D01*
X142113000Y-77827119D01*
X142113000Y-78382881D01*
X142325680Y-78896337D01*
X142718663Y-79289320D01*
X142925513Y-79375000D01*
X142718663Y-79460680D01*
X142325680Y-79853663D01*
X142113000Y-80367119D01*
X142113000Y-80922881D01*
X142325680Y-81436337D01*
X142718663Y-81829320D01*
X142925513Y-81915000D01*
X142718663Y-82000680D01*
X142325680Y-82393663D01*
X142113000Y-82907119D01*
X142113000Y-83462881D01*
X142325680Y-83976337D01*
X142718663Y-84369320D01*
X142925513Y-84455000D01*
X142718663Y-84540680D01*
X142325680Y-84933663D01*
X142113000Y-85447119D01*
X142113000Y-86002881D01*
X142325680Y-86516337D01*
X142718663Y-86909320D01*
X142925513Y-86995000D01*
X142718663Y-87080680D01*
X142325680Y-87473663D01*
X142113000Y-87987119D01*
X142113000Y-88542881D01*
X142325680Y-89056337D01*
X142718663Y-89449320D01*
X142925513Y-89535000D01*
X142718663Y-89620680D01*
X142325680Y-90013663D01*
X142113000Y-90527119D01*
X142113000Y-91082881D01*
X142325680Y-91596337D01*
X142718663Y-91989320D01*
X142925513Y-92075000D01*
X142718663Y-92160680D01*
X142325680Y-92553663D01*
X142113000Y-93067119D01*
X142113000Y-93622881D01*
X142325680Y-94136337D01*
X142718663Y-94529320D01*
X142925513Y-94615000D01*
X142718663Y-94700680D01*
X142325680Y-95093663D01*
X142113000Y-95607119D01*
X142113000Y-96162881D01*
X142325680Y-96676337D01*
X142718663Y-97069320D01*
X142909647Y-97148428D01*
X142778857Y-97202603D01*
X142709392Y-97444787D01*
X143510000Y-98245395D01*
X144310608Y-97444787D01*
X144241143Y-97202603D01*
X144100607Y-97152465D01*
X144301337Y-97069320D01*
X144694320Y-96676337D01*
X144907000Y-96162881D01*
X144907000Y-95607119D01*
X144694320Y-95093663D01*
X144301337Y-94700680D01*
X144094487Y-94615000D01*
X144301337Y-94529320D01*
X144694320Y-94136337D01*
X144855785Y-93746524D01*
X154243081Y-93746524D01*
X154294939Y-93973915D01*
X154766492Y-94136739D01*
X155264459Y-94106713D01*
X155585061Y-93973915D01*
X155636919Y-93746524D01*
X154940000Y-93049605D01*
X154243081Y-93746524D01*
X144855785Y-93746524D01*
X144907000Y-93622881D01*
X144907000Y-93067119D01*
X144753482Y-92696492D01*
X153673261Y-92696492D01*
X153703287Y-93194459D01*
X153836085Y-93515061D01*
X154063476Y-93566919D01*
X154760395Y-92870000D01*
X155119605Y-92870000D01*
X155816524Y-93566919D01*
X156043915Y-93515061D01*
X156206739Y-93043508D01*
X156176713Y-92545541D01*
X156043915Y-92224939D01*
X155816524Y-92173081D01*
X155119605Y-92870000D01*
X154760395Y-92870000D01*
X154063476Y-92173081D01*
X153836085Y-92224939D01*
X153673261Y-92696492D01*
X144753482Y-92696492D01*
X144694320Y-92553663D01*
X144301337Y-92160680D01*
X144094487Y-92075000D01*
X144291303Y-91993476D01*
X154243081Y-91993476D01*
X154940000Y-92690395D01*
X155636919Y-91993476D01*
X155585061Y-91766085D01*
X155113508Y-91603261D01*
X154615541Y-91633287D01*
X154294939Y-91766085D01*
X154243081Y-91993476D01*
X144291303Y-91993476D01*
X144301337Y-91989320D01*
X144694320Y-91596337D01*
X144907000Y-91082881D01*
X144907000Y-90597302D01*
X164960856Y-90597302D01*
X164988638Y-91152368D01*
X165147603Y-91536143D01*
X165389787Y-91605608D01*
X166190395Y-90805000D01*
X166549605Y-90805000D01*
X167350213Y-91605608D01*
X167592397Y-91536143D01*
X167779144Y-91012698D01*
X167751362Y-90457632D01*
X167592397Y-90073857D01*
X167350213Y-90004392D01*
X166549605Y-90805000D01*
X166190395Y-90805000D01*
X165389787Y-90004392D01*
X165147603Y-90073857D01*
X164960856Y-90597302D01*
X144907000Y-90597302D01*
X144907000Y-90527119D01*
X144694320Y-90013663D01*
X144301337Y-89620680D01*
X144094487Y-89535000D01*
X144301337Y-89449320D01*
X144694320Y-89056337D01*
X144907000Y-88542881D01*
X144907000Y-87987119D01*
X144694320Y-87473663D01*
X144301337Y-87080680D01*
X144094487Y-86995000D01*
X144301337Y-86909320D01*
X144694320Y-86516337D01*
X144907000Y-86002881D01*
X144907000Y-85447119D01*
X144694320Y-84933663D01*
X144301337Y-84540680D01*
X144094487Y-84455000D01*
X144301337Y-84369320D01*
X144694320Y-83976337D01*
X144907000Y-83462881D01*
X144907000Y-82907119D01*
X144694320Y-82393663D01*
X144301337Y-82000680D01*
X144094487Y-81915000D01*
X144301337Y-81829320D01*
X144694320Y-81436337D01*
X144907000Y-80922881D01*
X144907000Y-80367119D01*
X144694320Y-79853663D01*
X144301337Y-79460680D01*
X144094487Y-79375000D01*
X144301337Y-79289320D01*
X144694320Y-78896337D01*
X144907000Y-78382881D01*
X144907000Y-77827119D01*
X144694320Y-77313663D01*
X144301337Y-76920680D01*
X144094487Y-76835000D01*
X144301337Y-76749320D01*
X144694320Y-76356337D01*
X144907000Y-75842881D01*
X144907000Y-75287119D01*
X164973000Y-75287119D01*
X164973000Y-75842881D01*
X165185680Y-76356337D01*
X165578663Y-76749320D01*
X165785513Y-76835000D01*
X165578663Y-76920680D01*
X165185680Y-77313663D01*
X164973000Y-77827119D01*
X164973000Y-78382881D01*
X165185680Y-78896337D01*
X165578663Y-79289320D01*
X165785513Y-79375000D01*
X165578663Y-79460680D01*
X165185680Y-79853663D01*
X164973000Y-80367119D01*
X164973000Y-80922881D01*
X165185680Y-81436337D01*
X165578663Y-81829320D01*
X165785513Y-81915000D01*
X165578663Y-82000680D01*
X165185680Y-82393663D01*
X164973000Y-82907119D01*
X164973000Y-83462881D01*
X165185680Y-83976337D01*
X165578663Y-84369320D01*
X165785513Y-84455000D01*
X165578663Y-84540680D01*
X165185680Y-84933663D01*
X164973000Y-85447119D01*
X164973000Y-86002881D01*
X165185680Y-86516337D01*
X165578663Y-86909320D01*
X165785513Y-86995000D01*
X165578663Y-87080680D01*
X165185680Y-87473663D01*
X164973000Y-87987119D01*
X164973000Y-88542881D01*
X165185680Y-89056337D01*
X165578663Y-89449320D01*
X165769647Y-89528428D01*
X165638857Y-89582603D01*
X165569392Y-89824787D01*
X166370000Y-90625395D01*
X167170608Y-89824787D01*
X167101143Y-89582603D01*
X166960607Y-89532465D01*
X167161337Y-89449320D01*
X167554320Y-89056337D01*
X167767000Y-88542881D01*
X167767000Y-87987119D01*
X167554320Y-87473663D01*
X167161337Y-87080680D01*
X166954487Y-86995000D01*
X167161337Y-86909320D01*
X167554320Y-86516337D01*
X167767000Y-86002881D01*
X167767000Y-85447119D01*
X167554320Y-84933663D01*
X167161337Y-84540680D01*
X166954487Y-84455000D01*
X167161337Y-84369320D01*
X167554320Y-83976337D01*
X167767000Y-83462881D01*
X167767000Y-82907119D01*
X167554320Y-82393663D01*
X167161337Y-82000680D01*
X166954487Y-81915000D01*
X167161337Y-81829320D01*
X167554320Y-81436337D01*
X167767000Y-80922881D01*
X167767000Y-80367119D01*
X167554320Y-79853663D01*
X167161337Y-79460680D01*
X166954487Y-79375000D01*
X167161337Y-79289320D01*
X167554320Y-78896337D01*
X167767000Y-78382881D01*
X167767000Y-77827119D01*
X167554320Y-77313663D01*
X167161337Y-76920680D01*
X166954487Y-76835000D01*
X167161337Y-76749320D01*
X167554320Y-76356337D01*
X167767000Y-75842881D01*
X167767000Y-75287119D01*
X167554320Y-74773663D01*
X167161337Y-74380680D01*
X166647881Y-74168000D01*
X166092119Y-74168000D01*
X165578663Y-74380680D01*
X165185680Y-74773663D01*
X164973000Y-75287119D01*
X144907000Y-75287119D01*
X144694320Y-74773663D01*
X144301337Y-74380680D01*
X143787881Y-74168000D01*
X143232119Y-74168000D01*
X142718663Y-74380680D01*
X142325680Y-74773663D01*
X142113000Y-75287119D01*
X125857000Y-75287119D01*
X125857000Y-63627000D01*
X173863000Y-63627000D01*
X173863000Y-124333000D01*
X173863000Y-124333000D01*
G37*
X173863000Y-124333000D02*
X125857000Y-124333000D01*
X125857000Y-120434442D01*
X132395163Y-120434442D01*
X132490763Y-120698704D01*
X133091429Y-120921049D01*
X133731461Y-120896605D01*
X134209237Y-120698704D01*
X134304837Y-120434442D01*
X133350000Y-119479605D01*
X132395163Y-120434442D01*
X125857000Y-120434442D01*
X125857000Y-119041429D01*
X131728951Y-119041429D01*
X131753395Y-119681461D01*
X131951296Y-120159237D01*
X132215558Y-120254837D01*
X133170395Y-119300000D01*
X133529605Y-119300000D01*
X134484442Y-120254837D01*
X134748704Y-120159237D01*
X134971049Y-119558571D01*
X134946605Y-118918539D01*
X134748704Y-118440763D01*
X134484442Y-118345163D01*
X133529605Y-119300000D01*
X133170395Y-119300000D01*
X132215558Y-118345163D01*
X131951296Y-118440763D01*
X131728951Y-119041429D01*
X125857000Y-119041429D01*
X125857000Y-118165558D01*
X132395163Y-118165558D01*
X133350000Y-119120395D01*
X134304837Y-118165558D01*
X134209237Y-117901296D01*
X133608571Y-117678951D01*
X132968539Y-117703395D01*
X132490763Y-117901296D01*
X132395163Y-118165558D01*
X125857000Y-118165558D01*
X125857000Y-113979751D01*
X131740000Y-113979751D01*
X131740000Y-114620249D01*
X131985108Y-115211992D01*
X132438008Y-115664892D01*
X133029751Y-115910000D01*
X133670249Y-115910000D01*
X134261992Y-115664892D01*
X134714892Y-115211992D01*
X134777849Y-115060000D01*
X152165153Y-115060000D01*
X152240000Y-115074888D01*
X152314847Y-115060000D01*
X152314852Y-115060000D01*
X152536537Y-115015904D01*
X152787929Y-114847929D01*
X152830331Y-114784470D01*
X154760802Y-112854000D01*
X155189436Y-112854000D01*
X155650334Y-112663090D01*
X156003090Y-112310334D01*
X156194000Y-111849436D01*
X156194000Y-111350564D01*
X156003090Y-110889666D01*
X155960543Y-110847119D01*
X164973000Y-110847119D01*
X164973000Y-111402881D01*
X165185680Y-111916337D01*
X165578663Y-112309320D01*
X166092119Y-112522000D01*
X166647881Y-112522000D01*
X167161337Y-112309320D01*
X167554320Y-111916337D01*
X167767000Y-111402881D01*
X167767000Y-110847119D01*
X167554320Y-110333663D01*
X167161337Y-109940680D01*
X166970353Y-109861572D01*
X167101143Y-109807397D01*
X167170608Y-109565213D01*
X166370000Y-108764605D01*
X165569392Y-109565213D01*
X165638857Y-109807397D01*
X165779393Y-109857535D01*
X165578663Y-109940680D01*
X165185680Y-110333663D01*
X164973000Y-110847119D01*
X155960543Y-110847119D01*
X155650334Y-110536910D01*
X155189436Y-110346000D01*
X154690564Y-110346000D01*
X154229666Y-110536910D01*
X153876910Y-110889666D01*
X153686000Y-111350564D01*
X153686000Y-111779198D01*
X151925199Y-113540000D01*
X134777849Y-113540000D01*
X134714892Y-113388008D01*
X134261992Y-112935108D01*
X133670249Y-112690000D01*
X133029751Y-112690000D01*
X132438008Y-112935108D01*
X131985108Y-113388008D01*
X131740000Y-113979751D01*
X125857000Y-113979751D01*
X125857000Y-108979751D01*
X131740000Y-108979751D01*
X131740000Y-109620249D01*
X131985108Y-110211992D01*
X132438008Y-110664892D01*
X133029751Y-110910000D01*
X133670249Y-110910000D01*
X133822241Y-110847043D01*
X133840526Y-110865328D01*
X133840529Y-110865330D01*
X134777041Y-111801843D01*
X134819441Y-111865299D01*
X135070833Y-112033274D01*
X135292518Y-112077370D01*
X135292522Y-112077370D01*
X135367369Y-112092258D01*
X135442216Y-112077370D01*
X142165153Y-112077370D01*
X142240000Y-112092258D01*
X142314847Y-112077370D01*
X142314852Y-112077370D01*
X142458199Y-112048856D01*
X142718663Y-112309320D01*
X143232119Y-112522000D01*
X143787881Y-112522000D01*
X144301337Y-112309320D01*
X144694320Y-111916337D01*
X144907000Y-111402881D01*
X144907000Y-110847119D01*
X144694320Y-110333663D01*
X144301337Y-109940680D01*
X144110353Y-109861572D01*
X144241143Y-109807397D01*
X144310608Y-109565213D01*
X143510000Y-108764605D01*
X142709392Y-109565213D01*
X142778857Y-109807397D01*
X142919393Y-109857535D01*
X142718663Y-109940680D01*
X142325680Y-110333663D01*
X142308676Y-110374715D01*
X142135833Y-110409096D01*
X141913926Y-110557370D01*
X135682172Y-110557370D01*
X134915330Y-109790529D01*
X134915328Y-109790526D01*
X134897043Y-109772241D01*
X134960000Y-109620249D01*
X134960000Y-108979751D01*
X134714892Y-108388008D01*
X134704186Y-108377302D01*
X142100856Y-108377302D01*
X142128638Y-108932368D01*
X142287603Y-109316143D01*
X142529787Y-109385608D01*
X143330395Y-108585000D01*
X143689605Y-108585000D01*
X144490213Y-109385608D01*
X144732397Y-109316143D01*
X144919144Y-108792698D01*
X144898353Y-108377302D01*
X164960856Y-108377302D01*
X164988638Y-108932368D01*
X165147603Y-109316143D01*
X165389787Y-109385608D01*
X166190395Y-108585000D01*
X166549605Y-108585000D01*
X167350213Y-109385608D01*
X167592397Y-109316143D01*
X167779144Y-108792698D01*
X167751362Y-108237632D01*
X167592397Y-107853857D01*
X167350213Y-107784392D01*
X166549605Y-108585000D01*
X166190395Y-108585000D01*
X165389787Y-107784392D01*
X165147603Y-107853857D01*
X164960856Y-108377302D01*
X144898353Y-108377302D01*
X144891362Y-108237632D01*
X144732397Y-107853857D01*
X144490213Y-107784392D01*
X143689605Y-108585000D01*
X143330395Y-108585000D01*
X142529787Y-107784392D01*
X142287603Y-107853857D01*
X142100856Y-108377302D01*
X134704186Y-108377302D01*
X134261992Y-107935108D01*
X133670249Y-107690000D01*
X133029751Y-107690000D01*
X132438008Y-107935108D01*
X131985108Y-108388008D01*
X131740000Y-108979751D01*
X125857000Y-108979751D01*
X125857000Y-100687119D01*
X142113000Y-100687119D01*
X142113000Y-101242881D01*
X142325680Y-101756337D01*
X142718663Y-102149320D01*
X142925513Y-102235000D01*
X142718663Y-102320680D01*
X142325680Y-102713663D01*
X142113000Y-103227119D01*
X142113000Y-103782881D01*
X142325680Y-104296337D01*
X142718663Y-104689320D01*
X142925513Y-104775000D01*
X142718663Y-104860680D01*
X142325680Y-105253663D01*
X142113000Y-105767119D01*
X142113000Y-106322881D01*
X142325680Y-106836337D01*
X142718663Y-107229320D01*
X142909647Y-107308428D01*
X142778857Y-107362603D01*
X142709392Y-107604787D01*
X143510000Y-108405395D01*
X144310608Y-107604787D01*
X144241143Y-107362603D01*
X144100607Y-107312465D01*
X144301337Y-107229320D01*
X144694320Y-106836337D01*
X144907000Y-106322881D01*
X144907000Y-105767119D01*
X144694320Y-105253663D01*
X144301337Y-104860680D01*
X144094487Y-104775000D01*
X144301337Y-104689320D01*
X144694320Y-104296337D01*
X144907000Y-103782881D01*
X144907000Y-103227119D01*
X144694320Y-102713663D01*
X144301337Y-102320680D01*
X144094487Y-102235000D01*
X144301337Y-102149320D01*
X144694320Y-101756337D01*
X144907000Y-101242881D01*
X144907000Y-100687119D01*
X144694320Y-100173663D01*
X144441221Y-99920564D01*
X153686000Y-99920564D01*
X153686000Y-100419436D01*
X153876910Y-100880334D01*
X154180000Y-101183424D01*
X154180001Y-103286575D01*
X153876910Y-103589666D01*
X153686000Y-104050564D01*
X153686000Y-104549436D01*
X153876910Y-105010334D01*
X154229666Y-105363090D01*
X154690564Y-105554000D01*
X155189436Y-105554000D01*
X155650334Y-105363090D01*
X156003090Y-105010334D01*
X156194000Y-104549436D01*
X156194000Y-104050564D01*
X156003090Y-103589666D01*
X155700000Y-103286576D01*
X155700000Y-101183424D01*
X156003090Y-100880334D01*
X156194000Y-100419436D01*
X156194000Y-99990801D01*
X156999802Y-99185000D01*
X165172700Y-99185000D01*
X165185680Y-99216337D01*
X165578663Y-99609320D01*
X165785513Y-99695000D01*
X165578663Y-99780680D01*
X165185680Y-100173663D01*
X164973000Y-100687119D01*
X164973000Y-101242881D01*
X165185680Y-101756337D01*
X165578663Y-102149320D01*
X165785513Y-102235000D01*
X165578663Y-102320680D01*
X165185680Y-102713663D01*
X164973000Y-103227119D01*
X164973000Y-103782881D01*
X165185680Y-104296337D01*
X165578663Y-104689320D01*
X165785513Y-104775000D01*
X165578663Y-104860680D01*
X165185680Y-105253663D01*
X164973000Y-105767119D01*
X164973000Y-106322881D01*
X165185680Y-106836337D01*
X165578663Y-107229320D01*
X165769647Y-107308428D01*
X165638857Y-107362603D01*
X165569392Y-107604787D01*
X166370000Y-108405395D01*
X167170608Y-107604787D01*
X167101143Y-107362603D01*
X166960607Y-107312465D01*
X167161337Y-107229320D01*
X167554320Y-106836337D01*
X167767000Y-106322881D01*
X167767000Y-105767119D01*
X167554320Y-105253663D01*
X167161337Y-104860680D01*
X166954487Y-104775000D01*
X167161337Y-104689320D01*
X167554320Y-104296337D01*
X167767000Y-103782881D01*
X167767000Y-103227119D01*
X167554320Y-102713663D01*
X167161337Y-102320680D01*
X166954487Y-102235000D01*
X167161337Y-102149320D01*
X167554320Y-101756337D01*
X167767000Y-101242881D01*
X167767000Y-100687119D01*
X167554320Y-100173663D01*
X167161337Y-99780680D01*
X166954487Y-99695000D01*
X167161337Y-99609320D01*
X167554320Y-99216337D01*
X167767000Y-98702881D01*
X167767000Y-98147119D01*
X167554320Y-97633663D01*
X167161337Y-97240680D01*
X166954487Y-97155000D01*
X167161337Y-97069320D01*
X167554320Y-96676337D01*
X167767000Y-96162881D01*
X167767000Y-95607119D01*
X167554320Y-95093663D01*
X167161337Y-94700680D01*
X166954487Y-94615000D01*
X167161337Y-94529320D01*
X167554320Y-94136337D01*
X167767000Y-93622881D01*
X167767000Y-93067119D01*
X167554320Y-92553663D01*
X167161337Y-92160680D01*
X166970353Y-92081572D01*
X167101143Y-92027397D01*
X167170608Y-91785213D01*
X166370000Y-90984605D01*
X165569392Y-91785213D01*
X165638857Y-92027397D01*
X165779393Y-92077535D01*
X165578663Y-92160680D01*
X165185680Y-92553663D01*
X164973000Y-93067119D01*
X164973000Y-93622881D01*
X165185680Y-94136337D01*
X165578663Y-94529320D01*
X165785513Y-94615000D01*
X165578663Y-94700680D01*
X165185680Y-95093663D01*
X164973000Y-95607119D01*
X164973000Y-96162881D01*
X165185680Y-96676337D01*
X165578663Y-97069320D01*
X165785513Y-97155000D01*
X165578663Y-97240680D01*
X165185680Y-97633663D01*
X165172700Y-97665000D01*
X156759848Y-97665000D01*
X156685000Y-97650112D01*
X156610152Y-97665000D01*
X156610148Y-97665000D01*
X156436605Y-97699520D01*
X156388462Y-97709096D01*
X156201418Y-97834076D01*
X156137071Y-97877071D01*
X156094671Y-97940527D01*
X155119199Y-98916000D01*
X154690564Y-98916000D01*
X154229666Y-99106910D01*
X153876910Y-99459666D01*
X153686000Y-99920564D01*
X144441221Y-99920564D01*
X144301337Y-99780680D01*
X144110353Y-99701572D01*
X144241143Y-99647397D01*
X144310608Y-99405213D01*
X143510000Y-98604605D01*
X142709392Y-99405213D01*
X142778857Y-99647397D01*
X142919393Y-99697535D01*
X142718663Y-99780680D01*
X142325680Y-100173663D01*
X142113000Y-100687119D01*
X125857000Y-100687119D01*
X125857000Y-98217302D01*
X142100856Y-98217302D01*
X142128638Y-98772368D01*
X142287603Y-99156143D01*
X142529787Y-99225608D01*
X143330395Y-98425000D01*
X143689605Y-98425000D01*
X144490213Y-99225608D01*
X144732397Y-99156143D01*
X144919144Y-98632698D01*
X144891362Y-98077632D01*
X144732397Y-97693857D01*
X144490213Y-97624392D01*
X143689605Y-98425000D01*
X143330395Y-98425000D01*
X142529787Y-97624392D01*
X142287603Y-97693857D01*
X142100856Y-98217302D01*
X125857000Y-98217302D01*
X125857000Y-75287119D01*
X142113000Y-75287119D01*
X142113000Y-75842881D01*
X142325680Y-76356337D01*
X142718663Y-76749320D01*
X142925513Y-76835000D01*
X142718663Y-76920680D01*
X142325680Y-77313663D01*
X142113000Y-77827119D01*
X142113000Y-78382881D01*
X142325680Y-78896337D01*
X142718663Y-79289320D01*
X142925513Y-79375000D01*
X142718663Y-79460680D01*
X142325680Y-79853663D01*
X142113000Y-80367119D01*
X142113000Y-80922881D01*
X142325680Y-81436337D01*
X142718663Y-81829320D01*
X142925513Y-81915000D01*
X142718663Y-82000680D01*
X142325680Y-82393663D01*
X142113000Y-82907119D01*
X142113000Y-83462881D01*
X142325680Y-83976337D01*
X142718663Y-84369320D01*
X142925513Y-84455000D01*
X142718663Y-84540680D01*
X142325680Y-84933663D01*
X142113000Y-85447119D01*
X142113000Y-86002881D01*
X142325680Y-86516337D01*
X142718663Y-86909320D01*
X142925513Y-86995000D01*
X142718663Y-87080680D01*
X142325680Y-87473663D01*
X142113000Y-87987119D01*
X142113000Y-88542881D01*
X142325680Y-89056337D01*
X142718663Y-89449320D01*
X142925513Y-89535000D01*
X142718663Y-89620680D01*
X142325680Y-90013663D01*
X142113000Y-90527119D01*
X142113000Y-91082881D01*
X142325680Y-91596337D01*
X142718663Y-91989320D01*
X142925513Y-92075000D01*
X142718663Y-92160680D01*
X142325680Y-92553663D01*
X142113000Y-93067119D01*
X142113000Y-93622881D01*
X142325680Y-94136337D01*
X142718663Y-94529320D01*
X142925513Y-94615000D01*
X142718663Y-94700680D01*
X142325680Y-95093663D01*
X142113000Y-95607119D01*
X142113000Y-96162881D01*
X142325680Y-96676337D01*
X142718663Y-97069320D01*
X142909647Y-97148428D01*
X142778857Y-97202603D01*
X142709392Y-97444787D01*
X143510000Y-98245395D01*
X144310608Y-97444787D01*
X144241143Y-97202603D01*
X144100607Y-97152465D01*
X144301337Y-97069320D01*
X144694320Y-96676337D01*
X144907000Y-96162881D01*
X144907000Y-95607119D01*
X144694320Y-95093663D01*
X144301337Y-94700680D01*
X144094487Y-94615000D01*
X144301337Y-94529320D01*
X144694320Y-94136337D01*
X144855785Y-93746524D01*
X154243081Y-93746524D01*
X154294939Y-93973915D01*
X154766492Y-94136739D01*
X155264459Y-94106713D01*
X155585061Y-93973915D01*
X155636919Y-93746524D01*
X154940000Y-93049605D01*
X154243081Y-93746524D01*
X144855785Y-93746524D01*
X144907000Y-93622881D01*
X144907000Y-93067119D01*
X144753482Y-92696492D01*
X153673261Y-92696492D01*
X153703287Y-93194459D01*
X153836085Y-93515061D01*
X154063476Y-93566919D01*
X154760395Y-92870000D01*
X155119605Y-92870000D01*
X155816524Y-93566919D01*
X156043915Y-93515061D01*
X156206739Y-93043508D01*
X156176713Y-92545541D01*
X156043915Y-92224939D01*
X155816524Y-92173081D01*
X155119605Y-92870000D01*
X154760395Y-92870000D01*
X154063476Y-92173081D01*
X153836085Y-92224939D01*
X153673261Y-92696492D01*
X144753482Y-92696492D01*
X144694320Y-92553663D01*
X144301337Y-92160680D01*
X144094487Y-92075000D01*
X144291303Y-91993476D01*
X154243081Y-91993476D01*
X154940000Y-92690395D01*
X155636919Y-91993476D01*
X155585061Y-91766085D01*
X155113508Y-91603261D01*
X154615541Y-91633287D01*
X154294939Y-91766085D01*
X154243081Y-91993476D01*
X144291303Y-91993476D01*
X144301337Y-91989320D01*
X144694320Y-91596337D01*
X144907000Y-91082881D01*
X144907000Y-90597302D01*
X164960856Y-90597302D01*
X164988638Y-91152368D01*
X165147603Y-91536143D01*
X165389787Y-91605608D01*
X166190395Y-90805000D01*
X166549605Y-90805000D01*
X167350213Y-91605608D01*
X167592397Y-91536143D01*
X167779144Y-91012698D01*
X167751362Y-90457632D01*
X167592397Y-90073857D01*
X167350213Y-90004392D01*
X166549605Y-90805000D01*
X166190395Y-90805000D01*
X165389787Y-90004392D01*
X165147603Y-90073857D01*
X164960856Y-90597302D01*
X144907000Y-90597302D01*
X144907000Y-90527119D01*
X144694320Y-90013663D01*
X144301337Y-89620680D01*
X144094487Y-89535000D01*
X144301337Y-89449320D01*
X144694320Y-89056337D01*
X144907000Y-88542881D01*
X144907000Y-87987119D01*
X144694320Y-87473663D01*
X144301337Y-87080680D01*
X144094487Y-86995000D01*
X144301337Y-86909320D01*
X144694320Y-86516337D01*
X144907000Y-86002881D01*
X144907000Y-85447119D01*
X144694320Y-84933663D01*
X144301337Y-84540680D01*
X144094487Y-84455000D01*
X144301337Y-84369320D01*
X144694320Y-83976337D01*
X144907000Y-83462881D01*
X144907000Y-82907119D01*
X144694320Y-82393663D01*
X144301337Y-82000680D01*
X144094487Y-81915000D01*
X144301337Y-81829320D01*
X144694320Y-81436337D01*
X144907000Y-80922881D01*
X144907000Y-80367119D01*
X144694320Y-79853663D01*
X144301337Y-79460680D01*
X144094487Y-79375000D01*
X144301337Y-79289320D01*
X144694320Y-78896337D01*
X144907000Y-78382881D01*
X144907000Y-77827119D01*
X144694320Y-77313663D01*
X144301337Y-76920680D01*
X144094487Y-76835000D01*
X144301337Y-76749320D01*
X144694320Y-76356337D01*
X144907000Y-75842881D01*
X144907000Y-75287119D01*
X164973000Y-75287119D01*
X164973000Y-75842881D01*
X165185680Y-76356337D01*
X165578663Y-76749320D01*
X165785513Y-76835000D01*
X165578663Y-76920680D01*
X165185680Y-77313663D01*
X164973000Y-77827119D01*
X164973000Y-78382881D01*
X165185680Y-78896337D01*
X165578663Y-79289320D01*
X165785513Y-79375000D01*
X165578663Y-79460680D01*
X165185680Y-79853663D01*
X164973000Y-80367119D01*
X164973000Y-80922881D01*
X165185680Y-81436337D01*
X165578663Y-81829320D01*
X165785513Y-81915000D01*
X165578663Y-82000680D01*
X165185680Y-82393663D01*
X164973000Y-82907119D01*
X164973000Y-83462881D01*
X165185680Y-83976337D01*
X165578663Y-84369320D01*
X165785513Y-84455000D01*
X165578663Y-84540680D01*
X165185680Y-84933663D01*
X164973000Y-85447119D01*
X164973000Y-86002881D01*
X165185680Y-86516337D01*
X165578663Y-86909320D01*
X165785513Y-86995000D01*
X165578663Y-87080680D01*
X165185680Y-87473663D01*
X164973000Y-87987119D01*
X164973000Y-88542881D01*
X165185680Y-89056337D01*
X165578663Y-89449320D01*
X165769647Y-89528428D01*
X165638857Y-89582603D01*
X165569392Y-89824787D01*
X166370000Y-90625395D01*
X167170608Y-89824787D01*
X167101143Y-89582603D01*
X166960607Y-89532465D01*
X167161337Y-89449320D01*
X167554320Y-89056337D01*
X167767000Y-88542881D01*
X167767000Y-87987119D01*
X167554320Y-87473663D01*
X167161337Y-87080680D01*
X166954487Y-86995000D01*
X167161337Y-86909320D01*
X167554320Y-86516337D01*
X167767000Y-86002881D01*
X167767000Y-85447119D01*
X167554320Y-84933663D01*
X167161337Y-84540680D01*
X166954487Y-84455000D01*
X167161337Y-84369320D01*
X167554320Y-83976337D01*
X167767000Y-83462881D01*
X167767000Y-82907119D01*
X167554320Y-82393663D01*
X167161337Y-82000680D01*
X166954487Y-81915000D01*
X167161337Y-81829320D01*
X167554320Y-81436337D01*
X167767000Y-80922881D01*
X167767000Y-80367119D01*
X167554320Y-79853663D01*
X167161337Y-79460680D01*
X166954487Y-79375000D01*
X167161337Y-79289320D01*
X167554320Y-78896337D01*
X167767000Y-78382881D01*
X167767000Y-77827119D01*
X167554320Y-77313663D01*
X167161337Y-76920680D01*
X166954487Y-76835000D01*
X167161337Y-76749320D01*
X167554320Y-76356337D01*
X167767000Y-75842881D01*
X167767000Y-75287119D01*
X167554320Y-74773663D01*
X167161337Y-74380680D01*
X166647881Y-74168000D01*
X166092119Y-74168000D01*
X165578663Y-74380680D01*
X165185680Y-74773663D01*
X164973000Y-75287119D01*
X144907000Y-75287119D01*
X144694320Y-74773663D01*
X144301337Y-74380680D01*
X143787881Y-74168000D01*
X143232119Y-74168000D01*
X142718663Y-74380680D01*
X142325680Y-74773663D01*
X142113000Y-75287119D01*
X125857000Y-75287119D01*
X125857000Y-63627000D01*
X173863000Y-63627000D01*
X173863000Y-124333000D01*
G04 #@! TO.N,GND1*
G36*
X124333000Y-124333000D02*
X76327000Y-124333000D01*
X76327000Y-120434442D01*
X82865163Y-120434442D01*
X82960763Y-120698704D01*
X83561429Y-120921049D01*
X84201461Y-120896605D01*
X84679237Y-120698704D01*
X84774837Y-120434442D01*
X83820000Y-119479605D01*
X82865163Y-120434442D01*
X76327000Y-120434442D01*
X76327000Y-119041429D01*
X82198951Y-119041429D01*
X82223395Y-119681461D01*
X82421296Y-120159237D01*
X82685558Y-120254837D01*
X83640395Y-119300000D01*
X83999605Y-119300000D01*
X84954442Y-120254837D01*
X85218704Y-120159237D01*
X85441049Y-119558571D01*
X85416605Y-118918539D01*
X85218704Y-118440763D01*
X84954442Y-118345163D01*
X83999605Y-119300000D01*
X83640395Y-119300000D01*
X82685558Y-118345163D01*
X82421296Y-118440763D01*
X82198951Y-119041429D01*
X76327000Y-119041429D01*
X76327000Y-118165558D01*
X82865163Y-118165558D01*
X83820000Y-119120395D01*
X84774837Y-118165558D01*
X84679237Y-117901296D01*
X84078571Y-117678951D01*
X83438539Y-117703395D01*
X82960763Y-117901296D01*
X82865163Y-118165558D01*
X76327000Y-118165558D01*
X76327000Y-113979751D01*
X82210000Y-113979751D01*
X82210000Y-114620249D01*
X82455108Y-115211992D01*
X82908008Y-115664892D01*
X83499751Y-115910000D01*
X84140249Y-115910000D01*
X84731992Y-115664892D01*
X85184892Y-115211992D01*
X85247849Y-115060000D01*
X102635153Y-115060000D01*
X102710000Y-115074888D01*
X102784847Y-115060000D01*
X102784852Y-115060000D01*
X103006537Y-115015904D01*
X103257929Y-114847929D01*
X103300331Y-114784470D01*
X105230802Y-112854000D01*
X105659436Y-112854000D01*
X106120334Y-112663090D01*
X106473090Y-112310334D01*
X106664000Y-111849436D01*
X106664000Y-111350564D01*
X106473090Y-110889666D01*
X106430543Y-110847119D01*
X115443000Y-110847119D01*
X115443000Y-111402881D01*
X115655680Y-111916337D01*
X116048663Y-112309320D01*
X116562119Y-112522000D01*
X117117881Y-112522000D01*
X117631337Y-112309320D01*
X118024320Y-111916337D01*
X118237000Y-111402881D01*
X118237000Y-110847119D01*
X118024320Y-110333663D01*
X117631337Y-109940680D01*
X117440353Y-109861572D01*
X117571143Y-109807397D01*
X117640608Y-109565213D01*
X116840000Y-108764605D01*
X116039392Y-109565213D01*
X116108857Y-109807397D01*
X116249393Y-109857535D01*
X116048663Y-109940680D01*
X115655680Y-110333663D01*
X115443000Y-110847119D01*
X106430543Y-110847119D01*
X106120334Y-110536910D01*
X105659436Y-110346000D01*
X105160564Y-110346000D01*
X104699666Y-110536910D01*
X104346910Y-110889666D01*
X104156000Y-111350564D01*
X104156000Y-111779198D01*
X102395199Y-113540000D01*
X85247849Y-113540000D01*
X85184892Y-113388008D01*
X84731992Y-112935108D01*
X84140249Y-112690000D01*
X83499751Y-112690000D01*
X82908008Y-112935108D01*
X82455108Y-113388008D01*
X82210000Y-113979751D01*
X76327000Y-113979751D01*
X76327000Y-108979751D01*
X82210000Y-108979751D01*
X82210000Y-109620249D01*
X82455108Y-110211992D01*
X82908008Y-110664892D01*
X83499751Y-110910000D01*
X84140249Y-110910000D01*
X84292241Y-110847043D01*
X85689673Y-112244476D01*
X85732071Y-112307929D01*
X85795524Y-112350327D01*
X85795526Y-112350329D01*
X85920902Y-112434102D01*
X85983463Y-112475904D01*
X86205148Y-112520000D01*
X86205152Y-112520000D01*
X86279999Y-112534888D01*
X86354846Y-112520000D01*
X92192523Y-112520000D01*
X92267370Y-112534888D01*
X92342217Y-112520000D01*
X92342222Y-112520000D01*
X92563907Y-112475904D01*
X92815299Y-112307929D01*
X92857701Y-112244470D01*
X92990757Y-112111414D01*
X93188663Y-112309320D01*
X93702119Y-112522000D01*
X94257881Y-112522000D01*
X94771337Y-112309320D01*
X95164320Y-111916337D01*
X95377000Y-111402881D01*
X95377000Y-110847119D01*
X95164320Y-110333663D01*
X94771337Y-109940680D01*
X94580353Y-109861572D01*
X94711143Y-109807397D01*
X94780608Y-109565213D01*
X93980000Y-108764605D01*
X93179392Y-109565213D01*
X93248857Y-109807397D01*
X93389393Y-109857535D01*
X93188663Y-109940680D01*
X92795680Y-110333663D01*
X92778676Y-110374715D01*
X92605833Y-110409096D01*
X92354441Y-110577071D01*
X92312041Y-110640527D01*
X91952569Y-111000000D01*
X86594803Y-111000000D01*
X85367043Y-109772241D01*
X85430000Y-109620249D01*
X85430000Y-108979751D01*
X85184892Y-108388008D01*
X85174186Y-108377302D01*
X92570856Y-108377302D01*
X92598638Y-108932368D01*
X92757603Y-109316143D01*
X92999787Y-109385608D01*
X93800395Y-108585000D01*
X94159605Y-108585000D01*
X94960213Y-109385608D01*
X95202397Y-109316143D01*
X95389144Y-108792698D01*
X95368353Y-108377302D01*
X115430856Y-108377302D01*
X115458638Y-108932368D01*
X115617603Y-109316143D01*
X115859787Y-109385608D01*
X116660395Y-108585000D01*
X117019605Y-108585000D01*
X117820213Y-109385608D01*
X118062397Y-109316143D01*
X118249144Y-108792698D01*
X118221362Y-108237632D01*
X118062397Y-107853857D01*
X117820213Y-107784392D01*
X117019605Y-108585000D01*
X116660395Y-108585000D01*
X115859787Y-107784392D01*
X115617603Y-107853857D01*
X115430856Y-108377302D01*
X95368353Y-108377302D01*
X95361362Y-108237632D01*
X95202397Y-107853857D01*
X94960213Y-107784392D01*
X94159605Y-108585000D01*
X93800395Y-108585000D01*
X92999787Y-107784392D01*
X92757603Y-107853857D01*
X92570856Y-108377302D01*
X85174186Y-108377302D01*
X84731992Y-107935108D01*
X84140249Y-107690000D01*
X83499751Y-107690000D01*
X82908008Y-107935108D01*
X82455108Y-108388008D01*
X82210000Y-108979751D01*
X76327000Y-108979751D01*
X76327000Y-100687119D01*
X92583000Y-100687119D01*
X92583000Y-101242881D01*
X92795680Y-101756337D01*
X93188663Y-102149320D01*
X93395513Y-102235000D01*
X93188663Y-102320680D01*
X92795680Y-102713663D01*
X92583000Y-103227119D01*
X92583000Y-103782881D01*
X92795680Y-104296337D01*
X93188663Y-104689320D01*
X93395513Y-104775000D01*
X93188663Y-104860680D01*
X92795680Y-105253663D01*
X92583000Y-105767119D01*
X92583000Y-106322881D01*
X92795680Y-106836337D01*
X93188663Y-107229320D01*
X93379647Y-107308428D01*
X93248857Y-107362603D01*
X93179392Y-107604787D01*
X93980000Y-108405395D01*
X94780608Y-107604787D01*
X94711143Y-107362603D01*
X94570607Y-107312465D01*
X94771337Y-107229320D01*
X95164320Y-106836337D01*
X95377000Y-106322881D01*
X95377000Y-105767119D01*
X95164320Y-105253663D01*
X94771337Y-104860680D01*
X94564487Y-104775000D01*
X94771337Y-104689320D01*
X95164320Y-104296337D01*
X95377000Y-103782881D01*
X95377000Y-103227119D01*
X95164320Y-102713663D01*
X94771337Y-102320680D01*
X94564487Y-102235000D01*
X94771337Y-102149320D01*
X95164320Y-101756337D01*
X95377000Y-101242881D01*
X95377000Y-100687119D01*
X95164320Y-100173663D01*
X94911221Y-99920564D01*
X104156000Y-99920564D01*
X104156000Y-100419436D01*
X104346910Y-100880334D01*
X104650000Y-101183424D01*
X104650001Y-103286575D01*
X104346910Y-103589666D01*
X104156000Y-104050564D01*
X104156000Y-104549436D01*
X104346910Y-105010334D01*
X104699666Y-105363090D01*
X105160564Y-105554000D01*
X105659436Y-105554000D01*
X106120334Y-105363090D01*
X106473090Y-105010334D01*
X106664000Y-104549436D01*
X106664000Y-104050564D01*
X106473090Y-103589666D01*
X106170000Y-103286576D01*
X106170000Y-101183424D01*
X106473090Y-100880334D01*
X106664000Y-100419436D01*
X106664000Y-99990801D01*
X107469802Y-99185000D01*
X115642700Y-99185000D01*
X115655680Y-99216337D01*
X115869387Y-99430044D01*
X115748463Y-99454097D01*
X115497071Y-99622071D01*
X115329097Y-99873463D01*
X115270112Y-100170000D01*
X115329097Y-100466537D01*
X115454671Y-100654472D01*
X115455980Y-100655781D01*
X115443000Y-100687119D01*
X115443000Y-101242881D01*
X115655680Y-101756337D01*
X116048663Y-102149320D01*
X116255513Y-102235000D01*
X116048663Y-102320680D01*
X115655680Y-102713663D01*
X115443000Y-103227119D01*
X115443000Y-103782881D01*
X115655680Y-104296337D01*
X116048663Y-104689320D01*
X116255513Y-104775000D01*
X116048663Y-104860680D01*
X115655680Y-105253663D01*
X115443000Y-105767119D01*
X115443000Y-106322881D01*
X115655680Y-106836337D01*
X116048663Y-107229320D01*
X116239647Y-107308428D01*
X116108857Y-107362603D01*
X116039392Y-107604787D01*
X116840000Y-108405395D01*
X117640608Y-107604787D01*
X117571143Y-107362603D01*
X117430607Y-107312465D01*
X117631337Y-107229320D01*
X118024320Y-106836337D01*
X118237000Y-106322881D01*
X118237000Y-105767119D01*
X118024320Y-105253663D01*
X117631337Y-104860680D01*
X117424487Y-104775000D01*
X117631337Y-104689320D01*
X118024320Y-104296337D01*
X118237000Y-103782881D01*
X118237000Y-103227119D01*
X118024320Y-102713663D01*
X117631337Y-102320680D01*
X117424487Y-102235000D01*
X117631337Y-102149320D01*
X118024320Y-101756337D01*
X118237000Y-101242881D01*
X118237000Y-100687119D01*
X118024320Y-100173663D01*
X117631337Y-99780680D01*
X117424487Y-99695000D01*
X117631337Y-99609320D01*
X118024320Y-99216337D01*
X118237000Y-98702881D01*
X118237000Y-98147119D01*
X118024320Y-97633663D01*
X117631337Y-97240680D01*
X117424487Y-97155000D01*
X117631337Y-97069320D01*
X118024320Y-96676337D01*
X118237000Y-96162881D01*
X118237000Y-95607119D01*
X118024320Y-95093663D01*
X117631337Y-94700680D01*
X117424487Y-94615000D01*
X117631337Y-94529320D01*
X118024320Y-94136337D01*
X118237000Y-93622881D01*
X118237000Y-93067119D01*
X118024320Y-92553663D01*
X117631337Y-92160680D01*
X117440353Y-92081572D01*
X117571143Y-92027397D01*
X117640608Y-91785213D01*
X116840000Y-90984605D01*
X116039392Y-91785213D01*
X116108857Y-92027397D01*
X116249393Y-92077535D01*
X116048663Y-92160680D01*
X115655680Y-92553663D01*
X115443000Y-93067119D01*
X115443000Y-93622881D01*
X115655680Y-94136337D01*
X116048663Y-94529320D01*
X116255513Y-94615000D01*
X116048663Y-94700680D01*
X115655680Y-95093663D01*
X115443000Y-95607119D01*
X115443000Y-96162881D01*
X115655680Y-96676337D01*
X116048663Y-97069320D01*
X116255513Y-97155000D01*
X116048663Y-97240680D01*
X115655680Y-97633663D01*
X115642700Y-97665000D01*
X107229848Y-97665000D01*
X107155000Y-97650112D01*
X107080152Y-97665000D01*
X107080148Y-97665000D01*
X106906605Y-97699520D01*
X106858462Y-97709096D01*
X106671418Y-97834076D01*
X106607071Y-97877071D01*
X106564671Y-97940527D01*
X105589199Y-98916000D01*
X105160564Y-98916000D01*
X104699666Y-99106910D01*
X104346910Y-99459666D01*
X104156000Y-99920564D01*
X94911221Y-99920564D01*
X94771337Y-99780680D01*
X94580353Y-99701572D01*
X94711143Y-99647397D01*
X94780608Y-99405213D01*
X93980000Y-98604605D01*
X93179392Y-99405213D01*
X93248857Y-99647397D01*
X93389393Y-99697535D01*
X93188663Y-99780680D01*
X92795680Y-100173663D01*
X92583000Y-100687119D01*
X76327000Y-100687119D01*
X76327000Y-98217302D01*
X92570856Y-98217302D01*
X92598638Y-98772368D01*
X92757603Y-99156143D01*
X92999787Y-99225608D01*
X93800395Y-98425000D01*
X94159605Y-98425000D01*
X94960213Y-99225608D01*
X95202397Y-99156143D01*
X95389144Y-98632698D01*
X95361362Y-98077632D01*
X95202397Y-97693857D01*
X94960213Y-97624392D01*
X94159605Y-98425000D01*
X93800395Y-98425000D01*
X92999787Y-97624392D01*
X92757603Y-97693857D01*
X92570856Y-98217302D01*
X76327000Y-98217302D01*
X76327000Y-75287119D01*
X92583000Y-75287119D01*
X92583000Y-75842881D01*
X92795680Y-76356337D01*
X93188663Y-76749320D01*
X93395513Y-76835000D01*
X93188663Y-76920680D01*
X92795680Y-77313663D01*
X92583000Y-77827119D01*
X92583000Y-78382881D01*
X92795680Y-78896337D01*
X93188663Y-79289320D01*
X93395513Y-79375000D01*
X93188663Y-79460680D01*
X92795680Y-79853663D01*
X92583000Y-80367119D01*
X92583000Y-80922881D01*
X92795680Y-81436337D01*
X93188663Y-81829320D01*
X93395513Y-81915000D01*
X93188663Y-82000680D01*
X92795680Y-82393663D01*
X92583000Y-82907119D01*
X92583000Y-83462881D01*
X92795680Y-83976337D01*
X93188663Y-84369320D01*
X93395513Y-84455000D01*
X93188663Y-84540680D01*
X92795680Y-84933663D01*
X92583000Y-85447119D01*
X92583000Y-86002881D01*
X92795680Y-86516337D01*
X93188663Y-86909320D01*
X93395513Y-86995000D01*
X93188663Y-87080680D01*
X92795680Y-87473663D01*
X92583000Y-87987119D01*
X92583000Y-88542881D01*
X92795680Y-89056337D01*
X93188663Y-89449320D01*
X93395513Y-89535000D01*
X93188663Y-89620680D01*
X92795680Y-90013663D01*
X92583000Y-90527119D01*
X92583000Y-91082881D01*
X92795680Y-91596337D01*
X93188663Y-91989320D01*
X93395513Y-92075000D01*
X93188663Y-92160680D01*
X92795680Y-92553663D01*
X92583000Y-93067119D01*
X92583000Y-93622881D01*
X92795680Y-94136337D01*
X93188663Y-94529320D01*
X93395513Y-94615000D01*
X93188663Y-94700680D01*
X92795680Y-95093663D01*
X92583000Y-95607119D01*
X92583000Y-96162881D01*
X92795680Y-96676337D01*
X93188663Y-97069320D01*
X93379647Y-97148428D01*
X93248857Y-97202603D01*
X93179392Y-97444787D01*
X93980000Y-98245395D01*
X94780608Y-97444787D01*
X94711143Y-97202603D01*
X94570607Y-97152465D01*
X94771337Y-97069320D01*
X95164320Y-96676337D01*
X95377000Y-96162881D01*
X95377000Y-95607119D01*
X95164320Y-95093663D01*
X94771337Y-94700680D01*
X94564487Y-94615000D01*
X94771337Y-94529320D01*
X95164320Y-94136337D01*
X95325785Y-93746524D01*
X104713081Y-93746524D01*
X104764939Y-93973915D01*
X105236492Y-94136739D01*
X105734459Y-94106713D01*
X106055061Y-93973915D01*
X106106919Y-93746524D01*
X105410000Y-93049605D01*
X104713081Y-93746524D01*
X95325785Y-93746524D01*
X95377000Y-93622881D01*
X95377000Y-93067119D01*
X95223482Y-92696492D01*
X104143261Y-92696492D01*
X104173287Y-93194459D01*
X104306085Y-93515061D01*
X104533476Y-93566919D01*
X105230395Y-92870000D01*
X105589605Y-92870000D01*
X106286524Y-93566919D01*
X106513915Y-93515061D01*
X106676739Y-93043508D01*
X106646713Y-92545541D01*
X106513915Y-92224939D01*
X106286524Y-92173081D01*
X105589605Y-92870000D01*
X105230395Y-92870000D01*
X104533476Y-92173081D01*
X104306085Y-92224939D01*
X104143261Y-92696492D01*
X95223482Y-92696492D01*
X95164320Y-92553663D01*
X94771337Y-92160680D01*
X94564487Y-92075000D01*
X94761303Y-91993476D01*
X104713081Y-91993476D01*
X105410000Y-92690395D01*
X106106919Y-91993476D01*
X106055061Y-91766085D01*
X105583508Y-91603261D01*
X105085541Y-91633287D01*
X104764939Y-91766085D01*
X104713081Y-91993476D01*
X94761303Y-91993476D01*
X94771337Y-91989320D01*
X95164320Y-91596337D01*
X95377000Y-91082881D01*
X95377000Y-90597302D01*
X115430856Y-90597302D01*
X115458638Y-91152368D01*
X115617603Y-91536143D01*
X115859787Y-91605608D01*
X116660395Y-90805000D01*
X117019605Y-90805000D01*
X117820213Y-91605608D01*
X118062397Y-91536143D01*
X118249144Y-91012698D01*
X118221362Y-90457632D01*
X118062397Y-90073857D01*
X117820213Y-90004392D01*
X117019605Y-90805000D01*
X116660395Y-90805000D01*
X115859787Y-90004392D01*
X115617603Y-90073857D01*
X115430856Y-90597302D01*
X95377000Y-90597302D01*
X95377000Y-90527119D01*
X95164320Y-90013663D01*
X94771337Y-89620680D01*
X94564487Y-89535000D01*
X94771337Y-89449320D01*
X95164320Y-89056337D01*
X95377000Y-88542881D01*
X95377000Y-87987119D01*
X95164320Y-87473663D01*
X94771337Y-87080680D01*
X94564487Y-86995000D01*
X94771337Y-86909320D01*
X95164320Y-86516337D01*
X95377000Y-86002881D01*
X95377000Y-85447119D01*
X95164320Y-84933663D01*
X94771337Y-84540680D01*
X94564487Y-84455000D01*
X94771337Y-84369320D01*
X95164320Y-83976337D01*
X95377000Y-83462881D01*
X95377000Y-82907119D01*
X95164320Y-82393663D01*
X94771337Y-82000680D01*
X94564487Y-81915000D01*
X94771337Y-81829320D01*
X95164320Y-81436337D01*
X95377000Y-80922881D01*
X95377000Y-80367119D01*
X95164320Y-79853663D01*
X94771337Y-79460680D01*
X94564487Y-79375000D01*
X94771337Y-79289320D01*
X95164320Y-78896337D01*
X95377000Y-78382881D01*
X95377000Y-77827119D01*
X95164320Y-77313663D01*
X94771337Y-76920680D01*
X94564487Y-76835000D01*
X94771337Y-76749320D01*
X95164320Y-76356337D01*
X95377000Y-75842881D01*
X95377000Y-75287119D01*
X115443000Y-75287119D01*
X115443000Y-75842881D01*
X115655680Y-76356337D01*
X116048663Y-76749320D01*
X116255513Y-76835000D01*
X116048663Y-76920680D01*
X115655680Y-77313663D01*
X115443000Y-77827119D01*
X115443000Y-78382881D01*
X115655680Y-78896337D01*
X116048663Y-79289320D01*
X116255513Y-79375000D01*
X116048663Y-79460680D01*
X115655680Y-79853663D01*
X115443000Y-80367119D01*
X115443000Y-80922881D01*
X115655680Y-81436337D01*
X116048663Y-81829320D01*
X116255513Y-81915000D01*
X116048663Y-82000680D01*
X115655680Y-82393663D01*
X115443000Y-82907119D01*
X115443000Y-83462881D01*
X115655680Y-83976337D01*
X116048663Y-84369320D01*
X116255513Y-84455000D01*
X116048663Y-84540680D01*
X115655680Y-84933663D01*
X115443000Y-85447119D01*
X115443000Y-86002881D01*
X115655680Y-86516337D01*
X116048663Y-86909320D01*
X116255513Y-86995000D01*
X116048663Y-87080680D01*
X115655680Y-87473663D01*
X115443000Y-87987119D01*
X115443000Y-88542881D01*
X115655680Y-89056337D01*
X116048663Y-89449320D01*
X116239647Y-89528428D01*
X116108857Y-89582603D01*
X116039392Y-89824787D01*
X116840000Y-90625395D01*
X117640608Y-89824787D01*
X117571143Y-89582603D01*
X117430607Y-89532465D01*
X117631337Y-89449320D01*
X118024320Y-89056337D01*
X118237000Y-88542881D01*
X118237000Y-87987119D01*
X118024320Y-87473663D01*
X117631337Y-87080680D01*
X117424487Y-86995000D01*
X117631337Y-86909320D01*
X118024320Y-86516337D01*
X118237000Y-86002881D01*
X118237000Y-85447119D01*
X118024320Y-84933663D01*
X117631337Y-84540680D01*
X117424487Y-84455000D01*
X117631337Y-84369320D01*
X118024320Y-83976337D01*
X118237000Y-83462881D01*
X118237000Y-82907119D01*
X118024320Y-82393663D01*
X117631337Y-82000680D01*
X117424487Y-81915000D01*
X117631337Y-81829320D01*
X118024320Y-81436337D01*
X118237000Y-80922881D01*
X118237000Y-80367119D01*
X118024320Y-79853663D01*
X117631337Y-79460680D01*
X117424487Y-79375000D01*
X117631337Y-79289320D01*
X118024320Y-78896337D01*
X118237000Y-78382881D01*
X118237000Y-77827119D01*
X118024320Y-77313663D01*
X117631337Y-76920680D01*
X117424487Y-76835000D01*
X117631337Y-76749320D01*
X118024320Y-76356337D01*
X118237000Y-75842881D01*
X118237000Y-75287119D01*
X118024320Y-74773663D01*
X117631337Y-74380680D01*
X117117881Y-74168000D01*
X116562119Y-74168000D01*
X116048663Y-74380680D01*
X115655680Y-74773663D01*
X115443000Y-75287119D01*
X95377000Y-75287119D01*
X95164320Y-74773663D01*
X94771337Y-74380680D01*
X94257881Y-74168000D01*
X93702119Y-74168000D01*
X93188663Y-74380680D01*
X92795680Y-74773663D01*
X92583000Y-75287119D01*
X76327000Y-75287119D01*
X76327000Y-63627000D01*
X124333000Y-63627000D01*
X124333000Y-124333000D01*
X124333000Y-124333000D01*
G37*
X124333000Y-124333000D02*
X76327000Y-124333000D01*
X76327000Y-120434442D01*
X82865163Y-120434442D01*
X82960763Y-120698704D01*
X83561429Y-120921049D01*
X84201461Y-120896605D01*
X84679237Y-120698704D01*
X84774837Y-120434442D01*
X83820000Y-119479605D01*
X82865163Y-120434442D01*
X76327000Y-120434442D01*
X76327000Y-119041429D01*
X82198951Y-119041429D01*
X82223395Y-119681461D01*
X82421296Y-120159237D01*
X82685558Y-120254837D01*
X83640395Y-119300000D01*
X83999605Y-119300000D01*
X84954442Y-120254837D01*
X85218704Y-120159237D01*
X85441049Y-119558571D01*
X85416605Y-118918539D01*
X85218704Y-118440763D01*
X84954442Y-118345163D01*
X83999605Y-119300000D01*
X83640395Y-119300000D01*
X82685558Y-118345163D01*
X82421296Y-118440763D01*
X82198951Y-119041429D01*
X76327000Y-119041429D01*
X76327000Y-118165558D01*
X82865163Y-118165558D01*
X83820000Y-119120395D01*
X84774837Y-118165558D01*
X84679237Y-117901296D01*
X84078571Y-117678951D01*
X83438539Y-117703395D01*
X82960763Y-117901296D01*
X82865163Y-118165558D01*
X76327000Y-118165558D01*
X76327000Y-113979751D01*
X82210000Y-113979751D01*
X82210000Y-114620249D01*
X82455108Y-115211992D01*
X82908008Y-115664892D01*
X83499751Y-115910000D01*
X84140249Y-115910000D01*
X84731992Y-115664892D01*
X85184892Y-115211992D01*
X85247849Y-115060000D01*
X102635153Y-115060000D01*
X102710000Y-115074888D01*
X102784847Y-115060000D01*
X102784852Y-115060000D01*
X103006537Y-115015904D01*
X103257929Y-114847929D01*
X103300331Y-114784470D01*
X105230802Y-112854000D01*
X105659436Y-112854000D01*
X106120334Y-112663090D01*
X106473090Y-112310334D01*
X106664000Y-111849436D01*
X106664000Y-111350564D01*
X106473090Y-110889666D01*
X106430543Y-110847119D01*
X115443000Y-110847119D01*
X115443000Y-111402881D01*
X115655680Y-111916337D01*
X116048663Y-112309320D01*
X116562119Y-112522000D01*
X117117881Y-112522000D01*
X117631337Y-112309320D01*
X118024320Y-111916337D01*
X118237000Y-111402881D01*
X118237000Y-110847119D01*
X118024320Y-110333663D01*
X117631337Y-109940680D01*
X117440353Y-109861572D01*
X117571143Y-109807397D01*
X117640608Y-109565213D01*
X116840000Y-108764605D01*
X116039392Y-109565213D01*
X116108857Y-109807397D01*
X116249393Y-109857535D01*
X116048663Y-109940680D01*
X115655680Y-110333663D01*
X115443000Y-110847119D01*
X106430543Y-110847119D01*
X106120334Y-110536910D01*
X105659436Y-110346000D01*
X105160564Y-110346000D01*
X104699666Y-110536910D01*
X104346910Y-110889666D01*
X104156000Y-111350564D01*
X104156000Y-111779198D01*
X102395199Y-113540000D01*
X85247849Y-113540000D01*
X85184892Y-113388008D01*
X84731992Y-112935108D01*
X84140249Y-112690000D01*
X83499751Y-112690000D01*
X82908008Y-112935108D01*
X82455108Y-113388008D01*
X82210000Y-113979751D01*
X76327000Y-113979751D01*
X76327000Y-108979751D01*
X82210000Y-108979751D01*
X82210000Y-109620249D01*
X82455108Y-110211992D01*
X82908008Y-110664892D01*
X83499751Y-110910000D01*
X84140249Y-110910000D01*
X84292241Y-110847043D01*
X85689673Y-112244476D01*
X85732071Y-112307929D01*
X85795524Y-112350327D01*
X85795526Y-112350329D01*
X85920902Y-112434102D01*
X85983463Y-112475904D01*
X86205148Y-112520000D01*
X86205152Y-112520000D01*
X86279999Y-112534888D01*
X86354846Y-112520000D01*
X92192523Y-112520000D01*
X92267370Y-112534888D01*
X92342217Y-112520000D01*
X92342222Y-112520000D01*
X92563907Y-112475904D01*
X92815299Y-112307929D01*
X92857701Y-112244470D01*
X92990757Y-112111414D01*
X93188663Y-112309320D01*
X93702119Y-112522000D01*
X94257881Y-112522000D01*
X94771337Y-112309320D01*
X95164320Y-111916337D01*
X95377000Y-111402881D01*
X95377000Y-110847119D01*
X95164320Y-110333663D01*
X94771337Y-109940680D01*
X94580353Y-109861572D01*
X94711143Y-109807397D01*
X94780608Y-109565213D01*
X93980000Y-108764605D01*
X93179392Y-109565213D01*
X93248857Y-109807397D01*
X93389393Y-109857535D01*
X93188663Y-109940680D01*
X92795680Y-110333663D01*
X92778676Y-110374715D01*
X92605833Y-110409096D01*
X92354441Y-110577071D01*
X92312041Y-110640527D01*
X91952569Y-111000000D01*
X86594803Y-111000000D01*
X85367043Y-109772241D01*
X85430000Y-109620249D01*
X85430000Y-108979751D01*
X85184892Y-108388008D01*
X85174186Y-108377302D01*
X92570856Y-108377302D01*
X92598638Y-108932368D01*
X92757603Y-109316143D01*
X92999787Y-109385608D01*
X93800395Y-108585000D01*
X94159605Y-108585000D01*
X94960213Y-109385608D01*
X95202397Y-109316143D01*
X95389144Y-108792698D01*
X95368353Y-108377302D01*
X115430856Y-108377302D01*
X115458638Y-108932368D01*
X115617603Y-109316143D01*
X115859787Y-109385608D01*
X116660395Y-108585000D01*
X117019605Y-108585000D01*
X117820213Y-109385608D01*
X118062397Y-109316143D01*
X118249144Y-108792698D01*
X118221362Y-108237632D01*
X118062397Y-107853857D01*
X117820213Y-107784392D01*
X117019605Y-108585000D01*
X116660395Y-108585000D01*
X115859787Y-107784392D01*
X115617603Y-107853857D01*
X115430856Y-108377302D01*
X95368353Y-108377302D01*
X95361362Y-108237632D01*
X95202397Y-107853857D01*
X94960213Y-107784392D01*
X94159605Y-108585000D01*
X93800395Y-108585000D01*
X92999787Y-107784392D01*
X92757603Y-107853857D01*
X92570856Y-108377302D01*
X85174186Y-108377302D01*
X84731992Y-107935108D01*
X84140249Y-107690000D01*
X83499751Y-107690000D01*
X82908008Y-107935108D01*
X82455108Y-108388008D01*
X82210000Y-108979751D01*
X76327000Y-108979751D01*
X76327000Y-100687119D01*
X92583000Y-100687119D01*
X92583000Y-101242881D01*
X92795680Y-101756337D01*
X93188663Y-102149320D01*
X93395513Y-102235000D01*
X93188663Y-102320680D01*
X92795680Y-102713663D01*
X92583000Y-103227119D01*
X92583000Y-103782881D01*
X92795680Y-104296337D01*
X93188663Y-104689320D01*
X93395513Y-104775000D01*
X93188663Y-104860680D01*
X92795680Y-105253663D01*
X92583000Y-105767119D01*
X92583000Y-106322881D01*
X92795680Y-106836337D01*
X93188663Y-107229320D01*
X93379647Y-107308428D01*
X93248857Y-107362603D01*
X93179392Y-107604787D01*
X93980000Y-108405395D01*
X94780608Y-107604787D01*
X94711143Y-107362603D01*
X94570607Y-107312465D01*
X94771337Y-107229320D01*
X95164320Y-106836337D01*
X95377000Y-106322881D01*
X95377000Y-105767119D01*
X95164320Y-105253663D01*
X94771337Y-104860680D01*
X94564487Y-104775000D01*
X94771337Y-104689320D01*
X95164320Y-104296337D01*
X95377000Y-103782881D01*
X95377000Y-103227119D01*
X95164320Y-102713663D01*
X94771337Y-102320680D01*
X94564487Y-102235000D01*
X94771337Y-102149320D01*
X95164320Y-101756337D01*
X95377000Y-101242881D01*
X95377000Y-100687119D01*
X95164320Y-100173663D01*
X94911221Y-99920564D01*
X104156000Y-99920564D01*
X104156000Y-100419436D01*
X104346910Y-100880334D01*
X104650000Y-101183424D01*
X104650001Y-103286575D01*
X104346910Y-103589666D01*
X104156000Y-104050564D01*
X104156000Y-104549436D01*
X104346910Y-105010334D01*
X104699666Y-105363090D01*
X105160564Y-105554000D01*
X105659436Y-105554000D01*
X106120334Y-105363090D01*
X106473090Y-105010334D01*
X106664000Y-104549436D01*
X106664000Y-104050564D01*
X106473090Y-103589666D01*
X106170000Y-103286576D01*
X106170000Y-101183424D01*
X106473090Y-100880334D01*
X106664000Y-100419436D01*
X106664000Y-99990801D01*
X107469802Y-99185000D01*
X115642700Y-99185000D01*
X115655680Y-99216337D01*
X115869387Y-99430044D01*
X115748463Y-99454097D01*
X115497071Y-99622071D01*
X115329097Y-99873463D01*
X115270112Y-100170000D01*
X115329097Y-100466537D01*
X115454671Y-100654472D01*
X115455980Y-100655781D01*
X115443000Y-100687119D01*
X115443000Y-101242881D01*
X115655680Y-101756337D01*
X116048663Y-102149320D01*
X116255513Y-102235000D01*
X116048663Y-102320680D01*
X115655680Y-102713663D01*
X115443000Y-103227119D01*
X115443000Y-103782881D01*
X115655680Y-104296337D01*
X116048663Y-104689320D01*
X116255513Y-104775000D01*
X116048663Y-104860680D01*
X115655680Y-105253663D01*
X115443000Y-105767119D01*
X115443000Y-106322881D01*
X115655680Y-106836337D01*
X116048663Y-107229320D01*
X116239647Y-107308428D01*
X116108857Y-107362603D01*
X116039392Y-107604787D01*
X116840000Y-108405395D01*
X117640608Y-107604787D01*
X117571143Y-107362603D01*
X117430607Y-107312465D01*
X117631337Y-107229320D01*
X118024320Y-106836337D01*
X118237000Y-106322881D01*
X118237000Y-105767119D01*
X118024320Y-105253663D01*
X117631337Y-104860680D01*
X117424487Y-104775000D01*
X117631337Y-104689320D01*
X118024320Y-104296337D01*
X118237000Y-103782881D01*
X118237000Y-103227119D01*
X118024320Y-102713663D01*
X117631337Y-102320680D01*
X117424487Y-102235000D01*
X117631337Y-102149320D01*
X118024320Y-101756337D01*
X118237000Y-101242881D01*
X118237000Y-100687119D01*
X118024320Y-100173663D01*
X117631337Y-99780680D01*
X117424487Y-99695000D01*
X117631337Y-99609320D01*
X118024320Y-99216337D01*
X118237000Y-98702881D01*
X118237000Y-98147119D01*
X118024320Y-97633663D01*
X117631337Y-97240680D01*
X117424487Y-97155000D01*
X117631337Y-97069320D01*
X118024320Y-96676337D01*
X118237000Y-96162881D01*
X118237000Y-95607119D01*
X118024320Y-95093663D01*
X117631337Y-94700680D01*
X117424487Y-94615000D01*
X117631337Y-94529320D01*
X118024320Y-94136337D01*
X118237000Y-93622881D01*
X118237000Y-93067119D01*
X118024320Y-92553663D01*
X117631337Y-92160680D01*
X117440353Y-92081572D01*
X117571143Y-92027397D01*
X117640608Y-91785213D01*
X116840000Y-90984605D01*
X116039392Y-91785213D01*
X116108857Y-92027397D01*
X116249393Y-92077535D01*
X116048663Y-92160680D01*
X115655680Y-92553663D01*
X115443000Y-93067119D01*
X115443000Y-93622881D01*
X115655680Y-94136337D01*
X116048663Y-94529320D01*
X116255513Y-94615000D01*
X116048663Y-94700680D01*
X115655680Y-95093663D01*
X115443000Y-95607119D01*
X115443000Y-96162881D01*
X115655680Y-96676337D01*
X116048663Y-97069320D01*
X116255513Y-97155000D01*
X116048663Y-97240680D01*
X115655680Y-97633663D01*
X115642700Y-97665000D01*
X107229848Y-97665000D01*
X107155000Y-97650112D01*
X107080152Y-97665000D01*
X107080148Y-97665000D01*
X106906605Y-97699520D01*
X106858462Y-97709096D01*
X106671418Y-97834076D01*
X106607071Y-97877071D01*
X106564671Y-97940527D01*
X105589199Y-98916000D01*
X105160564Y-98916000D01*
X104699666Y-99106910D01*
X104346910Y-99459666D01*
X104156000Y-99920564D01*
X94911221Y-99920564D01*
X94771337Y-99780680D01*
X94580353Y-99701572D01*
X94711143Y-99647397D01*
X94780608Y-99405213D01*
X93980000Y-98604605D01*
X93179392Y-99405213D01*
X93248857Y-99647397D01*
X93389393Y-99697535D01*
X93188663Y-99780680D01*
X92795680Y-100173663D01*
X92583000Y-100687119D01*
X76327000Y-100687119D01*
X76327000Y-98217302D01*
X92570856Y-98217302D01*
X92598638Y-98772368D01*
X92757603Y-99156143D01*
X92999787Y-99225608D01*
X93800395Y-98425000D01*
X94159605Y-98425000D01*
X94960213Y-99225608D01*
X95202397Y-99156143D01*
X95389144Y-98632698D01*
X95361362Y-98077632D01*
X95202397Y-97693857D01*
X94960213Y-97624392D01*
X94159605Y-98425000D01*
X93800395Y-98425000D01*
X92999787Y-97624392D01*
X92757603Y-97693857D01*
X92570856Y-98217302D01*
X76327000Y-98217302D01*
X76327000Y-75287119D01*
X92583000Y-75287119D01*
X92583000Y-75842881D01*
X92795680Y-76356337D01*
X93188663Y-76749320D01*
X93395513Y-76835000D01*
X93188663Y-76920680D01*
X92795680Y-77313663D01*
X92583000Y-77827119D01*
X92583000Y-78382881D01*
X92795680Y-78896337D01*
X93188663Y-79289320D01*
X93395513Y-79375000D01*
X93188663Y-79460680D01*
X92795680Y-79853663D01*
X92583000Y-80367119D01*
X92583000Y-80922881D01*
X92795680Y-81436337D01*
X93188663Y-81829320D01*
X93395513Y-81915000D01*
X93188663Y-82000680D01*
X92795680Y-82393663D01*
X92583000Y-82907119D01*
X92583000Y-83462881D01*
X92795680Y-83976337D01*
X93188663Y-84369320D01*
X93395513Y-84455000D01*
X93188663Y-84540680D01*
X92795680Y-84933663D01*
X92583000Y-85447119D01*
X92583000Y-86002881D01*
X92795680Y-86516337D01*
X93188663Y-86909320D01*
X93395513Y-86995000D01*
X93188663Y-87080680D01*
X92795680Y-87473663D01*
X92583000Y-87987119D01*
X92583000Y-88542881D01*
X92795680Y-89056337D01*
X93188663Y-89449320D01*
X93395513Y-89535000D01*
X93188663Y-89620680D01*
X92795680Y-90013663D01*
X92583000Y-90527119D01*
X92583000Y-91082881D01*
X92795680Y-91596337D01*
X93188663Y-91989320D01*
X93395513Y-92075000D01*
X93188663Y-92160680D01*
X92795680Y-92553663D01*
X92583000Y-93067119D01*
X92583000Y-93622881D01*
X92795680Y-94136337D01*
X93188663Y-94529320D01*
X93395513Y-94615000D01*
X93188663Y-94700680D01*
X92795680Y-95093663D01*
X92583000Y-95607119D01*
X92583000Y-96162881D01*
X92795680Y-96676337D01*
X93188663Y-97069320D01*
X93379647Y-97148428D01*
X93248857Y-97202603D01*
X93179392Y-97444787D01*
X93980000Y-98245395D01*
X94780608Y-97444787D01*
X94711143Y-97202603D01*
X94570607Y-97152465D01*
X94771337Y-97069320D01*
X95164320Y-96676337D01*
X95377000Y-96162881D01*
X95377000Y-95607119D01*
X95164320Y-95093663D01*
X94771337Y-94700680D01*
X94564487Y-94615000D01*
X94771337Y-94529320D01*
X95164320Y-94136337D01*
X95325785Y-93746524D01*
X104713081Y-93746524D01*
X104764939Y-93973915D01*
X105236492Y-94136739D01*
X105734459Y-94106713D01*
X106055061Y-93973915D01*
X106106919Y-93746524D01*
X105410000Y-93049605D01*
X104713081Y-93746524D01*
X95325785Y-93746524D01*
X95377000Y-93622881D01*
X95377000Y-93067119D01*
X95223482Y-92696492D01*
X104143261Y-92696492D01*
X104173287Y-93194459D01*
X104306085Y-93515061D01*
X104533476Y-93566919D01*
X105230395Y-92870000D01*
X105589605Y-92870000D01*
X106286524Y-93566919D01*
X106513915Y-93515061D01*
X106676739Y-93043508D01*
X106646713Y-92545541D01*
X106513915Y-92224939D01*
X106286524Y-92173081D01*
X105589605Y-92870000D01*
X105230395Y-92870000D01*
X104533476Y-92173081D01*
X104306085Y-92224939D01*
X104143261Y-92696492D01*
X95223482Y-92696492D01*
X95164320Y-92553663D01*
X94771337Y-92160680D01*
X94564487Y-92075000D01*
X94761303Y-91993476D01*
X104713081Y-91993476D01*
X105410000Y-92690395D01*
X106106919Y-91993476D01*
X106055061Y-91766085D01*
X105583508Y-91603261D01*
X105085541Y-91633287D01*
X104764939Y-91766085D01*
X104713081Y-91993476D01*
X94761303Y-91993476D01*
X94771337Y-91989320D01*
X95164320Y-91596337D01*
X95377000Y-91082881D01*
X95377000Y-90597302D01*
X115430856Y-90597302D01*
X115458638Y-91152368D01*
X115617603Y-91536143D01*
X115859787Y-91605608D01*
X116660395Y-90805000D01*
X117019605Y-90805000D01*
X117820213Y-91605608D01*
X118062397Y-91536143D01*
X118249144Y-91012698D01*
X118221362Y-90457632D01*
X118062397Y-90073857D01*
X117820213Y-90004392D01*
X117019605Y-90805000D01*
X116660395Y-90805000D01*
X115859787Y-90004392D01*
X115617603Y-90073857D01*
X115430856Y-90597302D01*
X95377000Y-90597302D01*
X95377000Y-90527119D01*
X95164320Y-90013663D01*
X94771337Y-89620680D01*
X94564487Y-89535000D01*
X94771337Y-89449320D01*
X95164320Y-89056337D01*
X95377000Y-88542881D01*
X95377000Y-87987119D01*
X95164320Y-87473663D01*
X94771337Y-87080680D01*
X94564487Y-86995000D01*
X94771337Y-86909320D01*
X95164320Y-86516337D01*
X95377000Y-86002881D01*
X95377000Y-85447119D01*
X95164320Y-84933663D01*
X94771337Y-84540680D01*
X94564487Y-84455000D01*
X94771337Y-84369320D01*
X95164320Y-83976337D01*
X95377000Y-83462881D01*
X95377000Y-82907119D01*
X95164320Y-82393663D01*
X94771337Y-82000680D01*
X94564487Y-81915000D01*
X94771337Y-81829320D01*
X95164320Y-81436337D01*
X95377000Y-80922881D01*
X95377000Y-80367119D01*
X95164320Y-79853663D01*
X94771337Y-79460680D01*
X94564487Y-79375000D01*
X94771337Y-79289320D01*
X95164320Y-78896337D01*
X95377000Y-78382881D01*
X95377000Y-77827119D01*
X95164320Y-77313663D01*
X94771337Y-76920680D01*
X94564487Y-76835000D01*
X94771337Y-76749320D01*
X95164320Y-76356337D01*
X95377000Y-75842881D01*
X95377000Y-75287119D01*
X115443000Y-75287119D01*
X115443000Y-75842881D01*
X115655680Y-76356337D01*
X116048663Y-76749320D01*
X116255513Y-76835000D01*
X116048663Y-76920680D01*
X115655680Y-77313663D01*
X115443000Y-77827119D01*
X115443000Y-78382881D01*
X115655680Y-78896337D01*
X116048663Y-79289320D01*
X116255513Y-79375000D01*
X116048663Y-79460680D01*
X115655680Y-79853663D01*
X115443000Y-80367119D01*
X115443000Y-80922881D01*
X115655680Y-81436337D01*
X116048663Y-81829320D01*
X116255513Y-81915000D01*
X116048663Y-82000680D01*
X115655680Y-82393663D01*
X115443000Y-82907119D01*
X115443000Y-83462881D01*
X115655680Y-83976337D01*
X116048663Y-84369320D01*
X116255513Y-84455000D01*
X116048663Y-84540680D01*
X115655680Y-84933663D01*
X115443000Y-85447119D01*
X115443000Y-86002881D01*
X115655680Y-86516337D01*
X116048663Y-86909320D01*
X116255513Y-86995000D01*
X116048663Y-87080680D01*
X115655680Y-87473663D01*
X115443000Y-87987119D01*
X115443000Y-88542881D01*
X115655680Y-89056337D01*
X116048663Y-89449320D01*
X116239647Y-89528428D01*
X116108857Y-89582603D01*
X116039392Y-89824787D01*
X116840000Y-90625395D01*
X117640608Y-89824787D01*
X117571143Y-89582603D01*
X117430607Y-89532465D01*
X117631337Y-89449320D01*
X118024320Y-89056337D01*
X118237000Y-88542881D01*
X118237000Y-87987119D01*
X118024320Y-87473663D01*
X117631337Y-87080680D01*
X117424487Y-86995000D01*
X117631337Y-86909320D01*
X118024320Y-86516337D01*
X118237000Y-86002881D01*
X118237000Y-85447119D01*
X118024320Y-84933663D01*
X117631337Y-84540680D01*
X117424487Y-84455000D01*
X117631337Y-84369320D01*
X118024320Y-83976337D01*
X118237000Y-83462881D01*
X118237000Y-82907119D01*
X118024320Y-82393663D01*
X117631337Y-82000680D01*
X117424487Y-81915000D01*
X117631337Y-81829320D01*
X118024320Y-81436337D01*
X118237000Y-80922881D01*
X118237000Y-80367119D01*
X118024320Y-79853663D01*
X117631337Y-79460680D01*
X117424487Y-79375000D01*
X117631337Y-79289320D01*
X118024320Y-78896337D01*
X118237000Y-78382881D01*
X118237000Y-77827119D01*
X118024320Y-77313663D01*
X117631337Y-76920680D01*
X117424487Y-76835000D01*
X117631337Y-76749320D01*
X118024320Y-76356337D01*
X118237000Y-75842881D01*
X118237000Y-75287119D01*
X118024320Y-74773663D01*
X117631337Y-74380680D01*
X117117881Y-74168000D01*
X116562119Y-74168000D01*
X116048663Y-74380680D01*
X115655680Y-74773663D01*
X115443000Y-75287119D01*
X95377000Y-75287119D01*
X95164320Y-74773663D01*
X94771337Y-74380680D01*
X94257881Y-74168000D01*
X93702119Y-74168000D01*
X93188663Y-74380680D01*
X92795680Y-74773663D01*
X92583000Y-75287119D01*
X76327000Y-75287119D01*
X76327000Y-63627000D01*
X124333000Y-63627000D01*
X124333000Y-124333000D01*
G04 #@! TD*
M02*
