%TF.GenerationSoftware,KiCad,Pcbnew,9.0.0*%
%TF.CreationDate,2025-03-07T14:01:18-07:00*%
%TF.ProjectId,Cntrlr-Turnout,436e7472-6c72-42d5-9475-726e6f75742e,rev?*%
%TF.SameCoordinates,Original*%
%TF.FileFunction,Copper,L1,Top*%
%TF.FilePolarity,Positive*%
%FSLAX46Y46*%
G04 Gerber Fmt 4.6, Leading zero omitted, Abs format (unit mm)*
G04 Created by KiCad (PCBNEW 9.0.0) date 2025-03-07 14:01:18*
%MOMM*%
%LPD*%
G01*
G04 APERTURE LIST*
%TA.AperFunction,ComponentPad*%
%ADD10C,1.100000*%
%TD*%
%TA.AperFunction,ComponentPad*%
%ADD11R,1.100000X1.100000*%
%TD*%
%TA.AperFunction,ComponentPad*%
%ADD12R,1.248000X1.248000*%
%TD*%
%TA.AperFunction,ComponentPad*%
%ADD13C,1.248000*%
%TD*%
%TA.AperFunction,ComponentPad*%
%ADD14R,1.230000X1.230000*%
%TD*%
%TA.AperFunction,ComponentPad*%
%ADD15C,1.230000*%
%TD*%
%TA.AperFunction,ComponentPad*%
%ADD16C,1.950000*%
%TD*%
%TA.AperFunction,ComponentPad*%
%ADD17C,1.727200*%
%TD*%
%TA.AperFunction,ComponentPad*%
%ADD18C,1.208000*%
%TD*%
%TA.AperFunction,ComponentPad*%
%ADD19R,1.524000X1.524000*%
%TD*%
%TA.AperFunction,ComponentPad*%
%ADD20C,1.524000*%
%TD*%
%TA.AperFunction,ViaPad*%
%ADD21C,0.600000*%
%TD*%
%TA.AperFunction,Conductor*%
%ADD22C,0.200000*%
%TD*%
%TA.AperFunction,Conductor*%
%ADD23C,0.800000*%
%TD*%
%TA.AperFunction,Conductor*%
%ADD24C,0.400000*%
%TD*%
G04 APERTURE END LIST*
D10*
%TO.P,C4,N*%
%TO.N,GND*%
X123100000Y-94900000D03*
D11*
%TO.P,C4,P*%
%TO.N,+5V*%
X118100000Y-94900000D03*
%TD*%
D12*
%TO.P,U3,1,1\u002C2EN*%
%TO.N,+5V*%
X203680000Y-95780000D03*
D13*
%TO.P,U3,2,1A*%
%TO.N,Net-(U3-1A)*%
X201140000Y-95780000D03*
%TO.P,U3,3,1Y*%
%TO.N,Net-(U3-1Y)*%
X198600000Y-95780000D03*
%TO.P,U3,4,GND*%
%TO.N,GND*%
X196060000Y-95780000D03*
%TO.P,U3,5,GND*%
X193520000Y-95780000D03*
%TO.P,U3,6,2Y*%
%TO.N,Net-(U3-2Y)*%
X190980000Y-95780000D03*
%TO.P,U3,7,2A*%
%TO.N,Net-(U3-2A)*%
X188440000Y-95780000D03*
%TO.P,U3,8,VCC2*%
%TO.N,+12V*%
X185900000Y-95780000D03*
%TO.P,U3,9,3\u002C4EN*%
%TO.N,+5V*%
X185900000Y-103400000D03*
%TO.P,U3,10,3A*%
%TO.N,Net-(U3-3A)*%
X188440000Y-103400000D03*
%TO.P,U3,11,3Y*%
%TO.N,Net-(U3-3Y)*%
X190980000Y-103400000D03*
%TO.P,U3,12,GND*%
%TO.N,GND*%
X193520000Y-103400000D03*
%TO.P,U3,13,GND*%
X196060000Y-103400000D03*
%TO.P,U3,14,4Y*%
%TO.N,Net-(U3-4Y)*%
X198600000Y-103400000D03*
%TO.P,U3,15,4A*%
%TO.N,Net-(U3-4A)*%
X201140000Y-103400000D03*
%TO.P,U3,16,VCC1*%
%TO.N,+5V*%
X203680000Y-103400000D03*
%TD*%
D14*
%TO.P,U4,1,GPB0*%
%TO.N,Net-(U4-GPB0)*%
X190220000Y-74900000D03*
D15*
%TO.P,U4,2,GPB1*%
%TO.N,Net-(U4-GPB1)*%
X187680000Y-74900000D03*
%TO.P,U4,3,GPB2*%
%TO.N,Net-(U4-GPB2)*%
X185140000Y-74900000D03*
%TO.P,U4,4,GPB3*%
%TO.N,Net-(U4-GPB3)*%
X182600000Y-74900000D03*
%TO.P,U4,5,GPB4*%
%TO.N,Net-(U4-GPB4)*%
X180060000Y-74900000D03*
%TO.P,U4,6,GPB5*%
%TO.N,Net-(U4-GPB5)*%
X177520000Y-74900000D03*
%TO.P,U4,7,GPB6*%
%TO.N,Net-(U4-GPB6)*%
X174980000Y-74900000D03*
%TO.P,U4,8,GPB7*%
%TO.N,Net-(U4-GPB7)*%
X172440000Y-74900000D03*
%TO.P,U4,9,VDD*%
%TO.N,Net-(U4-VDD)*%
X169900000Y-74900000D03*
%TO.P,U4,10,VSS*%
%TO.N,GND*%
X167360000Y-74900000D03*
%TO.P,U4,11,NC*%
%TO.N,unconnected-(U4-NC-Pad11)*%
X164820000Y-74900000D03*
%TO.P,U4,12,SCK*%
%TO.N,Net-(U1-D1(GPIO5))*%
X162280000Y-74900000D03*
%TO.P,U4,13,SDA*%
%TO.N,Net-(U1-D2(GPIO4))*%
X159740000Y-74900000D03*
%TO.P,U4,14,NC*%
%TO.N,unconnected-(U4-NC-Pad14)*%
X157200000Y-74900000D03*
%TO.P,U4,15,A0*%
%TO.N,GND*%
X157200000Y-82770000D03*
%TO.P,U4,16,A1*%
X159740000Y-82770000D03*
%TO.P,U4,17,A2*%
X162280000Y-82770000D03*
%TO.P,U4,18,~{RESET}*%
%TO.N,Net-(U4-VDD)*%
X164820000Y-82770000D03*
%TO.P,U4,19,INTB*%
%TO.N,Net-(U1-D7(GPIO13))*%
X167360000Y-82770000D03*
%TO.P,U4,20,INTA*%
%TO.N,unconnected-(U4-INTA-Pad20)*%
X169900000Y-82770000D03*
%TO.P,U4,21,GPA0*%
%TO.N,Net-(U2-4A)*%
X172440000Y-82770000D03*
%TO.P,U4,22,GPA1*%
%TO.N,Net-(U2-3A)*%
X174980000Y-82770000D03*
%TO.P,U4,23,GPA2*%
%TO.N,Net-(U2-2A)*%
X177520000Y-82770000D03*
%TO.P,U4,24,GPA3*%
%TO.N,Net-(U2-1A)*%
X180060000Y-82770000D03*
%TO.P,U4,25,GPA4*%
%TO.N,Net-(U3-4A)*%
X182600000Y-82770000D03*
%TO.P,U4,26,GPA5*%
%TO.N,Net-(U3-3A)*%
X185140000Y-82770000D03*
%TO.P,U4,27,GPA6*%
%TO.N,Net-(U3-2A)*%
X187680000Y-82770000D03*
%TO.P,U4,28,GPA7*%
%TO.N,Net-(U3-1A)*%
X190220000Y-82770000D03*
%TD*%
D12*
%TO.P,U2,1,1\u002C2EN*%
%TO.N,+5V*%
X167180000Y-95780000D03*
D13*
%TO.P,U2,2,1A*%
%TO.N,Net-(U2-1A)*%
X164640000Y-95780000D03*
%TO.P,U2,3,1Y*%
%TO.N,Net-(U2-1Y)*%
X162100000Y-95780000D03*
%TO.P,U2,4,GND*%
%TO.N,GND*%
X159560000Y-95780000D03*
%TO.P,U2,5,GND*%
X157020000Y-95780000D03*
%TO.P,U2,6,2Y*%
%TO.N,Net-(U2-2Y)*%
X154480000Y-95780000D03*
%TO.P,U2,7,2A*%
%TO.N,Net-(U2-2A)*%
X151940000Y-95780000D03*
%TO.P,U2,8,VCC2*%
%TO.N,+12V*%
X149400000Y-95780000D03*
%TO.P,U2,9,3\u002C4EN*%
%TO.N,+5V*%
X149400000Y-103400000D03*
%TO.P,U2,10,3A*%
%TO.N,Net-(U2-3A)*%
X151940000Y-103400000D03*
%TO.P,U2,11,3Y*%
%TO.N,Net-(U2-3Y)*%
X154480000Y-103400000D03*
%TO.P,U2,12,GND*%
%TO.N,GND*%
X157020000Y-103400000D03*
%TO.P,U2,13,GND*%
X159560000Y-103400000D03*
%TO.P,U2,14,4Y*%
%TO.N,Net-(U2-4Y)*%
X162100000Y-103400000D03*
%TO.P,U2,15,4A*%
%TO.N,Net-(U2-4A)*%
X164640000Y-103400000D03*
%TO.P,U2,16,VCC1*%
%TO.N,+5V*%
X167180000Y-103400000D03*
%TD*%
D16*
%TO.P,TB4,1*%
%TO.N,+5V*%
X131600000Y-121400000D03*
%TO.P,TB4,2*%
%TO.N,+12V*%
X136600000Y-121400000D03*
%TO.P,TB4,3*%
%TO.N,GND*%
X141600000Y-121400000D03*
%TD*%
D17*
%TO.P,TB2,1,1*%
%TO.N,Net-(U2-1Y)*%
X168100000Y-121400000D03*
%TO.P,TB2,2,2*%
%TO.N,Net-(U2-2Y)*%
X170600000Y-121400000D03*
%TO.P,TB2,3,3*%
%TO.N,Net-(U2-3Y)*%
X173100000Y-121400000D03*
%TO.P,TB2,4,4*%
%TO.N,Net-(U2-4Y)*%
X175600000Y-121400000D03*
%TO.P,TB2,5,5*%
%TO.N,Net-(U3-1Y)*%
X178100000Y-121400000D03*
%TO.P,TB2,6,6*%
%TO.N,Net-(U3-2Y)*%
X180600000Y-121400000D03*
%TO.P,TB2,7,7*%
%TO.N,Net-(U3-3Y)*%
X183100000Y-121400000D03*
%TO.P,TB2,8,8*%
%TO.N,Net-(U3-4Y)*%
X185600000Y-121400000D03*
%TD*%
D10*
%TO.P,C3,N*%
%TO.N,GND*%
X118100000Y-107900000D03*
D11*
%TO.P,C3,P*%
%TO.N,+12V*%
X123100000Y-107900000D03*
%TD*%
D16*
%TO.P,TB3,1*%
%TO.N,GND*%
X196600000Y-59900000D03*
%TO.P,TB3,2*%
X201600000Y-59900000D03*
%TO.P,TB3,3*%
X206600000Y-59900000D03*
%TD*%
D17*
%TO.P,TB1,1,1*%
%TO.N,Net-(U4-GPB0)*%
X183100000Y-59900000D03*
%TO.P,TB1,2,2*%
%TO.N,Net-(U4-GPB1)*%
X180600000Y-59900000D03*
%TO.P,TB1,3,3*%
%TO.N,Net-(U4-GPB2)*%
X178100000Y-59900000D03*
%TO.P,TB1,4,4*%
%TO.N,Net-(U4-GPB3)*%
X175600000Y-59900000D03*
%TO.P,TB1,5,5*%
%TO.N,Net-(U4-GPB4)*%
X173100000Y-59900000D03*
%TO.P,TB1,6,6*%
%TO.N,Net-(U4-GPB5)*%
X170600000Y-59900000D03*
%TO.P,TB1,7,7*%
%TO.N,Net-(U4-GPB6)*%
X168100000Y-59900000D03*
%TO.P,TB1,8,8*%
%TO.N,Net-(U4-GPB7)*%
X165600000Y-59900000D03*
%TD*%
D18*
%TO.P,C2,1*%
%TO.N,+5V*%
X91100000Y-96900000D03*
%TO.P,C2,2*%
%TO.N,GND*%
X99100000Y-96900000D03*
%TD*%
%TO.P,C1,1*%
%TO.N,+12V*%
X123100000Y-117400000D03*
%TO.P,C1,2*%
%TO.N,GND*%
X123100000Y-125400000D03*
%TD*%
D19*
%TO.P,U1,1,AD(ADCO)*%
%TO.N,unconnected-(U1-AD(ADCO)-Pad1)*%
X82600000Y-68440000D03*
D20*
%TO.P,U1,2,RSV*%
%TO.N,unconnected-(U1-RSV-Pad2)*%
X82600000Y-70980000D03*
%TO.P,U1,3,RSV*%
%TO.N,unconnected-(U1-RSV-Pad3)*%
X82600000Y-73520000D03*
%TO.P,U1,4,SD3(GPIO10)*%
%TO.N,unconnected-(U1-SD3(GPIO10)-Pad4)*%
X82600000Y-76060000D03*
%TO.P,U1,5,SD2(GPIO9)*%
%TO.N,unconnected-(U1-SD2(GPIO9)-Pad5)*%
X82600000Y-78600000D03*
%TO.P,U1,6,SD1(MOS1)*%
%TO.N,unconnected-(U1-SD1(MOS1)-Pad6)*%
X82600000Y-81140000D03*
%TO.P,U1,7,CMD(CS)*%
%TO.N,unconnected-(U1-CMD(CS)-Pad7)*%
X82600000Y-83680000D03*
%TO.P,U1,8,SD0(MSI0)*%
%TO.N,unconnected-(U1-SD0(MSI0)-Pad8)*%
X82600000Y-86220000D03*
%TO.P,U1,9,CLK(SCLK)*%
%TO.N,unconnected-(U1-CLK(SCLK)-Pad9)*%
X82600000Y-88760000D03*
%TO.P,U1,10,GND*%
%TO.N,GND*%
X82600000Y-91300000D03*
%TO.P,U1,11,3.3v*%
%TO.N,unconnected-(U1-3.3v-Pad11)*%
X82600000Y-93840000D03*
%TO.P,U1,12,EN*%
%TO.N,unconnected-(U1-EN-Pad12)*%
X82600000Y-96380000D03*
%TO.P,U1,13,RST*%
%TO.N,unconnected-(U1-RST-Pad13)*%
X82600000Y-98920000D03*
%TO.P,U1,14,GND*%
%TO.N,GND*%
X82600000Y-101460000D03*
%TO.P,U1,15,VIN5v*%
%TO.N,+5V*%
X82600000Y-104000000D03*
%TO.P,U1,16,3.3v*%
%TO.N,unconnected-(U1-3.3v-Pad16)*%
X110600000Y-103960000D03*
%TO.P,U1,17,GND*%
%TO.N,GND*%
X110600000Y-101420000D03*
%TO.P,U1,18,TX(GPIO1)*%
%TO.N,unconnected-(U1-TX(GPIO1)-Pad18)*%
X110600000Y-98880000D03*
%TO.P,U1,19,RX(DPIO3)*%
%TO.N,unconnected-(U1-RX(DPIO3)-Pad19)*%
X110600000Y-96340000D03*
%TO.P,U1,20,D8(GPIO15)*%
%TO.N,unconnected-(U1-D8(GPIO15)-Pad20)*%
X110600000Y-93800000D03*
%TO.P,U1,21,D7(GPIO13)*%
%TO.N,Net-(U1-D7(GPIO13))*%
X110600000Y-91260000D03*
%TO.P,U1,22,D6(GPIO12)*%
%TO.N,unconnected-(U1-D6(GPIO12)-Pad22)*%
X110600000Y-88720000D03*
%TO.P,U1,23,D5(GPIO14)*%
%TO.N,unconnected-(U1-D5(GPIO14)-Pad23)*%
X110600000Y-86180000D03*
%TO.P,U1,24,GND*%
%TO.N,GND*%
X110600000Y-83640000D03*
%TO.P,U1,25,3.3v*%
%TO.N,Net-(U4-VDD)*%
X110600000Y-81100000D03*
%TO.P,U1,26,D4(GPIO2)*%
%TO.N,unconnected-(U1-D4(GPIO2)-Pad26)*%
X110600000Y-78560000D03*
%TO.P,U1,27,D3(GPIO0)*%
%TO.N,unconnected-(U1-D3(GPIO0)-Pad27)*%
X110600000Y-76020000D03*
%TO.P,U1,28,D2(GPIO4)*%
%TO.N,Net-(U1-D2(GPIO4))*%
X110600000Y-73480000D03*
%TO.P,U1,29,D1(GPIO5)*%
%TO.N,Net-(U1-D1(GPIO5))*%
X110600000Y-70940000D03*
%TO.P,U1,30,D0(GPIO16)*%
%TO.N,unconnected-(U1-D0(GPIO16)-Pad30)*%
X110600000Y-68400000D03*
%TD*%
D21*
%TO.N,Net-(U2-4A)*%
X172440000Y-90740000D03*
X172440000Y-103900000D03*
%TO.N,Net-(U2-1Y)*%
X209100000Y-118900000D03*
X209100000Y-122400000D03*
%TO.N,Net-(U2-3A)*%
X147100000Y-100400000D03*
%TO.N,Net-(U3-4A)*%
X192100000Y-89900000D03*
X192600000Y-98400000D03*
%TO.N,Net-(U3-3A)*%
X185100000Y-101400000D03*
%TD*%
D22*
%TO.N,GND*%
X118100000Y-107900000D02*
X117080000Y-107900000D01*
X123100000Y-125400000D02*
X137100000Y-125400000D01*
X123100000Y-94900000D02*
X123100000Y-102900000D01*
X167360000Y-74900000D02*
X174760000Y-67500000D01*
X110600000Y-101420000D02*
X103620000Y-101420000D01*
X93500000Y-91300000D02*
X82600000Y-91300000D01*
X137100000Y-125400000D02*
X139000000Y-123500000D01*
X157020000Y-95780000D02*
X159560000Y-95780000D01*
X139500000Y-123500000D02*
X141600000Y-121400000D01*
X157020000Y-103400000D02*
X159560000Y-103400000D01*
X99100000Y-96900000D02*
X93500000Y-91300000D01*
X94540000Y-101460000D02*
X82600000Y-101460000D01*
X193520000Y-95780000D02*
X196060000Y-95780000D01*
X103620000Y-101420000D02*
X99100000Y-96900000D01*
X199500000Y-67500000D02*
X201600000Y-65400000D01*
X174760000Y-67500000D02*
X199500000Y-67500000D01*
X118000000Y-122500000D02*
X120900000Y-125400000D01*
X193520000Y-103400000D02*
X196060000Y-103400000D01*
X201600000Y-65400000D02*
X201600000Y-59900000D01*
X120900000Y-125400000D02*
X123100000Y-125400000D01*
X201600000Y-59900000D02*
X206600000Y-59900000D01*
X111840000Y-83640000D02*
X123100000Y-94900000D01*
X118100000Y-122400000D02*
X118000000Y-122500000D01*
X139000000Y-123500000D02*
X139500000Y-123500000D01*
X162280000Y-82770000D02*
X162280000Y-79980000D01*
X123100000Y-102900000D02*
X118100000Y-107900000D01*
X99100000Y-96900000D02*
X94540000Y-101460000D01*
X162280000Y-79980000D02*
X167360000Y-74900000D01*
X201600000Y-59900000D02*
X196600000Y-59900000D01*
X117080000Y-107900000D02*
X110600000Y-101420000D01*
X110600000Y-83640000D02*
X111840000Y-83640000D01*
X118100000Y-107900000D02*
X118100000Y-122400000D01*
X162280000Y-82770000D02*
X157200000Y-82770000D01*
%TO.N,+12V*%
X123100000Y-117400000D02*
X123100000Y-107900000D01*
D23*
X145600000Y-98900000D02*
X148600000Y-98900000D01*
X148600000Y-98900000D02*
X149600000Y-97900000D01*
X185100000Y-97900000D02*
X185900000Y-97100000D01*
X136600000Y-107900000D02*
X145600000Y-98900000D01*
X149600000Y-97900000D02*
X185100000Y-97900000D01*
X185900000Y-97100000D02*
X185900000Y-95780000D01*
X149400000Y-98100000D02*
X149400000Y-95780000D01*
D22*
X148600000Y-98900000D02*
X149400000Y-98100000D01*
D23*
X136600000Y-121400000D02*
X136600000Y-107900000D01*
X123100000Y-107900000D02*
X136600000Y-107900000D01*
D22*
%TO.N,Net-(U2-4A)*%
X172440000Y-82770000D02*
X172440000Y-90740000D01*
X169940000Y-106400000D02*
X167600000Y-106400000D01*
X167600000Y-106360000D02*
X164640000Y-103400000D01*
X167600000Y-106400000D02*
X167600000Y-106360000D01*
X172440000Y-103900000D02*
X169940000Y-106400000D01*
D24*
%TO.N,Net-(U2-3Y)*%
X173100000Y-110400000D02*
X172100000Y-109400000D01*
X154480000Y-107280000D02*
X154480000Y-103400000D01*
X173100000Y-121400000D02*
X173100000Y-110400000D01*
X156600000Y-109400000D02*
X154480000Y-107280000D01*
X172100000Y-109400000D02*
X156600000Y-109400000D01*
%TO.N,Net-(U2-1Y)*%
X209100000Y-96400000D02*
X209100000Y-118900000D01*
X172100000Y-127400000D02*
X168100000Y-123400000D01*
X209100000Y-122400000D02*
X204100000Y-127400000D01*
X204100000Y-127400000D02*
X172100000Y-127400000D01*
X168100000Y-123400000D02*
X168100000Y-121400000D01*
X206600000Y-93900000D02*
X209100000Y-96400000D01*
X163980000Y-93900000D02*
X206600000Y-93900000D01*
X162100000Y-95780000D02*
X163980000Y-93900000D01*
%TO.N,Net-(U2-4Y)*%
X173100000Y-107400000D02*
X166100000Y-107400000D01*
X175600000Y-109900000D02*
X173100000Y-107400000D01*
X166100000Y-107400000D02*
X162100000Y-103400000D01*
X175600000Y-121400000D02*
X175600000Y-109900000D01*
D22*
%TO.N,Net-(U2-3A)*%
X151940000Y-103400000D02*
X148940000Y-100400000D01*
X148940000Y-100400000D02*
X147100000Y-100400000D01*
D24*
%TO.N,Net-(U2-2Y)*%
X156360000Y-92900000D02*
X154480000Y-94780000D01*
X210100000Y-95400000D02*
X207600000Y-92900000D01*
X175600000Y-126400000D02*
X203100000Y-126400000D01*
X207600000Y-92900000D02*
X156360000Y-92900000D01*
X203100000Y-126400000D02*
X210100000Y-119400000D01*
X210100000Y-119400000D02*
X210100000Y-95400000D01*
X154480000Y-94780000D02*
X154480000Y-95780000D01*
X170600000Y-121400000D02*
X175600000Y-126400000D01*
%TO.N,Net-(U3-1Y)*%
X208100000Y-102400000D02*
X205100000Y-99400000D01*
X178100000Y-123400000D02*
X179600000Y-124900000D01*
X198600000Y-124900000D02*
X208100000Y-115400000D01*
X208100000Y-115400000D02*
X208100000Y-102400000D01*
X178100000Y-121400000D02*
X178100000Y-123400000D01*
X201100000Y-99400000D02*
X198600000Y-96900000D01*
X198600000Y-96900000D02*
X198600000Y-95780000D01*
X205100000Y-99400000D02*
X201100000Y-99400000D01*
X179600000Y-124900000D02*
X198600000Y-124900000D01*
%TO.N,Net-(U3-2Y)*%
X180600000Y-104900000D02*
X186100000Y-99400000D01*
D22*
X189600000Y-98400000D02*
X190850000Y-97150000D01*
D24*
X180600000Y-110400000D02*
X180600000Y-104900000D01*
X190980000Y-97020000D02*
X190980000Y-95780000D01*
X188600000Y-99400000D02*
X190980000Y-97020000D01*
X180600000Y-121400000D02*
X180600000Y-110400000D01*
X186100000Y-99400000D02*
X188600000Y-99400000D01*
D22*
%TO.N,Net-(U3-4A)*%
X192100000Y-89900000D02*
X188100000Y-85900000D01*
X201140000Y-103400000D02*
X196140000Y-98400000D01*
X182600000Y-83900000D02*
X182600000Y-82770000D01*
X188100000Y-85900000D02*
X184600000Y-85900000D01*
X196140000Y-98400000D02*
X192600000Y-98400000D01*
X184600000Y-85900000D02*
X182600000Y-83900000D01*
D24*
%TO.N,Net-(U3-4Y)*%
X185600000Y-121400000D02*
X193100000Y-121400000D01*
X198600000Y-115900000D02*
X198600000Y-103400000D01*
X193100000Y-121400000D02*
X198600000Y-115900000D01*
D22*
%TO.N,Net-(U3-3A)*%
X188440000Y-103400000D02*
X186440000Y-101400000D01*
X186440000Y-101400000D02*
X185100000Y-101400000D01*
D24*
%TO.N,Net-(U3-3Y)*%
X190980000Y-111020000D02*
X190980000Y-103400000D01*
X183100000Y-118900000D02*
X190980000Y-111020000D01*
X183100000Y-121400000D02*
X183100000Y-118900000D01*
%TD*%
%TA.AperFunction,Conductor*%
%TO.N,GND*%
G36*
X212943039Y-57019685D02*
G01*
X212988794Y-57072489D01*
X213000000Y-57124000D01*
X213000000Y-119376000D01*
X212980315Y-119443039D01*
X212927511Y-119488794D01*
X212876000Y-119500000D01*
X210924500Y-119500000D01*
X210857461Y-119480315D01*
X210811706Y-119427511D01*
X210800500Y-119376000D01*
X210800500Y-95331004D01*
X210773581Y-95195677D01*
X210773580Y-95195676D01*
X210773580Y-95195672D01*
X210771602Y-95190896D01*
X210720776Y-95068191D01*
X210712106Y-95055215D01*
X210663177Y-94981987D01*
X210644114Y-94953457D01*
X210644113Y-94953455D01*
X208046545Y-92355887D01*
X207931807Y-92279222D01*
X207804332Y-92226421D01*
X207804322Y-92226418D01*
X207668996Y-92199500D01*
X207668994Y-92199500D01*
X207668993Y-92199500D01*
X156291007Y-92199500D01*
X156291003Y-92199500D01*
X156193760Y-92218843D01*
X156193758Y-92218843D01*
X156182591Y-92221065D01*
X156155671Y-92226420D01*
X156102866Y-92248292D01*
X156028189Y-92279225D01*
X156028188Y-92279226D01*
X156007199Y-92293249D01*
X156007192Y-92293253D01*
X155913457Y-92355886D01*
X155913453Y-92355889D01*
X153935888Y-94333453D01*
X153935887Y-94333454D01*
X153861951Y-94444110D01*
X153861949Y-94444112D01*
X153859222Y-94448191D01*
X153806421Y-94575667D01*
X153806418Y-94575677D01*
X153779500Y-94711004D01*
X153779500Y-94838855D01*
X153759815Y-94905894D01*
X153743182Y-94926536D01*
X153622279Y-95047439D01*
X153518242Y-95190633D01*
X153486182Y-95253554D01*
X153437885Y-95348342D01*
X153421956Y-95397366D01*
X153383189Y-95516678D01*
X153380932Y-95530927D01*
X153355500Y-95691500D01*
X153355500Y-95868500D01*
X153383189Y-96043321D01*
X153437885Y-96211658D01*
X153518242Y-96369366D01*
X153622280Y-96512562D01*
X153747438Y-96637720D01*
X153890634Y-96741758D01*
X153936280Y-96765016D01*
X153987075Y-96812989D01*
X154003870Y-96880810D01*
X153981333Y-96946945D01*
X153926618Y-96990397D01*
X153879984Y-96999500D01*
X152540016Y-96999500D01*
X152472977Y-96979815D01*
X152427222Y-96927011D01*
X152417278Y-96857853D01*
X152446303Y-96794297D01*
X152483719Y-96765016D01*
X152529366Y-96741758D01*
X152672562Y-96637720D01*
X152797720Y-96512562D01*
X152901758Y-96369366D01*
X152982115Y-96211658D01*
X153036811Y-96043321D01*
X153064500Y-95868500D01*
X153064500Y-95691500D01*
X153036811Y-95516679D01*
X152982115Y-95348342D01*
X152901758Y-95190634D01*
X152797720Y-95047438D01*
X152672562Y-94922280D01*
X152529366Y-94818242D01*
X152371658Y-94737885D01*
X152203321Y-94683189D01*
X152028500Y-94655500D01*
X151851500Y-94655500D01*
X151781209Y-94666633D01*
X151676678Y-94683189D01*
X151612020Y-94704198D01*
X151508342Y-94737885D01*
X151474252Y-94755255D01*
X151350633Y-94818242D01*
X151268935Y-94877599D01*
X151207438Y-94922280D01*
X151207436Y-94922282D01*
X151207435Y-94922282D01*
X151082282Y-95047435D01*
X151082282Y-95047436D01*
X151082280Y-95047438D01*
X151076630Y-95055215D01*
X150978242Y-95190633D01*
X150946182Y-95253554D01*
X150897885Y-95348342D01*
X150881956Y-95397366D01*
X150843189Y-95516678D01*
X150840932Y-95530927D01*
X150815500Y-95691500D01*
X150815500Y-95868500D01*
X150843189Y-96043321D01*
X150897885Y-96211658D01*
X150978242Y-96369366D01*
X151082280Y-96512562D01*
X151207438Y-96637720D01*
X151350634Y-96741758D01*
X151396280Y-96765016D01*
X151447075Y-96812989D01*
X151463870Y-96880810D01*
X151441333Y-96946945D01*
X151386618Y-96990397D01*
X151339984Y-96999500D01*
X150424500Y-96999500D01*
X150357461Y-96979815D01*
X150311706Y-96927011D01*
X150300500Y-96875500D01*
X150300500Y-96493970D01*
X150320185Y-96426931D01*
X150324182Y-96421084D01*
X150361758Y-96369366D01*
X150442115Y-96211658D01*
X150496811Y-96043321D01*
X150524500Y-95868500D01*
X150524500Y-95691500D01*
X150496811Y-95516679D01*
X150442115Y-95348342D01*
X150361758Y-95190634D01*
X150257720Y-95047438D01*
X150132562Y-94922280D01*
X149989366Y-94818242D01*
X149831658Y-94737885D01*
X149663321Y-94683189D01*
X149488500Y-94655500D01*
X149311500Y-94655500D01*
X149241209Y-94666633D01*
X149136678Y-94683189D01*
X149072020Y-94704198D01*
X148968342Y-94737885D01*
X148934252Y-94755255D01*
X148810633Y-94818242D01*
X148728935Y-94877599D01*
X148667438Y-94922280D01*
X148667436Y-94922282D01*
X148667435Y-94922282D01*
X148542282Y-95047435D01*
X148542282Y-95047436D01*
X148542280Y-95047438D01*
X148536630Y-95055215D01*
X148438242Y-95190633D01*
X148406182Y-95253554D01*
X148357885Y-95348342D01*
X148341956Y-95397366D01*
X148303189Y-95516678D01*
X148300932Y-95530927D01*
X148275500Y-95691500D01*
X148275500Y-95868500D01*
X148303189Y-96043321D01*
X148357885Y-96211658D01*
X148438107Y-96369102D01*
X148438242Y-96369366D01*
X148475818Y-96421084D01*
X148499298Y-96486890D01*
X148499500Y-96493970D01*
X148499500Y-97675638D01*
X148479815Y-97742677D01*
X148463181Y-97763319D01*
X148263319Y-97963181D01*
X148201996Y-97996666D01*
X148175638Y-97999500D01*
X145511303Y-97999500D01*
X145337341Y-98034103D01*
X145337329Y-98034106D01*
X145255392Y-98068045D01*
X145255393Y-98068046D01*
X145173455Y-98101985D01*
X145085040Y-98161063D01*
X145076888Y-98166510D01*
X145025961Y-98200537D01*
X145025960Y-98200538D01*
X136263319Y-106963181D01*
X136201996Y-106996666D01*
X136175638Y-106999500D01*
X124058231Y-106999500D01*
X123991192Y-106979815D01*
X123983920Y-106974767D01*
X123892331Y-106906204D01*
X123892328Y-106906202D01*
X123757482Y-106855908D01*
X123757483Y-106855908D01*
X123697883Y-106849501D01*
X123697881Y-106849500D01*
X123697873Y-106849500D01*
X123697864Y-106849500D01*
X122502129Y-106849500D01*
X122502123Y-106849501D01*
X122442516Y-106855908D01*
X122307671Y-106906202D01*
X122307664Y-106906206D01*
X122192455Y-106992452D01*
X122192452Y-106992455D01*
X122106206Y-107107664D01*
X122106202Y-107107671D01*
X122055908Y-107242517D01*
X122049501Y-107302116D01*
X122049500Y-107302135D01*
X122049500Y-108497870D01*
X122049501Y-108497876D01*
X122055908Y-108557483D01*
X122106202Y-108692328D01*
X122106206Y-108692335D01*
X122192452Y-108807544D01*
X122192455Y-108807547D01*
X122307664Y-108893793D01*
X122307673Y-108893798D01*
X122418832Y-108935257D01*
X122474766Y-108977127D01*
X122499184Y-109042592D01*
X122499500Y-109051439D01*
X122499500Y-116407870D01*
X122479815Y-116474909D01*
X122448387Y-116508187D01*
X122380467Y-116557534D01*
X122257537Y-116680464D01*
X122257537Y-116680465D01*
X122257535Y-116680467D01*
X122213649Y-116740869D01*
X122155347Y-116821115D01*
X122076418Y-116976021D01*
X122022697Y-117141357D01*
X122022697Y-117141360D01*
X121995500Y-117313074D01*
X121995500Y-117486925D01*
X122022697Y-117658639D01*
X122022697Y-117658642D01*
X122076418Y-117823978D01*
X122076420Y-117823981D01*
X122155347Y-117978884D01*
X122257535Y-118119533D01*
X122380467Y-118242465D01*
X122521116Y-118344653D01*
X122676019Y-118423580D01*
X122676021Y-118423581D01*
X122841358Y-118477302D01*
X122841359Y-118477302D01*
X122841362Y-118477303D01*
X123013074Y-118504500D01*
X123013075Y-118504500D01*
X123186925Y-118504500D01*
X123186926Y-118504500D01*
X123358638Y-118477303D01*
X123358641Y-118477302D01*
X123358642Y-118477302D01*
X123523978Y-118423581D01*
X123523978Y-118423580D01*
X123523981Y-118423580D01*
X123678884Y-118344653D01*
X123819533Y-118242465D01*
X123942465Y-118119533D01*
X124044653Y-117978884D01*
X124123580Y-117823981D01*
X124177303Y-117658638D01*
X124204500Y-117486926D01*
X124204500Y-117313074D01*
X124177303Y-117141362D01*
X124177302Y-117141358D01*
X124177302Y-117141357D01*
X124123581Y-116976021D01*
X124044652Y-116821115D01*
X123942465Y-116680467D01*
X123819533Y-116557535D01*
X123819532Y-116557534D01*
X123751613Y-116508187D01*
X123708948Y-116452856D01*
X123700500Y-116407870D01*
X123700500Y-109051439D01*
X123720185Y-108984400D01*
X123772989Y-108938645D01*
X123781168Y-108935257D01*
X123892326Y-108893798D01*
X123892326Y-108893797D01*
X123892331Y-108893796D01*
X123950819Y-108850011D01*
X123983920Y-108825233D01*
X124049385Y-108800816D01*
X124058231Y-108800500D01*
X135575500Y-108800500D01*
X135642539Y-108820185D01*
X135688294Y-108872989D01*
X135699500Y-108924500D01*
X135699500Y-119376000D01*
X135679815Y-119443039D01*
X135627011Y-119488794D01*
X135575500Y-119500000D01*
X117124000Y-119500000D01*
X117056961Y-119480315D01*
X117011206Y-119427511D01*
X117000000Y-119376000D01*
X117000000Y-108552456D01*
X117019685Y-108485417D01*
X117072489Y-108439662D01*
X117141647Y-108429718D01*
X117168075Y-108441787D01*
X117201378Y-108445067D01*
X117725000Y-107921445D01*
X117725000Y-107949370D01*
X117750556Y-108044745D01*
X117799925Y-108130255D01*
X117869745Y-108200075D01*
X117955255Y-108249444D01*
X118050630Y-108275000D01*
X118078554Y-108275000D01*
X117554931Y-108798620D01*
X117554932Y-108798621D01*
X117602633Y-108830495D01*
X117602639Y-108830498D01*
X117793725Y-108909649D01*
X117793733Y-108909651D01*
X117996579Y-108949999D01*
X117996583Y-108950000D01*
X118203417Y-108950000D01*
X118203420Y-108949999D01*
X118406266Y-108909651D01*
X118406274Y-108909649D01*
X118597366Y-108830495D01*
X118645066Y-108798621D01*
X118645067Y-108798620D01*
X118121447Y-108275000D01*
X118149370Y-108275000D01*
X118244745Y-108249444D01*
X118330255Y-108200075D01*
X118400075Y-108130255D01*
X118449444Y-108044745D01*
X118475000Y-107949370D01*
X118475000Y-107921446D01*
X118998620Y-108445067D01*
X118998621Y-108445066D01*
X119030495Y-108397366D01*
X119109649Y-108206274D01*
X119109651Y-108206266D01*
X119149999Y-108003420D01*
X119150000Y-108003417D01*
X119150000Y-107796583D01*
X119149999Y-107796579D01*
X119109651Y-107593733D01*
X119109649Y-107593725D01*
X119030498Y-107402639D01*
X119030495Y-107402633D01*
X118998621Y-107354932D01*
X118998620Y-107354931D01*
X118475000Y-107878552D01*
X118475000Y-107850630D01*
X118449444Y-107755255D01*
X118400075Y-107669745D01*
X118330255Y-107599925D01*
X118244745Y-107550556D01*
X118149370Y-107525000D01*
X118121447Y-107525000D01*
X118645067Y-107001378D01*
X118645067Y-107001377D01*
X118597359Y-106969500D01*
X118406274Y-106890350D01*
X118406266Y-106890348D01*
X118203420Y-106850000D01*
X117996579Y-106850000D01*
X117793733Y-106890348D01*
X117793725Y-106890350D01*
X117602641Y-106969500D01*
X117602631Y-106969505D01*
X117554932Y-107001377D01*
X117554932Y-107001378D01*
X118078554Y-107525000D01*
X118050630Y-107525000D01*
X117955255Y-107550556D01*
X117869745Y-107599925D01*
X117799925Y-107669745D01*
X117750556Y-107755255D01*
X117725000Y-107850630D01*
X117725000Y-107878554D01*
X117201378Y-107354932D01*
X117179228Y-107357114D01*
X117175511Y-107360335D01*
X117174370Y-107360499D01*
X117173486Y-107361238D01*
X117139876Y-107365458D01*
X117106353Y-107370279D01*
X117105304Y-107369800D01*
X117104161Y-107369944D01*
X117073609Y-107355325D01*
X117042797Y-107341254D01*
X117042173Y-107340283D01*
X117041135Y-107339787D01*
X117023339Y-107310977D01*
X117005023Y-107282476D01*
X117004807Y-107280974D01*
X117004417Y-107280343D01*
X117000000Y-107247541D01*
X117000000Y-95911196D01*
X117019685Y-95844157D01*
X117072489Y-95798402D01*
X117141647Y-95788458D01*
X117198308Y-95811928D01*
X117307665Y-95893793D01*
X117307668Y-95893795D01*
X117307671Y-95893797D01*
X117442517Y-95944091D01*
X117442516Y-95944091D01*
X117449444Y-95944835D01*
X117502127Y-95950500D01*
X118697872Y-95950499D01*
X118757483Y-95944091D01*
X118892331Y-95893796D01*
X119007546Y-95807546D01*
X119093796Y-95692331D01*
X119144091Y-95557483D01*
X119150500Y-95497873D01*
X119150499Y-94796579D01*
X122050000Y-94796579D01*
X122050000Y-95003420D01*
X122090348Y-95206266D01*
X122090350Y-95206274D01*
X122169500Y-95397359D01*
X122201377Y-95445067D01*
X122201378Y-95445067D01*
X122725000Y-94921445D01*
X122725000Y-94949370D01*
X122750556Y-95044745D01*
X122799925Y-95130255D01*
X122869745Y-95200075D01*
X122955255Y-95249444D01*
X123050630Y-95275000D01*
X123078554Y-95275000D01*
X122554931Y-95798620D01*
X122554932Y-95798621D01*
X122602633Y-95830495D01*
X122602639Y-95830498D01*
X122793725Y-95909649D01*
X122793733Y-95909651D01*
X122996579Y-95949999D01*
X122996583Y-95950000D01*
X123203417Y-95950000D01*
X123203420Y-95949999D01*
X123406266Y-95909651D01*
X123406274Y-95909649D01*
X123597366Y-95830495D01*
X123645066Y-95798621D01*
X123645067Y-95798620D01*
X123121447Y-95275000D01*
X123149370Y-95275000D01*
X123244745Y-95249444D01*
X123330255Y-95200075D01*
X123400075Y-95130255D01*
X123449444Y-95044745D01*
X123475000Y-94949370D01*
X123475000Y-94921447D01*
X123998620Y-95445067D01*
X123998621Y-95445066D01*
X124030495Y-95397366D01*
X124109649Y-95206274D01*
X124109651Y-95206266D01*
X124149999Y-95003420D01*
X124150000Y-95003417D01*
X124150000Y-94796583D01*
X124149999Y-94796579D01*
X124109651Y-94593733D01*
X124109649Y-94593725D01*
X124030498Y-94402639D01*
X124030495Y-94402633D01*
X123998621Y-94354932D01*
X123998620Y-94354931D01*
X123475000Y-94878552D01*
X123475000Y-94850630D01*
X123449444Y-94755255D01*
X123400075Y-94669745D01*
X123330255Y-94599925D01*
X123244745Y-94550556D01*
X123149370Y-94525000D01*
X123121447Y-94525000D01*
X123645067Y-94001378D01*
X123645067Y-94001377D01*
X123597359Y-93969500D01*
X123406274Y-93890350D01*
X123406266Y-93890348D01*
X123203420Y-93850000D01*
X122996579Y-93850000D01*
X122793733Y-93890348D01*
X122793725Y-93890350D01*
X122602641Y-93969500D01*
X122602631Y-93969505D01*
X122554932Y-94001377D01*
X122554932Y-94001378D01*
X123078554Y-94525000D01*
X123050630Y-94525000D01*
X122955255Y-94550556D01*
X122869745Y-94599925D01*
X122799925Y-94669745D01*
X122750556Y-94755255D01*
X122725000Y-94850630D01*
X122725000Y-94878554D01*
X122201378Y-94354932D01*
X122201377Y-94354932D01*
X122169505Y-94402631D01*
X122169500Y-94402641D01*
X122090350Y-94593725D01*
X122090348Y-94593733D01*
X122050000Y-94796579D01*
X119150499Y-94796579D01*
X119150499Y-94302128D01*
X119144091Y-94242517D01*
X119093796Y-94107669D01*
X119093796Y-94107668D01*
X119093795Y-94107667D01*
X119007547Y-93992455D01*
X119007544Y-93992452D01*
X118892335Y-93906206D01*
X118892328Y-93906202D01*
X118757482Y-93855908D01*
X118757483Y-93855908D01*
X118697883Y-93849501D01*
X118697881Y-93849500D01*
X118697873Y-93849500D01*
X118697864Y-93849500D01*
X117502129Y-93849500D01*
X117502123Y-93849501D01*
X117442516Y-93855908D01*
X117307671Y-93906202D01*
X117307664Y-93906206D01*
X117198311Y-93988069D01*
X117132847Y-94012487D01*
X117064574Y-93997636D01*
X117015168Y-93948231D01*
X117000000Y-93888803D01*
X117000000Y-82682242D01*
X156085000Y-82682242D01*
X156085000Y-82857757D01*
X156112454Y-83031097D01*
X156166690Y-83198016D01*
X156246364Y-83354385D01*
X156246369Y-83354393D01*
X156252967Y-83363475D01*
X156252970Y-83363475D01*
X156790521Y-82825924D01*
X156817941Y-82928254D01*
X156871918Y-83021746D01*
X156948254Y-83098082D01*
X157041746Y-83152059D01*
X157144075Y-83179478D01*
X156606523Y-83717029D01*
X156606523Y-83717030D01*
X156615609Y-83723631D01*
X156771983Y-83803309D01*
X156938902Y-83857545D01*
X157112243Y-83885000D01*
X157287757Y-83885000D01*
X157461097Y-83857545D01*
X157628016Y-83803309D01*
X157784384Y-83723635D01*
X157793476Y-83717029D01*
X157255925Y-83179478D01*
X157358254Y-83152059D01*
X157451746Y-83098082D01*
X157528082Y-83021746D01*
X157582059Y-82928254D01*
X157609478Y-82825924D01*
X158147029Y-83363476D01*
X158147029Y-83363475D01*
X158153635Y-83354384D01*
X158233309Y-83198016D01*
X158287545Y-83031097D01*
X158315000Y-82857757D01*
X158315000Y-82682242D01*
X158625000Y-82682242D01*
X158625000Y-82857757D01*
X158652454Y-83031097D01*
X158706690Y-83198016D01*
X158786364Y-83354385D01*
X158786369Y-83354393D01*
X158792967Y-83363475D01*
X158792970Y-83363475D01*
X159330521Y-82825924D01*
X159357941Y-82928254D01*
X159411918Y-83021746D01*
X159488254Y-83098082D01*
X159581746Y-83152059D01*
X159684075Y-83179478D01*
X159146523Y-83717029D01*
X159146523Y-83717030D01*
X159155609Y-83723631D01*
X159311983Y-83803309D01*
X159478902Y-83857545D01*
X159652243Y-83885000D01*
X159827757Y-83885000D01*
X160001097Y-83857545D01*
X160168016Y-83803309D01*
X160324384Y-83723635D01*
X160333476Y-83717029D01*
X159795925Y-83179478D01*
X159898254Y-83152059D01*
X159991746Y-83098082D01*
X160068082Y-83021746D01*
X160122059Y-82928254D01*
X160149478Y-82825924D01*
X160687029Y-83363476D01*
X160687029Y-83363475D01*
X160693635Y-83354384D01*
X160773309Y-83198016D01*
X160827545Y-83031097D01*
X160855000Y-82857757D01*
X160855000Y-82682242D01*
X161165000Y-82682242D01*
X161165000Y-82857757D01*
X161192454Y-83031097D01*
X161246690Y-83198016D01*
X161326364Y-83354385D01*
X161326369Y-83354393D01*
X161332967Y-83363475D01*
X161332970Y-83363475D01*
X161870521Y-82825924D01*
X161897941Y-82928254D01*
X161951918Y-83021746D01*
X162028254Y-83098082D01*
X162121746Y-83152059D01*
X162224075Y-83179478D01*
X161686523Y-83717029D01*
X161686523Y-83717030D01*
X161695609Y-83723631D01*
X161851983Y-83803309D01*
X162018902Y-83857545D01*
X162192243Y-83885000D01*
X162367757Y-83885000D01*
X162541097Y-83857545D01*
X162708016Y-83803309D01*
X162864384Y-83723635D01*
X162873475Y-83717029D01*
X162873476Y-83717029D01*
X162335925Y-83179478D01*
X162438254Y-83152059D01*
X162531746Y-83098082D01*
X162608082Y-83021746D01*
X162662059Y-82928254D01*
X162689478Y-82825925D01*
X163227029Y-83363476D01*
X163227029Y-83363475D01*
X163233635Y-83354384D01*
X163313309Y-83198016D01*
X163367545Y-83031097D01*
X163395000Y-82857757D01*
X163395000Y-82682242D01*
X163394995Y-82682208D01*
X163704500Y-82682208D01*
X163704500Y-82857792D01*
X163722812Y-82973406D01*
X163731968Y-83031214D01*
X163731968Y-83031217D01*
X163786224Y-83198200D01*
X163786225Y-83198203D01*
X163865804Y-83354384D01*
X163865939Y-83354649D01*
X163969145Y-83496699D01*
X164093301Y-83620855D01*
X164235351Y-83724061D01*
X164268182Y-83740789D01*
X164391796Y-83803774D01*
X164391799Y-83803775D01*
X164547553Y-83854382D01*
X164558787Y-83858032D01*
X164732208Y-83885500D01*
X164732209Y-83885500D01*
X164907791Y-83885500D01*
X164907792Y-83885500D01*
X165081213Y-83858032D01*
X165081216Y-83858031D01*
X165081217Y-83858031D01*
X165248200Y-83803775D01*
X165248203Y-83803774D01*
X165303254Y-83775724D01*
X165404649Y-83724061D01*
X165546699Y-83620855D01*
X165670855Y-83496699D01*
X165774061Y-83354649D01*
X165853774Y-83198203D01*
X165853835Y-83198016D01*
X165908031Y-83031217D01*
X165908031Y-83031216D01*
X165908032Y-83031213D01*
X165935500Y-82857792D01*
X165935500Y-82682208D01*
X166244500Y-82682208D01*
X166244500Y-82857792D01*
X166262812Y-82973406D01*
X166271968Y-83031214D01*
X166271968Y-83031217D01*
X166326224Y-83198200D01*
X166326225Y-83198203D01*
X166405804Y-83354384D01*
X166405939Y-83354649D01*
X166509145Y-83496699D01*
X166633301Y-83620855D01*
X166775351Y-83724061D01*
X166808182Y-83740789D01*
X166931796Y-83803774D01*
X166931799Y-83803775D01*
X167087553Y-83854382D01*
X167098787Y-83858032D01*
X167272208Y-83885500D01*
X167272209Y-83885500D01*
X167447791Y-83885500D01*
X167447792Y-83885500D01*
X167621213Y-83858032D01*
X167621216Y-83858031D01*
X167621217Y-83858031D01*
X167788200Y-83803775D01*
X167788203Y-83803774D01*
X167843254Y-83775724D01*
X167944649Y-83724061D01*
X168086699Y-83620855D01*
X168210855Y-83496699D01*
X168314061Y-83354649D01*
X168393774Y-83198203D01*
X168393835Y-83198016D01*
X168448031Y-83031217D01*
X168448031Y-83031216D01*
X168448032Y-83031213D01*
X168475500Y-82857792D01*
X168475500Y-82682208D01*
X168784500Y-82682208D01*
X168784500Y-82857792D01*
X168802812Y-82973406D01*
X168811968Y-83031214D01*
X168811968Y-83031217D01*
X168866224Y-83198200D01*
X168866225Y-83198203D01*
X168945804Y-83354384D01*
X168945939Y-83354649D01*
X169049145Y-83496699D01*
X169173301Y-83620855D01*
X169315351Y-83724061D01*
X169348182Y-83740789D01*
X169471796Y-83803774D01*
X169471799Y-83803775D01*
X169627553Y-83854382D01*
X169638787Y-83858032D01*
X169812208Y-83885500D01*
X169812209Y-83885500D01*
X169987791Y-83885500D01*
X169987792Y-83885500D01*
X170161213Y-83858032D01*
X170161216Y-83858031D01*
X170161217Y-83858031D01*
X170328200Y-83803775D01*
X170328203Y-83803774D01*
X170383254Y-83775724D01*
X170484649Y-83724061D01*
X170626699Y-83620855D01*
X170750855Y-83496699D01*
X170854061Y-83354649D01*
X170933774Y-83198203D01*
X170933835Y-83198016D01*
X170988031Y-83031217D01*
X170988031Y-83031216D01*
X170988032Y-83031213D01*
X171015500Y-82857792D01*
X171015500Y-82682208D01*
X171324500Y-82682208D01*
X171324500Y-82857792D01*
X171342812Y-82973406D01*
X171351968Y-83031214D01*
X171351968Y-83031217D01*
X171406224Y-83198200D01*
X171406225Y-83198203D01*
X171485804Y-83354384D01*
X171485939Y-83354649D01*
X171589145Y-83496699D01*
X171713301Y-83620855D01*
X171788388Y-83675408D01*
X171831051Y-83730735D01*
X171839500Y-83775724D01*
X171839500Y-90160234D01*
X171819815Y-90227273D01*
X171818602Y-90229125D01*
X171730609Y-90360814D01*
X171730602Y-90360827D01*
X171670264Y-90506498D01*
X171670261Y-90506510D01*
X171639500Y-90661153D01*
X171639500Y-90818846D01*
X171670261Y-90973489D01*
X171670264Y-90973501D01*
X171730602Y-91119172D01*
X171730609Y-91119185D01*
X171818210Y-91250288D01*
X171818213Y-91250292D01*
X171929707Y-91361786D01*
X171929711Y-91361789D01*
X172060814Y-91449390D01*
X172060827Y-91449397D01*
X172206498Y-91509735D01*
X172206503Y-91509737D01*
X172361153Y-91540499D01*
X172361156Y-91540500D01*
X172361158Y-91540500D01*
X172518844Y-91540500D01*
X172518845Y-91540499D01*
X172673497Y-91509737D01*
X172819179Y-91449394D01*
X172950289Y-91361789D01*
X173061789Y-91250289D01*
X173149394Y-91119179D01*
X173209737Y-90973497D01*
X173240500Y-90818842D01*
X173240500Y-90661158D01*
X173240500Y-90661155D01*
X173240499Y-90661153D01*
X173230203Y-90609390D01*
X173209737Y-90506503D01*
X173209735Y-90506498D01*
X173149397Y-90360827D01*
X173149390Y-90360814D01*
X173061398Y-90229125D01*
X173040520Y-90162447D01*
X173040500Y-90160234D01*
X173040500Y-83775724D01*
X173060185Y-83708685D01*
X173091609Y-83675410D01*
X173166699Y-83620855D01*
X173290855Y-83496699D01*
X173394061Y-83354649D01*
X173473774Y-83198203D01*
X173473835Y-83198016D01*
X173528031Y-83031217D01*
X173528031Y-83031216D01*
X173528032Y-83031213D01*
X173555500Y-82857792D01*
X173555500Y-82682208D01*
X173864500Y-82682208D01*
X173864500Y-82857792D01*
X173882812Y-82973406D01*
X173891968Y-83031214D01*
X173891968Y-83031217D01*
X173946224Y-83198200D01*
X173946225Y-83198203D01*
X174025804Y-83354384D01*
X174025939Y-83354649D01*
X174129145Y-83496699D01*
X174253301Y-83620855D01*
X174395351Y-83724061D01*
X174428182Y-83740789D01*
X174551796Y-83803774D01*
X174551799Y-83803775D01*
X174707553Y-83854382D01*
X174718787Y-83858032D01*
X174892208Y-83885500D01*
X174892209Y-83885500D01*
X175067791Y-83885500D01*
X175067792Y-83885500D01*
X175241213Y-83858032D01*
X175241216Y-83858031D01*
X175241217Y-83858031D01*
X175408200Y-83803775D01*
X175408203Y-83803774D01*
X175463254Y-83775724D01*
X175564649Y-83724061D01*
X175706699Y-83620855D01*
X175830855Y-83496699D01*
X175934061Y-83354649D01*
X176013774Y-83198203D01*
X176013835Y-83198016D01*
X176068031Y-83031217D01*
X176068031Y-83031216D01*
X176068032Y-83031213D01*
X176095500Y-82857792D01*
X176095500Y-82682208D01*
X176404500Y-82682208D01*
X176404500Y-82857792D01*
X176422812Y-82973406D01*
X176431968Y-83031214D01*
X176431968Y-83031217D01*
X176486224Y-83198200D01*
X176486225Y-83198203D01*
X176565804Y-83354384D01*
X176565939Y-83354649D01*
X176669145Y-83496699D01*
X176793301Y-83620855D01*
X176935351Y-83724061D01*
X176968182Y-83740789D01*
X177091796Y-83803774D01*
X177091799Y-83803775D01*
X177247553Y-83854382D01*
X177258787Y-83858032D01*
X177432208Y-83885500D01*
X177432209Y-83885500D01*
X177607791Y-83885500D01*
X177607792Y-83885500D01*
X177781213Y-83858032D01*
X177781216Y-83858031D01*
X177781217Y-83858031D01*
X177948200Y-83803775D01*
X177948203Y-83803774D01*
X178003254Y-83775724D01*
X178104649Y-83724061D01*
X178246699Y-83620855D01*
X178370855Y-83496699D01*
X178474061Y-83354649D01*
X178553774Y-83198203D01*
X178553835Y-83198016D01*
X178608031Y-83031217D01*
X178608031Y-83031216D01*
X178608032Y-83031213D01*
X178635500Y-82857792D01*
X178635500Y-82682208D01*
X178944500Y-82682208D01*
X178944500Y-82857792D01*
X178962812Y-82973406D01*
X178971968Y-83031214D01*
X178971968Y-83031217D01*
X179026224Y-83198200D01*
X179026225Y-83198203D01*
X179105804Y-83354384D01*
X179105939Y-83354649D01*
X179209145Y-83496699D01*
X179333301Y-83620855D01*
X179475351Y-83724061D01*
X179508182Y-83740789D01*
X179631796Y-83803774D01*
X179631799Y-83803775D01*
X179787553Y-83854382D01*
X179798787Y-83858032D01*
X179972208Y-83885500D01*
X179972209Y-83885500D01*
X180147791Y-83885500D01*
X180147792Y-83885500D01*
X180321213Y-83858032D01*
X180321216Y-83858031D01*
X180321217Y-83858031D01*
X180488200Y-83803775D01*
X180488203Y-83803774D01*
X180543254Y-83775724D01*
X180644649Y-83724061D01*
X180786699Y-83620855D01*
X180910855Y-83496699D01*
X181014061Y-83354649D01*
X181093774Y-83198203D01*
X181093835Y-83198016D01*
X181148031Y-83031217D01*
X181148031Y-83031216D01*
X181148032Y-83031213D01*
X181175500Y-82857792D01*
X181175500Y-82682208D01*
X181484500Y-82682208D01*
X181484500Y-82857792D01*
X181502812Y-82973406D01*
X181511968Y-83031214D01*
X181511968Y-83031217D01*
X181566224Y-83198200D01*
X181566225Y-83198203D01*
X181645804Y-83354384D01*
X181645939Y-83354649D01*
X181749145Y-83496699D01*
X181873301Y-83620855D01*
X181948388Y-83675408D01*
X181951726Y-83679738D01*
X181956703Y-83682011D01*
X181972831Y-83707107D01*
X181991051Y-83730735D01*
X181992304Y-83737408D01*
X181994477Y-83740789D01*
X181999500Y-83775724D01*
X181999500Y-83813330D01*
X181999499Y-83813348D01*
X181999499Y-83979054D01*
X181999498Y-83979054D01*
X182040423Y-84131785D01*
X182069358Y-84181900D01*
X182069359Y-84181904D01*
X182069360Y-84181904D01*
X182119479Y-84268714D01*
X182119481Y-84268717D01*
X182238349Y-84387585D01*
X182238355Y-84387590D01*
X184115139Y-86264374D01*
X184115149Y-86264385D01*
X184119479Y-86268715D01*
X184119480Y-86268716D01*
X184231284Y-86380520D01*
X184318095Y-86430639D01*
X184318097Y-86430641D01*
X184356151Y-86452611D01*
X184368215Y-86459577D01*
X184520943Y-86500500D01*
X184679057Y-86500500D01*
X187799903Y-86500500D01*
X187866942Y-86520185D01*
X187887584Y-86536819D01*
X191265425Y-89914660D01*
X191298910Y-89975983D01*
X191299361Y-89978149D01*
X191330261Y-90133491D01*
X191330264Y-90133501D01*
X191390602Y-90279172D01*
X191390609Y-90279185D01*
X191478210Y-90410288D01*
X191478213Y-90410292D01*
X191589707Y-90521786D01*
X191589711Y-90521789D01*
X191720814Y-90609390D01*
X191720827Y-90609397D01*
X191845779Y-90661153D01*
X191866503Y-90669737D01*
X192021153Y-90700499D01*
X192021156Y-90700500D01*
X192021158Y-90700500D01*
X192178844Y-90700500D01*
X192178845Y-90700499D01*
X192333497Y-90669737D01*
X192479179Y-90609394D01*
X192610289Y-90521789D01*
X192721789Y-90410289D01*
X192809394Y-90279179D01*
X192869737Y-90133497D01*
X192900500Y-89978842D01*
X192900500Y-89821158D01*
X192900500Y-89821155D01*
X192900499Y-89821153D01*
X192869738Y-89666510D01*
X192869737Y-89666503D01*
X192869735Y-89666498D01*
X192809397Y-89520827D01*
X192809390Y-89520814D01*
X192721789Y-89389711D01*
X192721786Y-89389707D01*
X192610292Y-89278213D01*
X192610288Y-89278210D01*
X192479185Y-89190609D01*
X192479172Y-89190602D01*
X192333501Y-89130264D01*
X192333491Y-89130261D01*
X192178149Y-89099361D01*
X192116238Y-89066976D01*
X192114660Y-89065425D01*
X188587590Y-85538355D01*
X188587588Y-85538352D01*
X188468717Y-85419481D01*
X188468716Y-85419480D01*
X188381904Y-85369360D01*
X188381904Y-85369359D01*
X188381900Y-85369358D01*
X188331785Y-85340423D01*
X188179057Y-85299499D01*
X188020943Y-85299499D01*
X188013347Y-85299499D01*
X188013331Y-85299500D01*
X184900097Y-85299500D01*
X184833058Y-85279815D01*
X184812416Y-85263181D01*
X183336075Y-83786840D01*
X183302590Y-83725517D01*
X183307574Y-83655825D01*
X183336071Y-83611482D01*
X183450855Y-83496699D01*
X183554061Y-83354649D01*
X183633774Y-83198203D01*
X183633835Y-83198016D01*
X183688031Y-83031217D01*
X183688031Y-83031216D01*
X183688032Y-83031213D01*
X183715500Y-82857792D01*
X183715500Y-82682208D01*
X184024500Y-82682208D01*
X184024500Y-82857792D01*
X184042812Y-82973406D01*
X184051968Y-83031214D01*
X184051968Y-83031217D01*
X184106224Y-83198200D01*
X184106225Y-83198203D01*
X184185804Y-83354384D01*
X184185939Y-83354649D01*
X184289145Y-83496699D01*
X184413301Y-83620855D01*
X184555351Y-83724061D01*
X184588182Y-83740789D01*
X184711796Y-83803774D01*
X184711799Y-83803775D01*
X184867553Y-83854382D01*
X184878787Y-83858032D01*
X185052208Y-83885500D01*
X185052209Y-83885500D01*
X185227791Y-83885500D01*
X185227792Y-83885500D01*
X185401213Y-83858032D01*
X185401216Y-83858031D01*
X185401217Y-83858031D01*
X185568200Y-83803775D01*
X185568203Y-83803774D01*
X185623254Y-83775724D01*
X185724649Y-83724061D01*
X185866699Y-83620855D01*
X185990855Y-83496699D01*
X186094061Y-83354649D01*
X186173774Y-83198203D01*
X186173835Y-83198016D01*
X186228031Y-83031217D01*
X186228031Y-83031216D01*
X186228032Y-83031213D01*
X186255500Y-82857792D01*
X186255500Y-82682208D01*
X186564500Y-82682208D01*
X186564500Y-82857792D01*
X186582812Y-82973406D01*
X186591968Y-83031214D01*
X186591968Y-83031217D01*
X186646224Y-83198200D01*
X186646225Y-83198203D01*
X186725804Y-83354384D01*
X186725939Y-83354649D01*
X186829145Y-83496699D01*
X186953301Y-83620855D01*
X187095351Y-83724061D01*
X187128182Y-83740789D01*
X187251796Y-83803774D01*
X187251799Y-83803775D01*
X187407553Y-83854382D01*
X187418787Y-83858032D01*
X187592208Y-83885500D01*
X187592209Y-83885500D01*
X187767791Y-83885500D01*
X187767792Y-83885500D01*
X187941213Y-83858032D01*
X187941216Y-83858031D01*
X187941217Y-83858031D01*
X188108200Y-83803775D01*
X188108203Y-83803774D01*
X188163254Y-83775724D01*
X188264649Y-83724061D01*
X188406699Y-83620855D01*
X188530855Y-83496699D01*
X188634061Y-83354649D01*
X188713774Y-83198203D01*
X188713835Y-83198016D01*
X188768031Y-83031217D01*
X188768031Y-83031216D01*
X188768032Y-83031213D01*
X188795500Y-82857792D01*
X188795500Y-82682208D01*
X189104500Y-82682208D01*
X189104500Y-82857792D01*
X189122812Y-82973406D01*
X189131968Y-83031214D01*
X189131968Y-83031217D01*
X189186224Y-83198200D01*
X189186225Y-83198203D01*
X189265804Y-83354384D01*
X189265939Y-83354649D01*
X189369145Y-83496699D01*
X189493301Y-83620855D01*
X189635351Y-83724061D01*
X189668182Y-83740789D01*
X189791796Y-83803774D01*
X189791799Y-83803775D01*
X189947553Y-83854382D01*
X189958787Y-83858032D01*
X190132208Y-83885500D01*
X190132209Y-83885500D01*
X190307791Y-83885500D01*
X190307792Y-83885500D01*
X190481213Y-83858032D01*
X190481216Y-83858031D01*
X190481217Y-83858031D01*
X190648200Y-83803775D01*
X190648203Y-83803774D01*
X190703254Y-83775724D01*
X190804649Y-83724061D01*
X190946699Y-83620855D01*
X191070855Y-83496699D01*
X191174061Y-83354649D01*
X191253774Y-83198203D01*
X191253835Y-83198016D01*
X191308031Y-83031217D01*
X191308031Y-83031216D01*
X191308032Y-83031213D01*
X191335500Y-82857792D01*
X191335500Y-82682208D01*
X191308032Y-82508787D01*
X191308031Y-82508783D01*
X191308031Y-82508782D01*
X191253775Y-82341799D01*
X191253774Y-82341796D01*
X191213157Y-82262083D01*
X191174061Y-82185351D01*
X191070855Y-82043301D01*
X190946699Y-81919145D01*
X190804649Y-81815939D01*
X190648203Y-81736225D01*
X190648200Y-81736224D01*
X190481215Y-81681968D01*
X190365599Y-81663656D01*
X190307792Y-81654500D01*
X190132208Y-81654500D01*
X190074401Y-81663656D01*
X189958785Y-81681968D01*
X189958782Y-81681968D01*
X189791799Y-81736224D01*
X189791796Y-81736225D01*
X189635350Y-81815939D01*
X189493299Y-81919146D01*
X189369146Y-82043299D01*
X189265939Y-82185350D01*
X189186225Y-82341796D01*
X189186224Y-82341799D01*
X189131968Y-82508782D01*
X189131968Y-82508785D01*
X189115660Y-82611746D01*
X189104500Y-82682208D01*
X188795500Y-82682208D01*
X188768032Y-82508787D01*
X188768031Y-82508783D01*
X188768031Y-82508782D01*
X188713775Y-82341799D01*
X188713774Y-82341796D01*
X188673157Y-82262083D01*
X188634061Y-82185351D01*
X188530855Y-82043301D01*
X188406699Y-81919145D01*
X188264649Y-81815939D01*
X188108203Y-81736225D01*
X188108200Y-81736224D01*
X187941215Y-81681968D01*
X187825599Y-81663656D01*
X187767792Y-81654500D01*
X187592208Y-81654500D01*
X187534401Y-81663656D01*
X187418785Y-81681968D01*
X187418782Y-81681968D01*
X187251799Y-81736224D01*
X187251796Y-81736225D01*
X187095350Y-81815939D01*
X186953299Y-81919146D01*
X186829146Y-82043299D01*
X186725939Y-82185350D01*
X186646225Y-82341796D01*
X186646224Y-82341799D01*
X186591968Y-82508782D01*
X186591968Y-82508785D01*
X186575660Y-82611746D01*
X186564500Y-82682208D01*
X186255500Y-82682208D01*
X186228032Y-82508787D01*
X186228031Y-82508783D01*
X186228031Y-82508782D01*
X186173775Y-82341799D01*
X186173774Y-82341796D01*
X186133157Y-82262083D01*
X186094061Y-82185351D01*
X185990855Y-82043301D01*
X185866699Y-81919145D01*
X185724649Y-81815939D01*
X185568203Y-81736225D01*
X185568200Y-81736224D01*
X185401215Y-81681968D01*
X185285599Y-81663656D01*
X185227792Y-81654500D01*
X185052208Y-81654500D01*
X184994401Y-81663656D01*
X184878785Y-81681968D01*
X184878782Y-81681968D01*
X184711799Y-81736224D01*
X184711796Y-81736225D01*
X184555350Y-81815939D01*
X184413299Y-81919146D01*
X184289146Y-82043299D01*
X184185939Y-82185350D01*
X184106225Y-82341796D01*
X184106224Y-82341799D01*
X184051968Y-82508782D01*
X184051968Y-82508785D01*
X184035660Y-82611746D01*
X184024500Y-82682208D01*
X183715500Y-82682208D01*
X183688032Y-82508787D01*
X183688031Y-82508783D01*
X183688031Y-82508782D01*
X183633775Y-82341799D01*
X183633774Y-82341796D01*
X183593157Y-82262083D01*
X183554061Y-82185351D01*
X183450855Y-82043301D01*
X183326699Y-81919145D01*
X183184649Y-81815939D01*
X183028203Y-81736225D01*
X183028200Y-81736224D01*
X182861215Y-81681968D01*
X182745599Y-81663656D01*
X182687792Y-81654500D01*
X182512208Y-81654500D01*
X182454401Y-81663656D01*
X182338785Y-81681968D01*
X182338782Y-81681968D01*
X182171799Y-81736224D01*
X182171796Y-81736225D01*
X182015350Y-81815939D01*
X181873299Y-81919146D01*
X181749146Y-82043299D01*
X181645939Y-82185350D01*
X181566225Y-82341796D01*
X181566224Y-82341799D01*
X181511968Y-82508782D01*
X181511968Y-82508785D01*
X181495660Y-82611746D01*
X181484500Y-82682208D01*
X181175500Y-82682208D01*
X181148032Y-82508787D01*
X181148031Y-82508783D01*
X181148031Y-82508782D01*
X181093775Y-82341799D01*
X181093774Y-82341796D01*
X181053157Y-82262083D01*
X181014061Y-82185351D01*
X180910855Y-82043301D01*
X180786699Y-81919145D01*
X180644649Y-81815939D01*
X180488203Y-81736225D01*
X180488200Y-81736224D01*
X180321215Y-81681968D01*
X180205599Y-81663656D01*
X180147792Y-81654500D01*
X179972208Y-81654500D01*
X179914401Y-81663656D01*
X179798785Y-81681968D01*
X179798782Y-81681968D01*
X179631799Y-81736224D01*
X179631796Y-81736225D01*
X179475350Y-81815939D01*
X179333299Y-81919146D01*
X179209146Y-82043299D01*
X179105939Y-82185350D01*
X179026225Y-82341796D01*
X179026224Y-82341799D01*
X178971968Y-82508782D01*
X178971968Y-82508785D01*
X178955660Y-82611746D01*
X178944500Y-82682208D01*
X178635500Y-82682208D01*
X178608032Y-82508787D01*
X178608031Y-82508783D01*
X178608031Y-82508782D01*
X178553775Y-82341799D01*
X178553774Y-82341796D01*
X178513157Y-82262083D01*
X178474061Y-82185351D01*
X178370855Y-82043301D01*
X178246699Y-81919145D01*
X178104649Y-81815939D01*
X177948203Y-81736225D01*
X177948200Y-81736224D01*
X177781215Y-81681968D01*
X177665599Y-81663656D01*
X177607792Y-81654500D01*
X177432208Y-81654500D01*
X177374401Y-81663656D01*
X177258785Y-81681968D01*
X177258782Y-81681968D01*
X177091799Y-81736224D01*
X177091796Y-81736225D01*
X176935350Y-81815939D01*
X176793299Y-81919146D01*
X176669146Y-82043299D01*
X176565939Y-82185350D01*
X176486225Y-82341796D01*
X176486224Y-82341799D01*
X176431968Y-82508782D01*
X176431968Y-82508785D01*
X176415660Y-82611746D01*
X176404500Y-82682208D01*
X176095500Y-82682208D01*
X176068032Y-82508787D01*
X176068031Y-82508783D01*
X176068031Y-82508782D01*
X176013775Y-82341799D01*
X176013774Y-82341796D01*
X175973157Y-82262083D01*
X175934061Y-82185351D01*
X175830855Y-82043301D01*
X175706699Y-81919145D01*
X175564649Y-81815939D01*
X175408203Y-81736225D01*
X175408200Y-81736224D01*
X175241215Y-81681968D01*
X175125599Y-81663656D01*
X175067792Y-81654500D01*
X174892208Y-81654500D01*
X174834401Y-81663656D01*
X174718785Y-81681968D01*
X174718782Y-81681968D01*
X174551799Y-81736224D01*
X174551796Y-81736225D01*
X174395350Y-81815939D01*
X174253299Y-81919146D01*
X174129146Y-82043299D01*
X174025939Y-82185350D01*
X173946225Y-82341796D01*
X173946224Y-82341799D01*
X173891968Y-82508782D01*
X173891968Y-82508785D01*
X173875660Y-82611746D01*
X173864500Y-82682208D01*
X173555500Y-82682208D01*
X173528032Y-82508787D01*
X173528031Y-82508783D01*
X173528031Y-82508782D01*
X173473775Y-82341799D01*
X173473774Y-82341796D01*
X173433157Y-82262083D01*
X173394061Y-82185351D01*
X173290855Y-82043301D01*
X173166699Y-81919145D01*
X173024649Y-81815939D01*
X172868203Y-81736225D01*
X172868200Y-81736224D01*
X172701215Y-81681968D01*
X172585599Y-81663656D01*
X172527792Y-81654500D01*
X172352208Y-81654500D01*
X172294401Y-81663656D01*
X172178785Y-81681968D01*
X172178782Y-81681968D01*
X172011799Y-81736224D01*
X172011796Y-81736225D01*
X171855350Y-81815939D01*
X171713299Y-81919146D01*
X171589146Y-82043299D01*
X171485939Y-82185350D01*
X171406225Y-82341796D01*
X171406224Y-82341799D01*
X171351968Y-82508782D01*
X171351968Y-82508785D01*
X171335660Y-82611746D01*
X171324500Y-82682208D01*
X171015500Y-82682208D01*
X170988032Y-82508787D01*
X170988031Y-82508783D01*
X170988031Y-82508782D01*
X170933775Y-82341799D01*
X170933774Y-82341796D01*
X170893157Y-82262083D01*
X170854061Y-82185351D01*
X170750855Y-82043301D01*
X170626699Y-81919145D01*
X170484649Y-81815939D01*
X170328203Y-81736225D01*
X170328200Y-81736224D01*
X170161215Y-81681968D01*
X170045599Y-81663656D01*
X169987792Y-81654500D01*
X169812208Y-81654500D01*
X169754401Y-81663656D01*
X169638785Y-81681968D01*
X169638782Y-81681968D01*
X169471799Y-81736224D01*
X169471796Y-81736225D01*
X169315350Y-81815939D01*
X169173299Y-81919146D01*
X169049146Y-82043299D01*
X168945939Y-82185350D01*
X168866225Y-82341796D01*
X168866224Y-82341799D01*
X168811968Y-82508782D01*
X168811968Y-82508785D01*
X168795660Y-82611746D01*
X168784500Y-82682208D01*
X168475500Y-82682208D01*
X168448032Y-82508787D01*
X168448031Y-82508783D01*
X168448031Y-82508782D01*
X168393775Y-82341799D01*
X168393774Y-82341796D01*
X168353157Y-82262083D01*
X168314061Y-82185351D01*
X168210855Y-82043301D01*
X168086699Y-81919145D01*
X167944649Y-81815939D01*
X167788203Y-81736225D01*
X167788200Y-81736224D01*
X167621215Y-81681968D01*
X167505599Y-81663656D01*
X167447792Y-81654500D01*
X167272208Y-81654500D01*
X167214401Y-81663656D01*
X167098785Y-81681968D01*
X167098782Y-81681968D01*
X166931799Y-81736224D01*
X166931796Y-81736225D01*
X166775350Y-81815939D01*
X166633299Y-81919146D01*
X166509146Y-82043299D01*
X166405939Y-82185350D01*
X166326225Y-82341796D01*
X166326224Y-82341799D01*
X166271968Y-82508782D01*
X166271968Y-82508785D01*
X166255660Y-82611746D01*
X166244500Y-82682208D01*
X165935500Y-82682208D01*
X165908032Y-82508787D01*
X165908031Y-82508783D01*
X165908031Y-82508782D01*
X165853775Y-82341799D01*
X165853774Y-82341796D01*
X165813157Y-82262083D01*
X165774061Y-82185351D01*
X165670855Y-82043301D01*
X165546699Y-81919145D01*
X165404649Y-81815939D01*
X165248203Y-81736225D01*
X165248200Y-81736224D01*
X165081215Y-81681968D01*
X164965599Y-81663656D01*
X164907792Y-81654500D01*
X164732208Y-81654500D01*
X164674401Y-81663656D01*
X164558785Y-81681968D01*
X164558782Y-81681968D01*
X164391799Y-81736224D01*
X164391796Y-81736225D01*
X164235350Y-81815939D01*
X164093299Y-81919146D01*
X163969146Y-82043299D01*
X163865939Y-82185350D01*
X163786225Y-82341796D01*
X163786224Y-82341799D01*
X163731968Y-82508782D01*
X163731968Y-82508785D01*
X163715660Y-82611746D01*
X163704500Y-82682208D01*
X163394995Y-82682208D01*
X163367545Y-82508902D01*
X163313309Y-82341983D01*
X163233631Y-82185609D01*
X163227030Y-82176523D01*
X162689478Y-82714074D01*
X162662059Y-82611746D01*
X162608082Y-82518254D01*
X162531746Y-82441918D01*
X162438254Y-82387941D01*
X162335925Y-82360521D01*
X162873475Y-81822970D01*
X162873475Y-81822967D01*
X162864393Y-81816369D01*
X162864385Y-81816364D01*
X162708016Y-81736690D01*
X162541097Y-81682454D01*
X162367757Y-81655000D01*
X162192243Y-81655000D01*
X162018902Y-81682454D01*
X161851983Y-81736690D01*
X161695610Y-81816368D01*
X161686523Y-81822969D01*
X162224075Y-82360521D01*
X162121746Y-82387941D01*
X162028254Y-82441918D01*
X161951918Y-82518254D01*
X161897941Y-82611746D01*
X161870521Y-82714075D01*
X161332969Y-82176523D01*
X161326368Y-82185610D01*
X161246690Y-82341983D01*
X161192454Y-82508902D01*
X161165000Y-82682242D01*
X160855000Y-82682242D01*
X160827545Y-82508902D01*
X160773309Y-82341983D01*
X160693631Y-82185609D01*
X160687030Y-82176523D01*
X160687029Y-82176523D01*
X160149478Y-82714074D01*
X160122059Y-82611746D01*
X160068082Y-82518254D01*
X159991746Y-82441918D01*
X159898254Y-82387941D01*
X159795925Y-82360521D01*
X160333475Y-81822970D01*
X160333475Y-81822967D01*
X160324393Y-81816369D01*
X160324385Y-81816364D01*
X160168016Y-81736690D01*
X160001097Y-81682454D01*
X159827757Y-81655000D01*
X159652243Y-81655000D01*
X159478902Y-81682454D01*
X159311983Y-81736690D01*
X159155610Y-81816368D01*
X159146523Y-81822969D01*
X159684075Y-82360521D01*
X159581746Y-82387941D01*
X159488254Y-82441918D01*
X159411918Y-82518254D01*
X159357941Y-82611746D01*
X159330521Y-82714075D01*
X158792969Y-82176523D01*
X158786368Y-82185610D01*
X158706690Y-82341983D01*
X158652454Y-82508902D01*
X158625000Y-82682242D01*
X158315000Y-82682242D01*
X158287545Y-82508902D01*
X158233309Y-82341983D01*
X158153631Y-82185609D01*
X158147030Y-82176523D01*
X157609478Y-82714074D01*
X157582059Y-82611746D01*
X157528082Y-82518254D01*
X157451746Y-82441918D01*
X157358254Y-82387941D01*
X157255925Y-82360521D01*
X157793475Y-81822970D01*
X157793475Y-81822967D01*
X157784393Y-81816369D01*
X157784385Y-81816364D01*
X157628016Y-81736690D01*
X157461097Y-81682454D01*
X157287757Y-81655000D01*
X157112243Y-81655000D01*
X156938902Y-81682454D01*
X156771983Y-81736690D01*
X156615610Y-81816368D01*
X156606523Y-81822969D01*
X157144075Y-82360521D01*
X157041746Y-82387941D01*
X156948254Y-82441918D01*
X156871918Y-82518254D01*
X156817941Y-82611746D01*
X156790521Y-82714075D01*
X156252969Y-82176523D01*
X156246368Y-82185610D01*
X156166690Y-82341983D01*
X156112454Y-82508902D01*
X156085000Y-82682242D01*
X117000000Y-82682242D01*
X117000000Y-74812208D01*
X156084500Y-74812208D01*
X156084500Y-74987792D01*
X156102812Y-75103406D01*
X156111968Y-75161214D01*
X156111968Y-75161217D01*
X156166224Y-75328200D01*
X156166225Y-75328203D01*
X156245804Y-75484384D01*
X156245939Y-75484649D01*
X156349145Y-75626699D01*
X156473301Y-75750855D01*
X156615351Y-75854061D01*
X156651630Y-75872546D01*
X156771796Y-75933774D01*
X156771799Y-75933775D01*
X156848798Y-75958793D01*
X156938787Y-75988032D01*
X157112208Y-76015500D01*
X157112209Y-76015500D01*
X157287791Y-76015500D01*
X157287792Y-76015500D01*
X157461213Y-75988032D01*
X157461216Y-75988031D01*
X157461217Y-75988031D01*
X157628200Y-75933775D01*
X157628203Y-75933774D01*
X157629116Y-75933309D01*
X157784649Y-75854061D01*
X157926699Y-75750855D01*
X158050855Y-75626699D01*
X158154061Y-75484649D01*
X158233774Y-75328203D01*
X158233835Y-75328016D01*
X158288031Y-75161217D01*
X158288031Y-75161216D01*
X158288032Y-75161213D01*
X158315500Y-74987792D01*
X158315500Y-74812208D01*
X158624500Y-74812208D01*
X158624500Y-74987792D01*
X158642812Y-75103406D01*
X158651968Y-75161214D01*
X158651968Y-75161217D01*
X158706224Y-75328200D01*
X158706225Y-75328203D01*
X158785804Y-75484384D01*
X158785939Y-75484649D01*
X158889145Y-75626699D01*
X159013301Y-75750855D01*
X159155351Y-75854061D01*
X159191630Y-75872546D01*
X159311796Y-75933774D01*
X159311799Y-75933775D01*
X159388798Y-75958793D01*
X159478787Y-75988032D01*
X159652208Y-76015500D01*
X159652209Y-76015500D01*
X159827791Y-76015500D01*
X159827792Y-76015500D01*
X160001213Y-75988032D01*
X160001216Y-75988031D01*
X160001217Y-75988031D01*
X160168200Y-75933775D01*
X160168203Y-75933774D01*
X160169116Y-75933309D01*
X160324649Y-75854061D01*
X160466699Y-75750855D01*
X160590855Y-75626699D01*
X160694061Y-75484649D01*
X160773774Y-75328203D01*
X160773835Y-75328016D01*
X160828031Y-75161217D01*
X160828031Y-75161216D01*
X160828032Y-75161213D01*
X160855500Y-74987792D01*
X160855500Y-74812208D01*
X161164500Y-74812208D01*
X161164500Y-74987792D01*
X161182812Y-75103406D01*
X161191968Y-75161214D01*
X161191968Y-75161217D01*
X161246224Y-75328200D01*
X161246225Y-75328203D01*
X161325804Y-75484384D01*
X161325939Y-75484649D01*
X161429145Y-75626699D01*
X161553301Y-75750855D01*
X161695351Y-75854061D01*
X161731630Y-75872546D01*
X161851796Y-75933774D01*
X161851799Y-75933775D01*
X161928798Y-75958793D01*
X162018787Y-75988032D01*
X162192208Y-76015500D01*
X162192209Y-76015500D01*
X162367791Y-76015500D01*
X162367792Y-76015500D01*
X162541213Y-75988032D01*
X162541216Y-75988031D01*
X162541217Y-75988031D01*
X162708200Y-75933775D01*
X162708203Y-75933774D01*
X162709116Y-75933309D01*
X162864649Y-75854061D01*
X163006699Y-75750855D01*
X163130855Y-75626699D01*
X163234061Y-75484649D01*
X163313774Y-75328203D01*
X163313835Y-75328016D01*
X163368031Y-75161217D01*
X163368031Y-75161216D01*
X163368032Y-75161213D01*
X163395500Y-74987792D01*
X163395500Y-74812208D01*
X163704500Y-74812208D01*
X163704500Y-74987792D01*
X163722812Y-75103406D01*
X163731968Y-75161214D01*
X163731968Y-75161217D01*
X163786224Y-75328200D01*
X163786225Y-75328203D01*
X163865804Y-75484384D01*
X163865939Y-75484649D01*
X163969145Y-75626699D01*
X164093301Y-75750855D01*
X164235351Y-75854061D01*
X164271630Y-75872546D01*
X164391796Y-75933774D01*
X164391799Y-75933775D01*
X164468798Y-75958793D01*
X164558787Y-75988032D01*
X164732208Y-76015500D01*
X164732209Y-76015500D01*
X164907791Y-76015500D01*
X164907792Y-76015500D01*
X165081213Y-75988032D01*
X165081216Y-75988031D01*
X165081217Y-75988031D01*
X165248200Y-75933775D01*
X165248203Y-75933774D01*
X165249116Y-75933309D01*
X165404649Y-75854061D01*
X165546699Y-75750855D01*
X165670855Y-75626699D01*
X165774061Y-75484649D01*
X165853774Y-75328203D01*
X165853835Y-75328016D01*
X165908031Y-75161217D01*
X165908031Y-75161216D01*
X165908032Y-75161213D01*
X165935500Y-74987792D01*
X165935500Y-74812242D01*
X166245000Y-74812242D01*
X166245000Y-74987757D01*
X166272454Y-75161097D01*
X166326690Y-75328016D01*
X166406364Y-75484385D01*
X166406369Y-75484393D01*
X166412967Y-75493475D01*
X166412970Y-75493475D01*
X166950521Y-74955924D01*
X166977941Y-75058254D01*
X167031918Y-75151746D01*
X167108254Y-75228082D01*
X167201746Y-75282059D01*
X167304075Y-75309478D01*
X166766523Y-75847029D01*
X166766523Y-75847030D01*
X166775609Y-75853631D01*
X166931983Y-75933309D01*
X167098902Y-75987545D01*
X167272243Y-76015000D01*
X167447757Y-76015000D01*
X167621097Y-75987545D01*
X167788016Y-75933309D01*
X167944384Y-75853635D01*
X167953475Y-75847029D01*
X167953476Y-75847029D01*
X167415925Y-75309478D01*
X167518254Y-75282059D01*
X167611746Y-75228082D01*
X167688082Y-75151746D01*
X167742059Y-75058254D01*
X167769478Y-74955925D01*
X168307029Y-75493476D01*
X168307029Y-75493475D01*
X168313635Y-75484384D01*
X168393309Y-75328016D01*
X168447545Y-75161097D01*
X168475000Y-74987757D01*
X168475000Y-74812242D01*
X168474995Y-74812208D01*
X168784500Y-74812208D01*
X168784500Y-74987792D01*
X168802812Y-75103406D01*
X168811968Y-75161214D01*
X168811968Y-75161217D01*
X168866224Y-75328200D01*
X168866225Y-75328203D01*
X168945804Y-75484384D01*
X168945939Y-75484649D01*
X169049145Y-75626699D01*
X169173301Y-75750855D01*
X169315351Y-75854061D01*
X169351630Y-75872546D01*
X169471796Y-75933774D01*
X169471799Y-75933775D01*
X169548798Y-75958793D01*
X169638787Y-75988032D01*
X169812208Y-76015500D01*
X169812209Y-76015500D01*
X169987791Y-76015500D01*
X169987792Y-76015500D01*
X170161213Y-75988032D01*
X170161216Y-75988031D01*
X170161217Y-75988031D01*
X170328200Y-75933775D01*
X170328203Y-75933774D01*
X170329116Y-75933309D01*
X170484649Y-75854061D01*
X170626699Y-75750855D01*
X170750855Y-75626699D01*
X170854061Y-75484649D01*
X170933774Y-75328203D01*
X170933835Y-75328016D01*
X170988031Y-75161217D01*
X170988031Y-75161216D01*
X170988032Y-75161213D01*
X171015500Y-74987792D01*
X171015500Y-74812208D01*
X171324500Y-74812208D01*
X171324500Y-74987792D01*
X171342812Y-75103406D01*
X171351968Y-75161214D01*
X171351968Y-75161217D01*
X171406224Y-75328200D01*
X171406225Y-75328203D01*
X171485804Y-75484384D01*
X171485939Y-75484649D01*
X171589145Y-75626699D01*
X171713301Y-75750855D01*
X171855351Y-75854061D01*
X171891630Y-75872546D01*
X172011796Y-75933774D01*
X172011799Y-75933775D01*
X172088798Y-75958793D01*
X172178787Y-75988032D01*
X172352208Y-76015500D01*
X172352209Y-76015500D01*
X172527791Y-76015500D01*
X172527792Y-76015500D01*
X172701213Y-75988032D01*
X172701216Y-75988031D01*
X172701217Y-75988031D01*
X172868200Y-75933775D01*
X172868203Y-75933774D01*
X172869116Y-75933309D01*
X173024649Y-75854061D01*
X173166699Y-75750855D01*
X173290855Y-75626699D01*
X173394061Y-75484649D01*
X173473774Y-75328203D01*
X173473835Y-75328016D01*
X173528031Y-75161217D01*
X173528031Y-75161216D01*
X173528032Y-75161213D01*
X173555500Y-74987792D01*
X173555500Y-74812208D01*
X173864500Y-74812208D01*
X173864500Y-74987792D01*
X173882812Y-75103406D01*
X173891968Y-75161214D01*
X173891968Y-75161217D01*
X173946224Y-75328200D01*
X173946225Y-75328203D01*
X174025804Y-75484384D01*
X174025939Y-75484649D01*
X174129145Y-75626699D01*
X174253301Y-75750855D01*
X174395351Y-75854061D01*
X174431630Y-75872546D01*
X174551796Y-75933774D01*
X174551799Y-75933775D01*
X174628798Y-75958793D01*
X174718787Y-75988032D01*
X174892208Y-76015500D01*
X174892209Y-76015500D01*
X175067791Y-76015500D01*
X175067792Y-76015500D01*
X175241213Y-75988032D01*
X175241216Y-75988031D01*
X175241217Y-75988031D01*
X175408200Y-75933775D01*
X175408203Y-75933774D01*
X175409116Y-75933309D01*
X175564649Y-75854061D01*
X175706699Y-75750855D01*
X175830855Y-75626699D01*
X175934061Y-75484649D01*
X176013774Y-75328203D01*
X176013835Y-75328016D01*
X176068031Y-75161217D01*
X176068031Y-75161216D01*
X176068032Y-75161213D01*
X176095500Y-74987792D01*
X176095500Y-74812208D01*
X176404500Y-74812208D01*
X176404500Y-74987792D01*
X176422812Y-75103406D01*
X176431968Y-75161214D01*
X176431968Y-75161217D01*
X176486224Y-75328200D01*
X176486225Y-75328203D01*
X176565804Y-75484384D01*
X176565939Y-75484649D01*
X176669145Y-75626699D01*
X176793301Y-75750855D01*
X176935351Y-75854061D01*
X176971630Y-75872546D01*
X177091796Y-75933774D01*
X177091799Y-75933775D01*
X177168798Y-75958793D01*
X177258787Y-75988032D01*
X177432208Y-76015500D01*
X177432209Y-76015500D01*
X177607791Y-76015500D01*
X177607792Y-76015500D01*
X177781213Y-75988032D01*
X177781216Y-75988031D01*
X177781217Y-75988031D01*
X177948200Y-75933775D01*
X177948203Y-75933774D01*
X177949116Y-75933309D01*
X178104649Y-75854061D01*
X178246699Y-75750855D01*
X178370855Y-75626699D01*
X178474061Y-75484649D01*
X178553774Y-75328203D01*
X178553835Y-75328016D01*
X178608031Y-75161217D01*
X178608031Y-75161216D01*
X178608032Y-75161213D01*
X178635500Y-74987792D01*
X178635500Y-74812208D01*
X178944500Y-74812208D01*
X178944500Y-74987792D01*
X178962812Y-75103406D01*
X178971968Y-75161214D01*
X178971968Y-75161217D01*
X179026224Y-75328200D01*
X179026225Y-75328203D01*
X179105804Y-75484384D01*
X179105939Y-75484649D01*
X179209145Y-75626699D01*
X179333301Y-75750855D01*
X179475351Y-75854061D01*
X179511630Y-75872546D01*
X179631796Y-75933774D01*
X179631799Y-75933775D01*
X179708798Y-75958793D01*
X179798787Y-75988032D01*
X179972208Y-76015500D01*
X179972209Y-76015500D01*
X180147791Y-76015500D01*
X180147792Y-76015500D01*
X180321213Y-75988032D01*
X180321216Y-75988031D01*
X180321217Y-75988031D01*
X180488200Y-75933775D01*
X180488203Y-75933774D01*
X180489116Y-75933309D01*
X180644649Y-75854061D01*
X180786699Y-75750855D01*
X180910855Y-75626699D01*
X181014061Y-75484649D01*
X181093774Y-75328203D01*
X181093835Y-75328016D01*
X181148031Y-75161217D01*
X181148031Y-75161216D01*
X181148032Y-75161213D01*
X181175500Y-74987792D01*
X181175500Y-74812208D01*
X181484500Y-74812208D01*
X181484500Y-74987792D01*
X181502812Y-75103406D01*
X181511968Y-75161214D01*
X181511968Y-75161217D01*
X181566224Y-75328200D01*
X181566225Y-75328203D01*
X181645804Y-75484384D01*
X181645939Y-75484649D01*
X181749145Y-75626699D01*
X181873301Y-75750855D01*
X182015351Y-75854061D01*
X182051630Y-75872546D01*
X182171796Y-75933774D01*
X182171799Y-75933775D01*
X182248798Y-75958793D01*
X182338787Y-75988032D01*
X182512208Y-76015500D01*
X182512209Y-76015500D01*
X182687791Y-76015500D01*
X182687792Y-76015500D01*
X182861213Y-75988032D01*
X182861216Y-75988031D01*
X182861217Y-75988031D01*
X183028200Y-75933775D01*
X183028203Y-75933774D01*
X183029116Y-75933309D01*
X183184649Y-75854061D01*
X183326699Y-75750855D01*
X183450855Y-75626699D01*
X183554061Y-75484649D01*
X183633774Y-75328203D01*
X183633835Y-75328016D01*
X183688031Y-75161217D01*
X183688031Y-75161216D01*
X183688032Y-75161213D01*
X183715500Y-74987792D01*
X183715500Y-74812208D01*
X184024500Y-74812208D01*
X184024500Y-74987792D01*
X184042812Y-75103406D01*
X184051968Y-75161214D01*
X184051968Y-75161217D01*
X184106224Y-75328200D01*
X184106225Y-75328203D01*
X184185804Y-75484384D01*
X184185939Y-75484649D01*
X184289145Y-75626699D01*
X184413301Y-75750855D01*
X184555351Y-75854061D01*
X184591630Y-75872546D01*
X184711796Y-75933774D01*
X184711799Y-75933775D01*
X184788798Y-75958793D01*
X184878787Y-75988032D01*
X185052208Y-76015500D01*
X185052209Y-76015500D01*
X185227791Y-76015500D01*
X185227792Y-76015500D01*
X185401213Y-75988032D01*
X185401216Y-75988031D01*
X185401217Y-75988031D01*
X185568200Y-75933775D01*
X185568203Y-75933774D01*
X185569116Y-75933309D01*
X185724649Y-75854061D01*
X185866699Y-75750855D01*
X185990855Y-75626699D01*
X186094061Y-75484649D01*
X186173774Y-75328203D01*
X186173835Y-75328016D01*
X186228031Y-75161217D01*
X186228031Y-75161216D01*
X186228032Y-75161213D01*
X186255500Y-74987792D01*
X186255500Y-74812208D01*
X186564500Y-74812208D01*
X186564500Y-74987792D01*
X186582812Y-75103406D01*
X186591968Y-75161214D01*
X186591968Y-75161217D01*
X186646224Y-75328200D01*
X186646225Y-75328203D01*
X186725804Y-75484384D01*
X186725939Y-75484649D01*
X186829145Y-75626699D01*
X186953301Y-75750855D01*
X187095351Y-75854061D01*
X187131630Y-75872546D01*
X187251796Y-75933774D01*
X187251799Y-75933775D01*
X187328798Y-75958793D01*
X187418787Y-75988032D01*
X187592208Y-76015500D01*
X187592209Y-76015500D01*
X187767791Y-76015500D01*
X187767792Y-76015500D01*
X187941213Y-75988032D01*
X187941216Y-75988031D01*
X187941217Y-75988031D01*
X188108200Y-75933775D01*
X188108203Y-75933774D01*
X188109116Y-75933309D01*
X188264649Y-75854061D01*
X188406699Y-75750855D01*
X188530855Y-75626699D01*
X188634061Y-75484649D01*
X188713774Y-75328203D01*
X188713835Y-75328016D01*
X188768031Y-75161217D01*
X188768031Y-75161216D01*
X188768032Y-75161213D01*
X188795500Y-74987792D01*
X188795500Y-74812208D01*
X188768032Y-74638787D01*
X188768031Y-74638783D01*
X188768031Y-74638782D01*
X188713775Y-74471799D01*
X188713774Y-74471796D01*
X188634061Y-74315351D01*
X188627769Y-74306691D01*
X188627768Y-74306690D01*
X188577233Y-74237135D01*
X189104500Y-74237135D01*
X189104500Y-75562870D01*
X189104501Y-75562876D01*
X189110908Y-75622483D01*
X189161202Y-75757328D01*
X189161206Y-75757335D01*
X189247452Y-75872544D01*
X189247455Y-75872547D01*
X189362664Y-75958793D01*
X189362671Y-75958797D01*
X189497517Y-76009091D01*
X189497516Y-76009091D01*
X189504444Y-76009835D01*
X189557127Y-76015500D01*
X190882872Y-76015499D01*
X190942483Y-76009091D01*
X191077331Y-75958796D01*
X191192546Y-75872546D01*
X191278796Y-75757331D01*
X191329091Y-75622483D01*
X191335500Y-75562873D01*
X191335499Y-74237128D01*
X191329091Y-74177517D01*
X191281211Y-74049145D01*
X191278797Y-74042671D01*
X191278793Y-74042664D01*
X191192547Y-73927455D01*
X191192544Y-73927452D01*
X191077335Y-73841206D01*
X191077328Y-73841202D01*
X190942482Y-73790908D01*
X190942483Y-73790908D01*
X190882883Y-73784501D01*
X190882881Y-73784500D01*
X190882873Y-73784500D01*
X190882864Y-73784500D01*
X189557129Y-73784500D01*
X189557123Y-73784501D01*
X189497516Y-73790908D01*
X189362671Y-73841202D01*
X189362664Y-73841206D01*
X189247455Y-73927452D01*
X189247452Y-73927455D01*
X189161206Y-74042664D01*
X189161202Y-74042671D01*
X189110908Y-74177517D01*
X189104501Y-74237116D01*
X189104501Y-74237123D01*
X189104500Y-74237135D01*
X188577233Y-74237135D01*
X188577228Y-74237128D01*
X188530855Y-74173301D01*
X188406699Y-74049145D01*
X188264649Y-73945939D01*
X188228372Y-73927455D01*
X188108203Y-73866225D01*
X188108200Y-73866224D01*
X187941215Y-73811968D01*
X187825599Y-73793656D01*
X187767792Y-73784500D01*
X187592208Y-73784500D01*
X187534401Y-73793656D01*
X187418785Y-73811968D01*
X187418782Y-73811968D01*
X187251799Y-73866224D01*
X187251796Y-73866225D01*
X187095350Y-73945939D01*
X186953299Y-74049146D01*
X186829146Y-74173299D01*
X186725939Y-74315350D01*
X186646225Y-74471796D01*
X186646224Y-74471799D01*
X186591968Y-74638782D01*
X186591968Y-74638785D01*
X186575660Y-74741746D01*
X186564500Y-74812208D01*
X186255500Y-74812208D01*
X186228032Y-74638787D01*
X186228031Y-74638783D01*
X186228031Y-74638782D01*
X186173775Y-74471799D01*
X186173774Y-74471796D01*
X186133157Y-74392083D01*
X186094061Y-74315351D01*
X185990855Y-74173301D01*
X185866699Y-74049145D01*
X185724649Y-73945939D01*
X185688372Y-73927455D01*
X185568203Y-73866225D01*
X185568200Y-73866224D01*
X185401215Y-73811968D01*
X185285599Y-73793656D01*
X185227792Y-73784500D01*
X185052208Y-73784500D01*
X184994401Y-73793656D01*
X184878785Y-73811968D01*
X184878782Y-73811968D01*
X184711799Y-73866224D01*
X184711796Y-73866225D01*
X184555350Y-73945939D01*
X184413299Y-74049146D01*
X184289146Y-74173299D01*
X184185939Y-74315350D01*
X184106225Y-74471796D01*
X184106224Y-74471799D01*
X184051968Y-74638782D01*
X184051968Y-74638785D01*
X184035660Y-74741746D01*
X184024500Y-74812208D01*
X183715500Y-74812208D01*
X183688032Y-74638787D01*
X183688031Y-74638783D01*
X183688031Y-74638782D01*
X183633775Y-74471799D01*
X183633774Y-74471796D01*
X183593157Y-74392083D01*
X183554061Y-74315351D01*
X183450855Y-74173301D01*
X183326699Y-74049145D01*
X183184649Y-73945939D01*
X183148372Y-73927455D01*
X183028203Y-73866225D01*
X183028200Y-73866224D01*
X182861215Y-73811968D01*
X182745599Y-73793656D01*
X182687792Y-73784500D01*
X182512208Y-73784500D01*
X182454401Y-73793656D01*
X182338785Y-73811968D01*
X182338782Y-73811968D01*
X182171799Y-73866224D01*
X182171796Y-73866225D01*
X182015350Y-73945939D01*
X181873299Y-74049146D01*
X181749146Y-74173299D01*
X181645939Y-74315350D01*
X181566225Y-74471796D01*
X181566224Y-74471799D01*
X181511968Y-74638782D01*
X181511968Y-74638785D01*
X181495660Y-74741746D01*
X181484500Y-74812208D01*
X181175500Y-74812208D01*
X181148032Y-74638787D01*
X181148031Y-74638783D01*
X181148031Y-74638782D01*
X181093775Y-74471799D01*
X181093774Y-74471796D01*
X181053157Y-74392083D01*
X181014061Y-74315351D01*
X180910855Y-74173301D01*
X180786699Y-74049145D01*
X180644649Y-73945939D01*
X180608372Y-73927455D01*
X180488203Y-73866225D01*
X180488200Y-73866224D01*
X180321215Y-73811968D01*
X180205599Y-73793656D01*
X180147792Y-73784500D01*
X179972208Y-73784500D01*
X179914401Y-73793656D01*
X179798785Y-73811968D01*
X179798782Y-73811968D01*
X179631799Y-73866224D01*
X179631796Y-73866225D01*
X179475350Y-73945939D01*
X179333299Y-74049146D01*
X179209146Y-74173299D01*
X179105939Y-74315350D01*
X179026225Y-74471796D01*
X179026224Y-74471799D01*
X178971968Y-74638782D01*
X178971968Y-74638785D01*
X178955660Y-74741746D01*
X178944500Y-74812208D01*
X178635500Y-74812208D01*
X178608032Y-74638787D01*
X178608031Y-74638783D01*
X178608031Y-74638782D01*
X178553775Y-74471799D01*
X178553774Y-74471796D01*
X178513157Y-74392083D01*
X178474061Y-74315351D01*
X178370855Y-74173301D01*
X178246699Y-74049145D01*
X178104649Y-73945939D01*
X178068372Y-73927455D01*
X177948203Y-73866225D01*
X177948200Y-73866224D01*
X177781215Y-73811968D01*
X177665599Y-73793656D01*
X177607792Y-73784500D01*
X177432208Y-73784500D01*
X177374401Y-73793656D01*
X177258785Y-73811968D01*
X177258782Y-73811968D01*
X177091799Y-73866224D01*
X177091796Y-73866225D01*
X176935350Y-73945939D01*
X176793299Y-74049146D01*
X176669146Y-74173299D01*
X176565939Y-74315350D01*
X176486225Y-74471796D01*
X176486224Y-74471799D01*
X176431968Y-74638782D01*
X176431968Y-74638785D01*
X176415660Y-74741746D01*
X176404500Y-74812208D01*
X176095500Y-74812208D01*
X176068032Y-74638787D01*
X176068031Y-74638783D01*
X176068031Y-74638782D01*
X176013775Y-74471799D01*
X176013774Y-74471796D01*
X175973157Y-74392083D01*
X175934061Y-74315351D01*
X175830855Y-74173301D01*
X175706699Y-74049145D01*
X175564649Y-73945939D01*
X175528372Y-73927455D01*
X175408203Y-73866225D01*
X175408200Y-73866224D01*
X175241215Y-73811968D01*
X175125599Y-73793656D01*
X175067792Y-73784500D01*
X174892208Y-73784500D01*
X174834401Y-73793656D01*
X174718785Y-73811968D01*
X174718782Y-73811968D01*
X174551799Y-73866224D01*
X174551796Y-73866225D01*
X174395350Y-73945939D01*
X174253299Y-74049146D01*
X174129146Y-74173299D01*
X174025939Y-74315350D01*
X173946225Y-74471796D01*
X173946224Y-74471799D01*
X173891968Y-74638782D01*
X173891968Y-74638785D01*
X173875660Y-74741746D01*
X173864500Y-74812208D01*
X173555500Y-74812208D01*
X173528032Y-74638787D01*
X173528031Y-74638783D01*
X173528031Y-74638782D01*
X173473775Y-74471799D01*
X173473774Y-74471796D01*
X173433157Y-74392083D01*
X173394061Y-74315351D01*
X173290855Y-74173301D01*
X173166699Y-74049145D01*
X173024649Y-73945939D01*
X172988372Y-73927455D01*
X172868203Y-73866225D01*
X172868200Y-73866224D01*
X172701215Y-73811968D01*
X172585599Y-73793656D01*
X172527792Y-73784500D01*
X172352208Y-73784500D01*
X172294401Y-73793656D01*
X172178785Y-73811968D01*
X172178782Y-73811968D01*
X172011799Y-73866224D01*
X172011796Y-73866225D01*
X171855350Y-73945939D01*
X171713299Y-74049146D01*
X171589146Y-74173299D01*
X171485939Y-74315350D01*
X171406225Y-74471796D01*
X171406224Y-74471799D01*
X171351968Y-74638782D01*
X171351968Y-74638785D01*
X171335660Y-74741746D01*
X171324500Y-74812208D01*
X171015500Y-74812208D01*
X170988032Y-74638787D01*
X170988031Y-74638783D01*
X170988031Y-74638782D01*
X170933775Y-74471799D01*
X170933774Y-74471796D01*
X170893157Y-74392083D01*
X170854061Y-74315351D01*
X170750855Y-74173301D01*
X170626699Y-74049145D01*
X170484649Y-73945939D01*
X170448372Y-73927455D01*
X170328203Y-73866225D01*
X170328200Y-73866224D01*
X170161215Y-73811968D01*
X170045599Y-73793656D01*
X169987792Y-73784500D01*
X169812208Y-73784500D01*
X169754401Y-73793656D01*
X169638785Y-73811968D01*
X169638782Y-73811968D01*
X169471799Y-73866224D01*
X169471796Y-73866225D01*
X169315350Y-73945939D01*
X169173299Y-74049146D01*
X169049146Y-74173299D01*
X168945939Y-74315350D01*
X168866225Y-74471796D01*
X168866224Y-74471799D01*
X168811968Y-74638782D01*
X168811968Y-74638785D01*
X168795660Y-74741746D01*
X168784500Y-74812208D01*
X168474995Y-74812208D01*
X168447545Y-74638902D01*
X168393309Y-74471983D01*
X168313631Y-74315609D01*
X168307030Y-74306523D01*
X168307029Y-74306523D01*
X167769478Y-74844074D01*
X167742059Y-74741746D01*
X167688082Y-74648254D01*
X167611746Y-74571918D01*
X167518254Y-74517941D01*
X167415925Y-74490521D01*
X167953475Y-73952970D01*
X167953475Y-73952967D01*
X167944393Y-73946369D01*
X167944385Y-73946364D01*
X167788016Y-73866690D01*
X167621097Y-73812454D01*
X167447757Y-73785000D01*
X167272243Y-73785000D01*
X167098902Y-73812454D01*
X166931983Y-73866690D01*
X166775610Y-73946368D01*
X166766523Y-73952969D01*
X167304075Y-74490521D01*
X167201746Y-74517941D01*
X167108254Y-74571918D01*
X167031918Y-74648254D01*
X166977941Y-74741746D01*
X166950521Y-74844075D01*
X166412969Y-74306523D01*
X166406368Y-74315610D01*
X166326690Y-74471983D01*
X166272454Y-74638902D01*
X166245000Y-74812242D01*
X165935500Y-74812242D01*
X165935500Y-74812208D01*
X165908032Y-74638787D01*
X165908031Y-74638783D01*
X165908031Y-74638782D01*
X165853775Y-74471799D01*
X165853774Y-74471796D01*
X165813157Y-74392083D01*
X165774061Y-74315351D01*
X165670855Y-74173301D01*
X165546699Y-74049145D01*
X165404649Y-73945939D01*
X165368372Y-73927455D01*
X165248203Y-73866225D01*
X165248200Y-73866224D01*
X165081215Y-73811968D01*
X164965599Y-73793656D01*
X164907792Y-73784500D01*
X164732208Y-73784500D01*
X164674401Y-73793656D01*
X164558785Y-73811968D01*
X164558782Y-73811968D01*
X164391799Y-73866224D01*
X164391796Y-73866225D01*
X164235350Y-73945939D01*
X164093299Y-74049146D01*
X163969146Y-74173299D01*
X163865939Y-74315350D01*
X163786225Y-74471796D01*
X163786224Y-74471799D01*
X163731968Y-74638782D01*
X163731968Y-74638785D01*
X163715660Y-74741746D01*
X163704500Y-74812208D01*
X163395500Y-74812208D01*
X163368032Y-74638787D01*
X163368031Y-74638783D01*
X163368031Y-74638782D01*
X163313775Y-74471799D01*
X163313774Y-74471796D01*
X163273157Y-74392083D01*
X163234061Y-74315351D01*
X163130855Y-74173301D01*
X163006699Y-74049145D01*
X162864649Y-73945939D01*
X162828372Y-73927455D01*
X162708203Y-73866225D01*
X162708200Y-73866224D01*
X162541215Y-73811968D01*
X162425599Y-73793656D01*
X162367792Y-73784500D01*
X162192208Y-73784500D01*
X162134401Y-73793656D01*
X162018785Y-73811968D01*
X162018782Y-73811968D01*
X161851799Y-73866224D01*
X161851796Y-73866225D01*
X161695350Y-73945939D01*
X161553299Y-74049146D01*
X161429146Y-74173299D01*
X161325939Y-74315350D01*
X161246225Y-74471796D01*
X161246224Y-74471799D01*
X161191968Y-74638782D01*
X161191968Y-74638785D01*
X161175660Y-74741746D01*
X161164500Y-74812208D01*
X160855500Y-74812208D01*
X160828032Y-74638787D01*
X160828031Y-74638783D01*
X160828031Y-74638782D01*
X160773775Y-74471799D01*
X160773774Y-74471796D01*
X160733157Y-74392083D01*
X160694061Y-74315351D01*
X160590855Y-74173301D01*
X160466699Y-74049145D01*
X160324649Y-73945939D01*
X160288372Y-73927455D01*
X160168203Y-73866225D01*
X160168200Y-73866224D01*
X160001215Y-73811968D01*
X159885599Y-73793656D01*
X159827792Y-73784500D01*
X159652208Y-73784500D01*
X159594401Y-73793656D01*
X159478785Y-73811968D01*
X159478782Y-73811968D01*
X159311799Y-73866224D01*
X159311796Y-73866225D01*
X159155350Y-73945939D01*
X159013299Y-74049146D01*
X158889146Y-74173299D01*
X158785939Y-74315350D01*
X158706225Y-74471796D01*
X158706224Y-74471799D01*
X158651968Y-74638782D01*
X158651968Y-74638785D01*
X158635660Y-74741746D01*
X158624500Y-74812208D01*
X158315500Y-74812208D01*
X158288032Y-74638787D01*
X158288031Y-74638783D01*
X158288031Y-74638782D01*
X158233775Y-74471799D01*
X158233774Y-74471796D01*
X158193157Y-74392083D01*
X158154061Y-74315351D01*
X158050855Y-74173301D01*
X157926699Y-74049145D01*
X157784649Y-73945939D01*
X157748372Y-73927455D01*
X157628203Y-73866225D01*
X157628200Y-73866224D01*
X157461215Y-73811968D01*
X157345599Y-73793656D01*
X157287792Y-73784500D01*
X157112208Y-73784500D01*
X157054401Y-73793656D01*
X156938785Y-73811968D01*
X156938782Y-73811968D01*
X156771799Y-73866224D01*
X156771796Y-73866225D01*
X156615350Y-73945939D01*
X156473299Y-74049146D01*
X156349146Y-74173299D01*
X156245939Y-74315350D01*
X156166225Y-74471796D01*
X156166224Y-74471799D01*
X156111968Y-74638782D01*
X156111968Y-74638785D01*
X156095660Y-74741746D01*
X156084500Y-74812208D01*
X117000000Y-74812208D01*
X117000000Y-59792643D01*
X164235900Y-59792643D01*
X164235900Y-60007356D01*
X164269489Y-60219428D01*
X164335837Y-60423630D01*
X164335838Y-60423633D01*
X164400226Y-60550000D01*
X164433317Y-60614944D01*
X164559523Y-60788651D01*
X164711349Y-60940477D01*
X164885056Y-61066683D01*
X164959784Y-61104759D01*
X165076366Y-61164161D01*
X165076369Y-61164162D01*
X165178470Y-61197336D01*
X165280573Y-61230511D01*
X165492643Y-61264100D01*
X165492644Y-61264100D01*
X165707356Y-61264100D01*
X165707357Y-61264100D01*
X165919427Y-61230511D01*
X166123633Y-61164161D01*
X166314944Y-61066683D01*
X166488651Y-60940477D01*
X166640477Y-60788651D01*
X166749683Y-60638342D01*
X166805012Y-60595678D01*
X166874625Y-60589699D01*
X166936420Y-60622305D01*
X166950314Y-60638338D01*
X167059523Y-60788651D01*
X167211349Y-60940477D01*
X167385056Y-61066683D01*
X167459784Y-61104759D01*
X167576366Y-61164161D01*
X167576369Y-61164162D01*
X167678470Y-61197336D01*
X167780573Y-61230511D01*
X167992643Y-61264100D01*
X167992644Y-61264100D01*
X168207356Y-61264100D01*
X168207357Y-61264100D01*
X168419427Y-61230511D01*
X168623633Y-61164161D01*
X168814944Y-61066683D01*
X168988651Y-60940477D01*
X169140477Y-60788651D01*
X169249683Y-60638342D01*
X169305012Y-60595678D01*
X169374625Y-60589699D01*
X169436420Y-60622305D01*
X169450314Y-60638338D01*
X169559523Y-60788651D01*
X169711349Y-60940477D01*
X169885056Y-61066683D01*
X169959784Y-61104759D01*
X170076366Y-61164161D01*
X170076369Y-61164162D01*
X170178470Y-61197336D01*
X170280573Y-61230511D01*
X170492643Y-61264100D01*
X170492644Y-61264100D01*
X170707356Y-61264100D01*
X170707357Y-61264100D01*
X170919427Y-61230511D01*
X171123633Y-61164161D01*
X171314944Y-61066683D01*
X171488651Y-60940477D01*
X171640477Y-60788651D01*
X171749683Y-60638342D01*
X171805012Y-60595678D01*
X171874625Y-60589699D01*
X171936420Y-60622305D01*
X171950314Y-60638338D01*
X172059523Y-60788651D01*
X172211349Y-60940477D01*
X172385056Y-61066683D01*
X172459784Y-61104759D01*
X172576366Y-61164161D01*
X172576369Y-61164162D01*
X172678470Y-61197336D01*
X172780573Y-61230511D01*
X172992643Y-61264100D01*
X172992644Y-61264100D01*
X173207356Y-61264100D01*
X173207357Y-61264100D01*
X173419427Y-61230511D01*
X173623633Y-61164161D01*
X173814944Y-61066683D01*
X173988651Y-60940477D01*
X174140477Y-60788651D01*
X174249683Y-60638342D01*
X174305012Y-60595678D01*
X174374625Y-60589699D01*
X174436420Y-60622305D01*
X174450314Y-60638338D01*
X174559523Y-60788651D01*
X174711349Y-60940477D01*
X174885056Y-61066683D01*
X174959784Y-61104759D01*
X175076366Y-61164161D01*
X175076369Y-61164162D01*
X175178470Y-61197336D01*
X175280573Y-61230511D01*
X175492643Y-61264100D01*
X175492644Y-61264100D01*
X175707356Y-61264100D01*
X175707357Y-61264100D01*
X175919427Y-61230511D01*
X176123633Y-61164161D01*
X176314944Y-61066683D01*
X176488651Y-60940477D01*
X176640477Y-60788651D01*
X176749683Y-60638342D01*
X176805012Y-60595678D01*
X176874625Y-60589699D01*
X176936420Y-60622305D01*
X176950314Y-60638338D01*
X177059523Y-60788651D01*
X177211349Y-60940477D01*
X177385056Y-61066683D01*
X177459784Y-61104759D01*
X177576366Y-61164161D01*
X177576369Y-61164162D01*
X177678470Y-61197336D01*
X177780573Y-61230511D01*
X177992643Y-61264100D01*
X177992644Y-61264100D01*
X178207356Y-61264100D01*
X178207357Y-61264100D01*
X178419427Y-61230511D01*
X178623633Y-61164161D01*
X178814944Y-61066683D01*
X178988651Y-60940477D01*
X179140477Y-60788651D01*
X179249683Y-60638342D01*
X179305012Y-60595678D01*
X179374625Y-60589699D01*
X179436420Y-60622305D01*
X179450314Y-60638338D01*
X179559523Y-60788651D01*
X179711349Y-60940477D01*
X179885056Y-61066683D01*
X179959784Y-61104759D01*
X180076366Y-61164161D01*
X180076369Y-61164162D01*
X180178470Y-61197336D01*
X180280573Y-61230511D01*
X180492643Y-61264100D01*
X180492644Y-61264100D01*
X180707356Y-61264100D01*
X180707357Y-61264100D01*
X180919427Y-61230511D01*
X181123633Y-61164161D01*
X181314944Y-61066683D01*
X181488651Y-60940477D01*
X181640477Y-60788651D01*
X181749683Y-60638342D01*
X181805012Y-60595678D01*
X181874625Y-60589699D01*
X181936420Y-60622305D01*
X181950314Y-60638338D01*
X182059523Y-60788651D01*
X182211349Y-60940477D01*
X182385056Y-61066683D01*
X182459784Y-61104759D01*
X182576366Y-61164161D01*
X182576369Y-61164162D01*
X182678470Y-61197336D01*
X182780573Y-61230511D01*
X182992643Y-61264100D01*
X182992644Y-61264100D01*
X183207356Y-61264100D01*
X183207357Y-61264100D01*
X183419427Y-61230511D01*
X183623633Y-61164161D01*
X183814944Y-61066683D01*
X183988651Y-60940477D01*
X184140477Y-60788651D01*
X184266683Y-60614944D01*
X184364161Y-60423633D01*
X184430511Y-60219427D01*
X184464100Y-60007357D01*
X184464100Y-59792643D01*
X184462717Y-59783909D01*
X195125000Y-59783909D01*
X195125000Y-60016090D01*
X195161318Y-60245393D01*
X195233065Y-60466205D01*
X195338465Y-60673064D01*
X195395238Y-60751207D01*
X195998958Y-60147487D01*
X196023978Y-60207890D01*
X196095112Y-60314351D01*
X196185649Y-60404888D01*
X196292110Y-60476022D01*
X196352510Y-60501041D01*
X195748791Y-61104759D01*
X195748791Y-61104760D01*
X195826935Y-61161534D01*
X196033794Y-61266934D01*
X196254606Y-61338681D01*
X196483910Y-61375000D01*
X196716090Y-61375000D01*
X196945393Y-61338681D01*
X197166205Y-61266934D01*
X197373071Y-61161530D01*
X197451207Y-61104762D01*
X197451208Y-61104760D01*
X196847488Y-60501041D01*
X196907890Y-60476022D01*
X197014351Y-60404888D01*
X197104888Y-60314351D01*
X197176022Y-60207890D01*
X197201041Y-60147489D01*
X197804760Y-60751208D01*
X197804762Y-60751207D01*
X197861530Y-60673071D01*
X197966934Y-60466205D01*
X198038681Y-60245393D01*
X198075000Y-60016090D01*
X198075000Y-59783909D01*
X200125000Y-59783909D01*
X200125000Y-60016090D01*
X200161318Y-60245393D01*
X200233065Y-60466205D01*
X200338465Y-60673064D01*
X200395238Y-60751207D01*
X200998958Y-60147487D01*
X201023978Y-60207890D01*
X201095112Y-60314351D01*
X201185649Y-60404888D01*
X201292110Y-60476022D01*
X201352510Y-60501041D01*
X200748791Y-61104759D01*
X200748791Y-61104760D01*
X200826935Y-61161534D01*
X201033794Y-61266934D01*
X201254606Y-61338681D01*
X201483910Y-61375000D01*
X201716090Y-61375000D01*
X201945393Y-61338681D01*
X202166205Y-61266934D01*
X202373071Y-61161530D01*
X202451207Y-61104762D01*
X202451208Y-61104760D01*
X201847488Y-60501041D01*
X201907890Y-60476022D01*
X202014351Y-60404888D01*
X202104888Y-60314351D01*
X202176022Y-60207890D01*
X202201041Y-60147489D01*
X202804760Y-60751208D01*
X202804762Y-60751207D01*
X202861530Y-60673071D01*
X202966934Y-60466205D01*
X203038681Y-60245393D01*
X203075000Y-60016090D01*
X203075000Y-59783909D01*
X205125000Y-59783909D01*
X205125000Y-60016090D01*
X205161318Y-60245393D01*
X205233065Y-60466205D01*
X205338465Y-60673064D01*
X205395238Y-60751207D01*
X205998958Y-60147487D01*
X206023978Y-60207890D01*
X206095112Y-60314351D01*
X206185649Y-60404888D01*
X206292110Y-60476022D01*
X206352510Y-60501041D01*
X205748791Y-61104759D01*
X205748791Y-61104760D01*
X205826935Y-61161534D01*
X206033794Y-61266934D01*
X206254606Y-61338681D01*
X206483910Y-61375000D01*
X206716090Y-61375000D01*
X206945393Y-61338681D01*
X207166205Y-61266934D01*
X207373071Y-61161530D01*
X207451207Y-61104762D01*
X207451208Y-61104760D01*
X206847488Y-60501041D01*
X206907890Y-60476022D01*
X207014351Y-60404888D01*
X207104888Y-60314351D01*
X207176022Y-60207890D01*
X207201041Y-60147489D01*
X207804760Y-60751208D01*
X207804762Y-60751207D01*
X207861530Y-60673071D01*
X207966934Y-60466205D01*
X208038681Y-60245393D01*
X208075000Y-60016090D01*
X208075000Y-59783909D01*
X208038681Y-59554606D01*
X207966934Y-59333794D01*
X207861534Y-59126935D01*
X207804760Y-59048791D01*
X207804759Y-59048791D01*
X207201041Y-59652510D01*
X207176022Y-59592110D01*
X207104888Y-59485649D01*
X207014351Y-59395112D01*
X206907890Y-59323978D01*
X206847487Y-59298957D01*
X207451207Y-58695238D01*
X207373064Y-58638465D01*
X207166205Y-58533065D01*
X206945393Y-58461318D01*
X206716090Y-58425000D01*
X206483910Y-58425000D01*
X206254606Y-58461318D01*
X206033794Y-58533065D01*
X205826925Y-58638470D01*
X205748791Y-58695237D01*
X205748791Y-58695238D01*
X206352511Y-59298958D01*
X206292110Y-59323978D01*
X206185649Y-59395112D01*
X206095112Y-59485649D01*
X206023978Y-59592110D01*
X205998958Y-59652511D01*
X205395238Y-59048791D01*
X205395237Y-59048791D01*
X205338470Y-59126925D01*
X205233065Y-59333794D01*
X205161318Y-59554606D01*
X205125000Y-59783909D01*
X203075000Y-59783909D01*
X203038681Y-59554606D01*
X202966934Y-59333794D01*
X202861534Y-59126935D01*
X202804760Y-59048791D01*
X202201041Y-59652510D01*
X202176022Y-59592110D01*
X202104888Y-59485649D01*
X202014351Y-59395112D01*
X201907890Y-59323978D01*
X201847487Y-59298957D01*
X202451207Y-58695238D01*
X202373064Y-58638465D01*
X202166205Y-58533065D01*
X201945393Y-58461318D01*
X201716090Y-58425000D01*
X201483910Y-58425000D01*
X201254606Y-58461318D01*
X201033794Y-58533065D01*
X200826925Y-58638470D01*
X200748791Y-58695237D01*
X200748791Y-58695238D01*
X201352511Y-59298958D01*
X201292110Y-59323978D01*
X201185649Y-59395112D01*
X201095112Y-59485649D01*
X201023978Y-59592110D01*
X200998958Y-59652511D01*
X200395238Y-59048791D01*
X200395237Y-59048791D01*
X200338470Y-59126925D01*
X200233065Y-59333794D01*
X200161318Y-59554606D01*
X200125000Y-59783909D01*
X198075000Y-59783909D01*
X198038681Y-59554606D01*
X197966934Y-59333794D01*
X197861534Y-59126935D01*
X197804760Y-59048791D01*
X197804759Y-59048791D01*
X197201041Y-59652510D01*
X197176022Y-59592110D01*
X197104888Y-59485649D01*
X197014351Y-59395112D01*
X196907890Y-59323978D01*
X196847487Y-59298957D01*
X197451207Y-58695238D01*
X197373064Y-58638465D01*
X197166205Y-58533065D01*
X196945393Y-58461318D01*
X196716090Y-58425000D01*
X196483910Y-58425000D01*
X196254606Y-58461318D01*
X196033794Y-58533065D01*
X195826925Y-58638470D01*
X195748791Y-58695237D01*
X195748791Y-58695238D01*
X196352511Y-59298958D01*
X196292110Y-59323978D01*
X196185649Y-59395112D01*
X196095112Y-59485649D01*
X196023978Y-59592110D01*
X195998958Y-59652511D01*
X195395238Y-59048791D01*
X195395237Y-59048791D01*
X195338470Y-59126925D01*
X195233065Y-59333794D01*
X195161318Y-59554606D01*
X195125000Y-59783909D01*
X184462717Y-59783909D01*
X184430511Y-59580573D01*
X184364161Y-59376367D01*
X184364161Y-59376366D01*
X184266682Y-59185055D01*
X184261334Y-59177694D01*
X184140477Y-59011349D01*
X183988651Y-58859523D01*
X183987270Y-58858519D01*
X183965677Y-58842830D01*
X183965654Y-58842815D01*
X183814944Y-58733317D01*
X183623633Y-58635838D01*
X183623630Y-58635837D01*
X183419428Y-58569489D01*
X183313392Y-58552694D01*
X183207357Y-58535900D01*
X182992643Y-58535900D01*
X182921953Y-58547096D01*
X182780571Y-58569489D01*
X182576369Y-58635837D01*
X182576366Y-58635838D01*
X182385055Y-58733317D01*
X182285949Y-58805322D01*
X182211349Y-58859523D01*
X182211347Y-58859525D01*
X182211346Y-58859525D01*
X182059525Y-59011346D01*
X182059525Y-59011347D01*
X182059523Y-59011349D01*
X182032320Y-59048791D01*
X181950318Y-59161656D01*
X181894988Y-59204321D01*
X181825374Y-59210300D01*
X181763579Y-59177694D01*
X181749682Y-59161656D01*
X181724448Y-59126925D01*
X181640477Y-59011349D01*
X181488651Y-58859523D01*
X181314944Y-58733317D01*
X181123633Y-58635838D01*
X181123630Y-58635837D01*
X180919428Y-58569489D01*
X180813392Y-58552694D01*
X180707357Y-58535900D01*
X180492643Y-58535900D01*
X180421953Y-58547096D01*
X180280571Y-58569489D01*
X180076369Y-58635837D01*
X180076366Y-58635838D01*
X179885055Y-58733317D01*
X179785949Y-58805322D01*
X179711349Y-58859523D01*
X179711347Y-58859525D01*
X179711346Y-58859525D01*
X179559525Y-59011346D01*
X179559525Y-59011347D01*
X179559523Y-59011349D01*
X179532320Y-59048791D01*
X179450318Y-59161656D01*
X179394988Y-59204321D01*
X179325374Y-59210300D01*
X179263579Y-59177694D01*
X179249682Y-59161656D01*
X179224448Y-59126925D01*
X179140477Y-59011349D01*
X178988651Y-58859523D01*
X178814944Y-58733317D01*
X178623633Y-58635838D01*
X178623630Y-58635837D01*
X178419428Y-58569489D01*
X178313392Y-58552694D01*
X178207357Y-58535900D01*
X177992643Y-58535900D01*
X177921953Y-58547096D01*
X177780571Y-58569489D01*
X177576369Y-58635837D01*
X177576366Y-58635838D01*
X177385055Y-58733317D01*
X177285949Y-58805322D01*
X177211349Y-58859523D01*
X177211347Y-58859525D01*
X177211346Y-58859525D01*
X177059525Y-59011346D01*
X177059525Y-59011347D01*
X177059523Y-59011349D01*
X177032320Y-59048791D01*
X176950318Y-59161656D01*
X176894988Y-59204321D01*
X176825374Y-59210300D01*
X176763579Y-59177694D01*
X176749682Y-59161656D01*
X176724448Y-59126925D01*
X176640477Y-59011349D01*
X176488651Y-58859523D01*
X176314944Y-58733317D01*
X176123633Y-58635838D01*
X176123630Y-58635837D01*
X175919428Y-58569489D01*
X175813392Y-58552694D01*
X175707357Y-58535900D01*
X175492643Y-58535900D01*
X175421953Y-58547096D01*
X175280571Y-58569489D01*
X175076369Y-58635837D01*
X175076366Y-58635838D01*
X174885055Y-58733317D01*
X174785949Y-58805322D01*
X174711349Y-58859523D01*
X174711347Y-58859525D01*
X174711346Y-58859525D01*
X174559525Y-59011346D01*
X174559525Y-59011347D01*
X174559523Y-59011349D01*
X174532320Y-59048791D01*
X174450318Y-59161656D01*
X174394988Y-59204321D01*
X174325374Y-59210300D01*
X174263579Y-59177694D01*
X174249682Y-59161656D01*
X174224448Y-59126925D01*
X174140477Y-59011349D01*
X173988651Y-58859523D01*
X173814944Y-58733317D01*
X173623633Y-58635838D01*
X173623630Y-58635837D01*
X173419428Y-58569489D01*
X173313392Y-58552694D01*
X173207357Y-58535900D01*
X172992643Y-58535900D01*
X172921953Y-58547096D01*
X172780571Y-58569489D01*
X172576369Y-58635837D01*
X172576366Y-58635838D01*
X172385055Y-58733317D01*
X172285949Y-58805322D01*
X172211349Y-58859523D01*
X172211347Y-58859525D01*
X172211346Y-58859525D01*
X172059525Y-59011346D01*
X172059525Y-59011347D01*
X172059523Y-59011349D01*
X172032320Y-59048791D01*
X171950318Y-59161656D01*
X171894988Y-59204321D01*
X171825374Y-59210300D01*
X171763579Y-59177694D01*
X171749682Y-59161656D01*
X171724448Y-59126925D01*
X171640477Y-59011349D01*
X171488651Y-58859523D01*
X171314944Y-58733317D01*
X171123633Y-58635838D01*
X171123630Y-58635837D01*
X170919428Y-58569489D01*
X170813392Y-58552694D01*
X170707357Y-58535900D01*
X170492643Y-58535900D01*
X170421953Y-58547096D01*
X170280571Y-58569489D01*
X170076369Y-58635837D01*
X170076366Y-58635838D01*
X169885055Y-58733317D01*
X169785949Y-58805322D01*
X169711349Y-58859523D01*
X169711347Y-58859525D01*
X169711346Y-58859525D01*
X169559525Y-59011346D01*
X169559525Y-59011347D01*
X169559523Y-59011349D01*
X169532320Y-59048791D01*
X169450318Y-59161656D01*
X169394988Y-59204321D01*
X169325374Y-59210300D01*
X169263579Y-59177694D01*
X169249682Y-59161656D01*
X169224448Y-59126925D01*
X169140477Y-59011349D01*
X168988651Y-58859523D01*
X168814944Y-58733317D01*
X168623633Y-58635838D01*
X168623630Y-58635837D01*
X168419428Y-58569489D01*
X168313392Y-58552694D01*
X168207357Y-58535900D01*
X167992643Y-58535900D01*
X167921953Y-58547096D01*
X167780571Y-58569489D01*
X167576369Y-58635837D01*
X167576366Y-58635838D01*
X167385055Y-58733317D01*
X167285949Y-58805322D01*
X167211349Y-58859523D01*
X167211347Y-58859525D01*
X167211346Y-58859525D01*
X167059525Y-59011346D01*
X167059525Y-59011347D01*
X167059523Y-59011349D01*
X167032320Y-59048791D01*
X166950318Y-59161656D01*
X166894988Y-59204321D01*
X166825374Y-59210300D01*
X166763579Y-59177694D01*
X166749682Y-59161656D01*
X166724448Y-59126925D01*
X166640477Y-59011349D01*
X166488651Y-58859523D01*
X166314944Y-58733317D01*
X166123633Y-58635838D01*
X166123630Y-58635837D01*
X165919428Y-58569489D01*
X165813392Y-58552694D01*
X165707357Y-58535900D01*
X165492643Y-58535900D01*
X165421953Y-58547096D01*
X165280571Y-58569489D01*
X165076369Y-58635837D01*
X165076366Y-58635838D01*
X164885055Y-58733317D01*
X164785949Y-58805322D01*
X164711349Y-58859523D01*
X164711347Y-58859525D01*
X164711346Y-58859525D01*
X164559525Y-59011346D01*
X164559525Y-59011347D01*
X164559523Y-59011349D01*
X164532320Y-59048791D01*
X164433317Y-59185055D01*
X164335838Y-59376366D01*
X164335837Y-59376369D01*
X164269489Y-59580571D01*
X164235900Y-59792643D01*
X117000000Y-59792643D01*
X117000000Y-57124000D01*
X117019685Y-57056961D01*
X117072489Y-57011206D01*
X117124000Y-57000000D01*
X212876000Y-57000000D01*
X212943039Y-57019685D01*
G37*
%TD.AperFunction*%
%TA.AperFunction,Conductor*%
G36*
X185568711Y-98759004D02*
G01*
X185604365Y-98819092D01*
X185601873Y-98888917D01*
X185571899Y-98937442D01*
X180059704Y-104449637D01*
X180059699Y-104449643D01*
X180055886Y-104453457D01*
X180008417Y-104524500D01*
X180008067Y-104525022D01*
X180008060Y-104525034D01*
X179979225Y-104568188D01*
X179979221Y-104568195D01*
X179926421Y-104695667D01*
X179926418Y-104695677D01*
X179899500Y-104831004D01*
X179899500Y-119376000D01*
X179879815Y-119443039D01*
X179827011Y-119488794D01*
X179775500Y-119500000D01*
X176424500Y-119500000D01*
X176357461Y-119480315D01*
X176311706Y-119427511D01*
X176300500Y-119376000D01*
X176300500Y-109831004D01*
X176273581Y-109695677D01*
X176273580Y-109695676D01*
X176273580Y-109695672D01*
X176273578Y-109695667D01*
X176220778Y-109568195D01*
X176220771Y-109568182D01*
X176154495Y-109468994D01*
X176154494Y-109468992D01*
X176144116Y-109453459D01*
X176144112Y-109453455D01*
X173546546Y-106855888D01*
X173546545Y-106855887D01*
X173431807Y-106779222D01*
X173304332Y-106726421D01*
X173304322Y-106726418D01*
X173168996Y-106699500D01*
X173168994Y-106699500D01*
X173168993Y-106699500D01*
X170789097Y-106699500D01*
X170722058Y-106679815D01*
X170676303Y-106627011D01*
X170666359Y-106557853D01*
X170695384Y-106494297D01*
X170701416Y-106487819D01*
X171426054Y-105763181D01*
X172454662Y-104734572D01*
X172515983Y-104701089D01*
X172518150Y-104700638D01*
X172576085Y-104689113D01*
X172673497Y-104669737D01*
X172819179Y-104609394D01*
X172950289Y-104521789D01*
X173061789Y-104410289D01*
X173149394Y-104279179D01*
X173150421Y-104276701D01*
X173209735Y-104133501D01*
X173209737Y-104133497D01*
X173240500Y-103978842D01*
X173240500Y-103821158D01*
X173240500Y-103821155D01*
X173240499Y-103821153D01*
X173235169Y-103794359D01*
X173209737Y-103666503D01*
X173204803Y-103654591D01*
X173149397Y-103520827D01*
X173149390Y-103520814D01*
X173061789Y-103389711D01*
X173061786Y-103389707D01*
X172950292Y-103278213D01*
X172950288Y-103278210D01*
X172819185Y-103190609D01*
X172819172Y-103190602D01*
X172673501Y-103130264D01*
X172673489Y-103130261D01*
X172518845Y-103099500D01*
X172518842Y-103099500D01*
X172361158Y-103099500D01*
X172361155Y-103099500D01*
X172206510Y-103130261D01*
X172206498Y-103130264D01*
X172060827Y-103190602D01*
X172060814Y-103190609D01*
X171929711Y-103278210D01*
X171929707Y-103278213D01*
X171818213Y-103389707D01*
X171818210Y-103389711D01*
X171730609Y-103520814D01*
X171730602Y-103520827D01*
X171670264Y-103666498D01*
X171670261Y-103666508D01*
X171639361Y-103821850D01*
X171606976Y-103883761D01*
X171605425Y-103885339D01*
X169727584Y-105763181D01*
X169666261Y-105796666D01*
X169639903Y-105799500D01*
X167940097Y-105799500D01*
X167873058Y-105779815D01*
X167852416Y-105763181D01*
X166792129Y-104702894D01*
X166758644Y-104641571D01*
X166763628Y-104571879D01*
X166805500Y-104515946D01*
X166870964Y-104491529D01*
X166911732Y-104496504D01*
X166911932Y-104495672D01*
X166916672Y-104496809D01*
X166916679Y-104496811D01*
X167091500Y-104524500D01*
X167091501Y-104524500D01*
X167268499Y-104524500D01*
X167268500Y-104524500D01*
X167443321Y-104496811D01*
X167611658Y-104442115D01*
X167769366Y-104361758D01*
X167912562Y-104257720D01*
X168037720Y-104132562D01*
X168141758Y-103989366D01*
X168222115Y-103831658D01*
X168276811Y-103663321D01*
X168304500Y-103488500D01*
X168304500Y-103311500D01*
X168276811Y-103136679D01*
X168222115Y-102968342D01*
X168141758Y-102810634D01*
X168037720Y-102667438D01*
X167912562Y-102542280D01*
X167769366Y-102438242D01*
X167611658Y-102357885D01*
X167443321Y-102303189D01*
X167268500Y-102275500D01*
X167091500Y-102275500D01*
X167049211Y-102282198D01*
X166916678Y-102303189D01*
X166892005Y-102311206D01*
X166748342Y-102357885D01*
X166669488Y-102398063D01*
X166590633Y-102438242D01*
X166508935Y-102497599D01*
X166447438Y-102542280D01*
X166447436Y-102542282D01*
X166447435Y-102542282D01*
X166322282Y-102667435D01*
X166322282Y-102667436D01*
X166322280Y-102667438D01*
X166305774Y-102690157D01*
X166218242Y-102810633D01*
X166178063Y-102889488D01*
X166137885Y-102968342D01*
X166134632Y-102978355D01*
X166083189Y-103136678D01*
X166064103Y-103257185D01*
X166055500Y-103311500D01*
X166055500Y-103488500D01*
X166059097Y-103511208D01*
X166083189Y-103663322D01*
X166084328Y-103668068D01*
X166082981Y-103668391D01*
X166085952Y-103673831D01*
X166083884Y-103702747D01*
X166084710Y-103731720D01*
X166081422Y-103737171D01*
X166080968Y-103743523D01*
X166063595Y-103766728D01*
X166048626Y-103791550D01*
X166042911Y-103794359D01*
X166039096Y-103799456D01*
X166011936Y-103809585D01*
X165985923Y-103822374D01*
X165979597Y-103821647D01*
X165973632Y-103823873D01*
X165945306Y-103817711D01*
X165916509Y-103814405D01*
X165910019Y-103810034D01*
X165905359Y-103809021D01*
X165877105Y-103787870D01*
X165783639Y-103694404D01*
X165750154Y-103633081D01*
X165748847Y-103587325D01*
X165750967Y-103573938D01*
X165764500Y-103488500D01*
X165764500Y-103311500D01*
X165736811Y-103136679D01*
X165682115Y-102968342D01*
X165601758Y-102810634D01*
X165497720Y-102667438D01*
X165372562Y-102542280D01*
X165229366Y-102438242D01*
X165071658Y-102357885D01*
X164903321Y-102303189D01*
X164728500Y-102275500D01*
X164551500Y-102275500D01*
X164509211Y-102282198D01*
X164376678Y-102303189D01*
X164352005Y-102311206D01*
X164208342Y-102357885D01*
X164129488Y-102398063D01*
X164050633Y-102438242D01*
X163968935Y-102497599D01*
X163907438Y-102542280D01*
X163907436Y-102542282D01*
X163907435Y-102542282D01*
X163782282Y-102667435D01*
X163782282Y-102667436D01*
X163782280Y-102667438D01*
X163765774Y-102690157D01*
X163678242Y-102810633D01*
X163638063Y-102889488D01*
X163597885Y-102968342D01*
X163594632Y-102978355D01*
X163543189Y-103136678D01*
X163524103Y-103257185D01*
X163515500Y-103311500D01*
X163515500Y-103488500D01*
X163519097Y-103511208D01*
X163515054Y-103542487D01*
X163512805Y-103573938D01*
X163510610Y-103576869D01*
X163510141Y-103580501D01*
X163489828Y-103604630D01*
X163470933Y-103629871D01*
X163467503Y-103631150D01*
X163465144Y-103633953D01*
X163435010Y-103643269D01*
X163405469Y-103654288D01*
X163401890Y-103653509D01*
X163398392Y-103654591D01*
X163368012Y-103646139D01*
X163337196Y-103639436D01*
X163333222Y-103636461D01*
X163331078Y-103635865D01*
X163308942Y-103618285D01*
X163260819Y-103570162D01*
X163227334Y-103508839D01*
X163224500Y-103482481D01*
X163224500Y-103311500D01*
X163219228Y-103278213D01*
X163196811Y-103136679D01*
X163142115Y-102968342D01*
X163061758Y-102810634D01*
X162957720Y-102667438D01*
X162832562Y-102542280D01*
X162689366Y-102438242D01*
X162531658Y-102357885D01*
X162363321Y-102303189D01*
X162188500Y-102275500D01*
X162011500Y-102275500D01*
X161969211Y-102282198D01*
X161836678Y-102303189D01*
X161812005Y-102311206D01*
X161668342Y-102357885D01*
X161589488Y-102398063D01*
X161510633Y-102438242D01*
X161428935Y-102497599D01*
X161367438Y-102542280D01*
X161367436Y-102542282D01*
X161367435Y-102542282D01*
X161242282Y-102667435D01*
X161242282Y-102667436D01*
X161242280Y-102667438D01*
X161225774Y-102690157D01*
X161138242Y-102810633D01*
X161098063Y-102889488D01*
X161057885Y-102968342D01*
X161054632Y-102978355D01*
X161003189Y-103136678D01*
X160984103Y-103257185D01*
X160975500Y-103311500D01*
X160975500Y-103488500D01*
X161003189Y-103663321D01*
X161057885Y-103831658D01*
X161138242Y-103989366D01*
X161242280Y-104132562D01*
X161367438Y-104257720D01*
X161510634Y-104361758D01*
X161668342Y-104442115D01*
X161836679Y-104496811D01*
X162011500Y-104524500D01*
X162011501Y-104524500D01*
X162182481Y-104524500D01*
X162249520Y-104544185D01*
X162270162Y-104560819D01*
X165653453Y-107944111D01*
X165653454Y-107944112D01*
X165768190Y-108020776D01*
X165826057Y-108044745D01*
X165895671Y-108073580D01*
X165895672Y-108073580D01*
X165895677Y-108073582D01*
X165922545Y-108078925D01*
X165922551Y-108078926D01*
X165922591Y-108078934D01*
X166012937Y-108096905D01*
X166031006Y-108100500D01*
X166031007Y-108100500D01*
X172758481Y-108100500D01*
X172825520Y-108120185D01*
X172846162Y-108136819D01*
X174863181Y-110153838D01*
X174896666Y-110215161D01*
X174899500Y-110241519D01*
X174899500Y-119376000D01*
X174879815Y-119443039D01*
X174827011Y-119488794D01*
X174775500Y-119500000D01*
X173924500Y-119500000D01*
X173857461Y-119480315D01*
X173811706Y-119427511D01*
X173800500Y-119376000D01*
X173800500Y-110331004D01*
X173773581Y-110195677D01*
X173773580Y-110195676D01*
X173773580Y-110195672D01*
X173756252Y-110153838D01*
X173720778Y-110068195D01*
X173720771Y-110068182D01*
X173654495Y-109968994D01*
X173654494Y-109968992D01*
X173644116Y-109953459D01*
X173644112Y-109953455D01*
X172546546Y-108855888D01*
X172546545Y-108855887D01*
X172431807Y-108779222D01*
X172304332Y-108726421D01*
X172304322Y-108726418D01*
X172168996Y-108699500D01*
X172168994Y-108699500D01*
X172168993Y-108699500D01*
X156941519Y-108699500D01*
X156874480Y-108679815D01*
X156853838Y-108663181D01*
X155216819Y-107026162D01*
X155183334Y-106964839D01*
X155180500Y-106938481D01*
X155180500Y-104341144D01*
X155189144Y-104311703D01*
X155195668Y-104281717D01*
X155199422Y-104276701D01*
X155200185Y-104274105D01*
X155216819Y-104253463D01*
X155251750Y-104218532D01*
X155337720Y-104132562D01*
X155441758Y-103989366D01*
X155522115Y-103831658D01*
X155576811Y-103663321D01*
X155604500Y-103488500D01*
X155604500Y-103311533D01*
X155896000Y-103311533D01*
X155896000Y-103488466D01*
X155923675Y-103663204D01*
X155978349Y-103831470D01*
X156058668Y-103989104D01*
X156066526Y-103999918D01*
X156066527Y-103999919D01*
X156650000Y-103416446D01*
X156650000Y-103448711D01*
X156675215Y-103542815D01*
X156723926Y-103627186D01*
X156792814Y-103696074D01*
X156877185Y-103744785D01*
X156971289Y-103770000D01*
X157003554Y-103770000D01*
X156420080Y-104353472D01*
X156430893Y-104361329D01*
X156430899Y-104361332D01*
X156588529Y-104441650D01*
X156756795Y-104496324D01*
X156931534Y-104524000D01*
X157108466Y-104524000D01*
X157283204Y-104496324D01*
X157451470Y-104441650D01*
X157609102Y-104361332D01*
X157609107Y-104361329D01*
X157619919Y-104353472D01*
X157036447Y-103770000D01*
X157068711Y-103770000D01*
X157162815Y-103744785D01*
X157247186Y-103696074D01*
X157316074Y-103627186D01*
X157364785Y-103542815D01*
X157390000Y-103448711D01*
X157390000Y-103416447D01*
X157973472Y-103999919D01*
X157973473Y-103999918D01*
X157981329Y-103989107D01*
X157981332Y-103989102D01*
X158061650Y-103831470D01*
X158116324Y-103663204D01*
X158144000Y-103488466D01*
X158144000Y-103311533D01*
X158436000Y-103311533D01*
X158436000Y-103488466D01*
X158463675Y-103663204D01*
X158518349Y-103831470D01*
X158598668Y-103989104D01*
X158606526Y-103999918D01*
X158606527Y-103999919D01*
X159190000Y-103416446D01*
X159190000Y-103448711D01*
X159215215Y-103542815D01*
X159263926Y-103627186D01*
X159332814Y-103696074D01*
X159417185Y-103744785D01*
X159511289Y-103770000D01*
X159543554Y-103770000D01*
X158960080Y-104353472D01*
X158970893Y-104361329D01*
X158970899Y-104361332D01*
X159128529Y-104441650D01*
X159296795Y-104496324D01*
X159471534Y-104524000D01*
X159648466Y-104524000D01*
X159823204Y-104496324D01*
X159991470Y-104441650D01*
X160149102Y-104361332D01*
X160149107Y-104361329D01*
X160159918Y-104353473D01*
X160159919Y-104353472D01*
X159576447Y-103770000D01*
X159608711Y-103770000D01*
X159702815Y-103744785D01*
X159787186Y-103696074D01*
X159856074Y-103627186D01*
X159904785Y-103542815D01*
X159930000Y-103448711D01*
X159930000Y-103416447D01*
X160513472Y-103999919D01*
X160513473Y-103999918D01*
X160521329Y-103989107D01*
X160521332Y-103989102D01*
X160601650Y-103831470D01*
X160656324Y-103663204D01*
X160684000Y-103488466D01*
X160684000Y-103311533D01*
X160656324Y-103136795D01*
X160601650Y-102968529D01*
X160521332Y-102810899D01*
X160521329Y-102810893D01*
X160513472Y-102800080D01*
X159930000Y-103383552D01*
X159930000Y-103351289D01*
X159904785Y-103257185D01*
X159856074Y-103172814D01*
X159787186Y-103103926D01*
X159702815Y-103055215D01*
X159608711Y-103030000D01*
X159576447Y-103030000D01*
X160159919Y-102446527D01*
X160159918Y-102446526D01*
X160149104Y-102438668D01*
X159991470Y-102358349D01*
X159823204Y-102303675D01*
X159648466Y-102276000D01*
X159471534Y-102276000D01*
X159296795Y-102303675D01*
X159128529Y-102358349D01*
X158970896Y-102438668D01*
X158970890Y-102438672D01*
X158960080Y-102446525D01*
X158960080Y-102446527D01*
X159543554Y-103030000D01*
X159511289Y-103030000D01*
X159417185Y-103055215D01*
X159332814Y-103103926D01*
X159263926Y-103172814D01*
X159215215Y-103257185D01*
X159190000Y-103351289D01*
X159190000Y-103383553D01*
X158606527Y-102800080D01*
X158606525Y-102800080D01*
X158598672Y-102810890D01*
X158598668Y-102810896D01*
X158518349Y-102968529D01*
X158463675Y-103136795D01*
X158436000Y-103311533D01*
X158144000Y-103311533D01*
X158116324Y-103136795D01*
X158061650Y-102968529D01*
X157981332Y-102810899D01*
X157981329Y-102810893D01*
X157973472Y-102800080D01*
X157390000Y-103383552D01*
X157390000Y-103351289D01*
X157364785Y-103257185D01*
X157316074Y-103172814D01*
X157247186Y-103103926D01*
X157162815Y-103055215D01*
X157068711Y-103030000D01*
X157036447Y-103030000D01*
X157619919Y-102446526D01*
X157609104Y-102438668D01*
X157451470Y-102358349D01*
X157283204Y-102303675D01*
X157108466Y-102276000D01*
X156931534Y-102276000D01*
X156756795Y-102303675D01*
X156588529Y-102358349D01*
X156430896Y-102438668D01*
X156430890Y-102438672D01*
X156420080Y-102446525D01*
X156420080Y-102446527D01*
X157003554Y-103030000D01*
X156971289Y-103030000D01*
X156877185Y-103055215D01*
X156792814Y-103103926D01*
X156723926Y-103172814D01*
X156675215Y-103257185D01*
X156650000Y-103351289D01*
X156650000Y-103383553D01*
X156066527Y-102800080D01*
X156066525Y-102800080D01*
X156058672Y-102810890D01*
X156058668Y-102810896D01*
X155978349Y-102968529D01*
X155923675Y-103136795D01*
X155896000Y-103311533D01*
X155604500Y-103311533D01*
X155604500Y-103311500D01*
X155576811Y-103136679D01*
X155522115Y-102968342D01*
X155441758Y-102810634D01*
X155337720Y-102667438D01*
X155212562Y-102542280D01*
X155069366Y-102438242D01*
X154911658Y-102357885D01*
X154743321Y-102303189D01*
X154568500Y-102275500D01*
X154391500Y-102275500D01*
X154349211Y-102282198D01*
X154216678Y-102303189D01*
X154192005Y-102311206D01*
X154048342Y-102357885D01*
X153969488Y-102398063D01*
X153890633Y-102438242D01*
X153808935Y-102497599D01*
X153747438Y-102542280D01*
X153747436Y-102542282D01*
X153747435Y-102542282D01*
X153622282Y-102667435D01*
X153622282Y-102667436D01*
X153622280Y-102667438D01*
X153605774Y-102690157D01*
X153518242Y-102810633D01*
X153478063Y-102889488D01*
X153437885Y-102968342D01*
X153434632Y-102978355D01*
X153383189Y-103136678D01*
X153364103Y-103257185D01*
X153355500Y-103311500D01*
X153355500Y-103488500D01*
X153383189Y-103663321D01*
X153437885Y-103831658D01*
X153518242Y-103989366D01*
X153622280Y-104132562D01*
X153622282Y-104132564D01*
X153743181Y-104253463D01*
X153776666Y-104314786D01*
X153779500Y-104341144D01*
X153779500Y-107211006D01*
X153779500Y-107348994D01*
X153779500Y-107348996D01*
X153779499Y-107348996D01*
X153806418Y-107484322D01*
X153806421Y-107484332D01*
X153859222Y-107611807D01*
X153935887Y-107726545D01*
X156153454Y-109944112D01*
X156268192Y-110020777D01*
X156382640Y-110068182D01*
X156395672Y-110073580D01*
X156395676Y-110073580D01*
X156395677Y-110073581D01*
X156531003Y-110100500D01*
X156531006Y-110100500D01*
X156531007Y-110100500D01*
X171758481Y-110100500D01*
X171825520Y-110120185D01*
X171846162Y-110136819D01*
X172363181Y-110653838D01*
X172396666Y-110715161D01*
X172399500Y-110741519D01*
X172399500Y-119376000D01*
X172379815Y-119443039D01*
X172327011Y-119488794D01*
X172275500Y-119500000D01*
X137624500Y-119500000D01*
X137557461Y-119480315D01*
X137511706Y-119427511D01*
X137500500Y-119376000D01*
X137500500Y-108324362D01*
X137520185Y-108257323D01*
X137536819Y-108236681D01*
X145936681Y-99836819D01*
X145998004Y-99803334D01*
X146024362Y-99800500D01*
X146305832Y-99800500D01*
X146372871Y-99820185D01*
X146418626Y-99872989D01*
X146428570Y-99942147D01*
X146408933Y-99993392D01*
X146390610Y-100020812D01*
X146390602Y-100020827D01*
X146330264Y-100166498D01*
X146330261Y-100166510D01*
X146299500Y-100321153D01*
X146299500Y-100478846D01*
X146330261Y-100633489D01*
X146330264Y-100633501D01*
X146390602Y-100779172D01*
X146390609Y-100779185D01*
X146478210Y-100910288D01*
X146478213Y-100910292D01*
X146589707Y-101021786D01*
X146589711Y-101021789D01*
X146720814Y-101109390D01*
X146720827Y-101109397D01*
X146866498Y-101169735D01*
X146866503Y-101169737D01*
X147021153Y-101200499D01*
X147021156Y-101200500D01*
X147021158Y-101200500D01*
X147178844Y-101200500D01*
X147178845Y-101200499D01*
X147333497Y-101169737D01*
X147479179Y-101109394D01*
X147479185Y-101109390D01*
X147610875Y-101021398D01*
X147677553Y-101000520D01*
X147679766Y-101000500D01*
X148639903Y-101000500D01*
X148706942Y-101020185D01*
X148727584Y-101036819D01*
X149787870Y-102097105D01*
X149821355Y-102158428D01*
X149816371Y-102228120D01*
X149774499Y-102284053D01*
X149709035Y-102308470D01*
X149668267Y-102303498D01*
X149668068Y-102304328D01*
X149663322Y-102303189D01*
X149530789Y-102282198D01*
X149488500Y-102275500D01*
X149311500Y-102275500D01*
X149269211Y-102282198D01*
X149136678Y-102303189D01*
X149112005Y-102311206D01*
X148968342Y-102357885D01*
X148889488Y-102398063D01*
X148810633Y-102438242D01*
X148728935Y-102497599D01*
X148667438Y-102542280D01*
X148667436Y-102542282D01*
X148667435Y-102542282D01*
X148542282Y-102667435D01*
X148542282Y-102667436D01*
X148542280Y-102667438D01*
X148525774Y-102690157D01*
X148438242Y-102810633D01*
X148398063Y-102889488D01*
X148357885Y-102968342D01*
X148354632Y-102978355D01*
X148303189Y-103136678D01*
X148284103Y-103257185D01*
X148275500Y-103311500D01*
X148275500Y-103488500D01*
X148303189Y-103663321D01*
X148357885Y-103831658D01*
X148438242Y-103989366D01*
X148542280Y-104132562D01*
X148667438Y-104257720D01*
X148810634Y-104361758D01*
X148968342Y-104442115D01*
X149136679Y-104496811D01*
X149311500Y-104524500D01*
X149311501Y-104524500D01*
X149488499Y-104524500D01*
X149488500Y-104524500D01*
X149663321Y-104496811D01*
X149831658Y-104442115D01*
X149989366Y-104361758D01*
X150132562Y-104257720D01*
X150257720Y-104132562D01*
X150361758Y-103989366D01*
X150442115Y-103831658D01*
X150496811Y-103663321D01*
X150524500Y-103488500D01*
X150524500Y-103311500D01*
X150496811Y-103136679D01*
X150496809Y-103136672D01*
X150495672Y-103131932D01*
X150497018Y-103131608D01*
X150494047Y-103126168D01*
X150496114Y-103097264D01*
X150495283Y-103068302D01*
X150498575Y-103062839D01*
X150499031Y-103056476D01*
X150516394Y-103033281D01*
X150531355Y-103008465D01*
X150537080Y-103005649D01*
X150540903Y-103000543D01*
X150568048Y-102990418D01*
X150594052Y-102977629D01*
X150600389Y-102978355D01*
X150606367Y-102976126D01*
X150634677Y-102982284D01*
X150663468Y-102985584D01*
X150669970Y-102989962D01*
X150674640Y-102990978D01*
X150702894Y-103012129D01*
X150796360Y-103105595D01*
X150829845Y-103166918D01*
X150831152Y-103212674D01*
X150815500Y-103311494D01*
X150815500Y-103311500D01*
X150815500Y-103488500D01*
X150843189Y-103663321D01*
X150897885Y-103831658D01*
X150978242Y-103989366D01*
X151082280Y-104132562D01*
X151207438Y-104257720D01*
X151350634Y-104361758D01*
X151508342Y-104442115D01*
X151676679Y-104496811D01*
X151851500Y-104524500D01*
X151851501Y-104524500D01*
X152028499Y-104524500D01*
X152028500Y-104524500D01*
X152203321Y-104496811D01*
X152371658Y-104442115D01*
X152529366Y-104361758D01*
X152672562Y-104257720D01*
X152797720Y-104132562D01*
X152901758Y-103989366D01*
X152982115Y-103831658D01*
X153036811Y-103663321D01*
X153064500Y-103488500D01*
X153064500Y-103311500D01*
X153036811Y-103136679D01*
X152982115Y-102968342D01*
X152901758Y-102810634D01*
X152797720Y-102667438D01*
X152672562Y-102542280D01*
X152529366Y-102438242D01*
X152371658Y-102357885D01*
X152203321Y-102303189D01*
X152028500Y-102275500D01*
X151851500Y-102275500D01*
X151851495Y-102275500D01*
X151752674Y-102291152D01*
X151683381Y-102282198D01*
X151645595Y-102256360D01*
X149427590Y-100038355D01*
X149427588Y-100038352D01*
X149308717Y-99919481D01*
X149308716Y-99919480D01*
X149221904Y-99869360D01*
X149171785Y-99840423D01*
X149165671Y-99838784D01*
X149153037Y-99831905D01*
X149132764Y-99811679D01*
X149110478Y-99793718D01*
X149108349Y-99787321D01*
X149103574Y-99782557D01*
X149097455Y-99754585D01*
X149088416Y-99727423D01*
X149090084Y-99720888D01*
X149088643Y-99714301D01*
X149098616Y-99687465D01*
X149105698Y-99659725D01*
X149111008Y-99654123D01*
X149112983Y-99648809D01*
X149123590Y-99640848D01*
X149143445Y-99619903D01*
X149174036Y-99599464D01*
X149936680Y-98836818D01*
X149998003Y-98803334D01*
X150024361Y-98800500D01*
X185188693Y-98800500D01*
X185188694Y-98800499D01*
X185362666Y-98765895D01*
X185436765Y-98735200D01*
X185506231Y-98727731D01*
X185568711Y-98759004D01*
G37*
%TD.AperFunction*%
%TA.AperFunction,Conductor*%
G36*
X192916585Y-94620185D02*
G01*
X192962340Y-94672989D01*
X192972284Y-94742147D01*
X192943259Y-94805703D01*
X192922428Y-94824821D01*
X192920080Y-94826526D01*
X192920080Y-94826527D01*
X193503554Y-95410000D01*
X193471289Y-95410000D01*
X193377185Y-95435215D01*
X193292814Y-95483926D01*
X193223926Y-95552814D01*
X193175215Y-95637185D01*
X193150000Y-95731289D01*
X193150000Y-95763553D01*
X192566527Y-95180080D01*
X192566525Y-95180080D01*
X192558672Y-95190890D01*
X192558668Y-95190896D01*
X192478349Y-95348529D01*
X192423675Y-95516795D01*
X192396000Y-95691533D01*
X192396000Y-95868466D01*
X192423675Y-96043204D01*
X192478349Y-96211470D01*
X192558668Y-96369104D01*
X192566526Y-96379918D01*
X192566527Y-96379919D01*
X193150000Y-95796446D01*
X193150000Y-95828711D01*
X193175215Y-95922815D01*
X193223926Y-96007186D01*
X193292814Y-96076074D01*
X193377185Y-96124785D01*
X193471289Y-96150000D01*
X193503554Y-96150000D01*
X192920080Y-96733472D01*
X192930893Y-96741329D01*
X192930899Y-96741332D01*
X193088529Y-96821650D01*
X193256795Y-96876324D01*
X193431534Y-96904000D01*
X193608466Y-96904000D01*
X193783204Y-96876324D01*
X193951470Y-96821650D01*
X194109102Y-96741332D01*
X194109107Y-96741329D01*
X194119919Y-96733472D01*
X193536447Y-96150000D01*
X193568711Y-96150000D01*
X193662815Y-96124785D01*
X193747186Y-96076074D01*
X193816074Y-96007186D01*
X193864785Y-95922815D01*
X193890000Y-95828711D01*
X193890000Y-95796447D01*
X194473472Y-96379919D01*
X194473473Y-96379918D01*
X194481329Y-96369107D01*
X194481332Y-96369102D01*
X194561650Y-96211470D01*
X194616324Y-96043204D01*
X194644000Y-95868466D01*
X194644000Y-95691533D01*
X194616324Y-95516795D01*
X194561650Y-95348529D01*
X194481332Y-95190899D01*
X194481329Y-95190893D01*
X194473472Y-95180080D01*
X193890000Y-95763552D01*
X193890000Y-95731289D01*
X193864785Y-95637185D01*
X193816074Y-95552814D01*
X193747186Y-95483926D01*
X193662815Y-95435215D01*
X193568711Y-95410000D01*
X193536447Y-95410000D01*
X194119919Y-94826527D01*
X194119918Y-94826526D01*
X194117568Y-94824818D01*
X194074903Y-94769487D01*
X194068924Y-94699874D01*
X194101530Y-94638079D01*
X194162369Y-94603722D01*
X194190454Y-94600500D01*
X195389546Y-94600500D01*
X195456585Y-94620185D01*
X195502340Y-94672989D01*
X195512284Y-94742147D01*
X195483259Y-94805703D01*
X195462428Y-94824821D01*
X195460080Y-94826526D01*
X195460080Y-94826527D01*
X196043554Y-95410000D01*
X196011289Y-95410000D01*
X195917185Y-95435215D01*
X195832814Y-95483926D01*
X195763926Y-95552814D01*
X195715215Y-95637185D01*
X195690000Y-95731289D01*
X195690000Y-95763553D01*
X195106527Y-95180080D01*
X195106525Y-95180080D01*
X195098672Y-95190890D01*
X195098668Y-95190896D01*
X195018349Y-95348529D01*
X194963675Y-95516795D01*
X194936000Y-95691533D01*
X194936000Y-95868466D01*
X194963675Y-96043204D01*
X195018349Y-96211470D01*
X195098668Y-96369104D01*
X195106526Y-96379918D01*
X195106527Y-96379919D01*
X195690000Y-95796446D01*
X195690000Y-95828711D01*
X195715215Y-95922815D01*
X195763926Y-96007186D01*
X195832814Y-96076074D01*
X195917185Y-96124785D01*
X196011289Y-96150000D01*
X196043554Y-96150000D01*
X195460080Y-96733472D01*
X195470893Y-96741329D01*
X195470899Y-96741332D01*
X195628529Y-96821650D01*
X195796795Y-96876324D01*
X195971534Y-96904000D01*
X196148466Y-96904000D01*
X196323204Y-96876324D01*
X196491470Y-96821650D01*
X196649102Y-96741332D01*
X196649107Y-96741329D01*
X196659918Y-96733473D01*
X196659919Y-96733472D01*
X196076447Y-96150000D01*
X196108711Y-96150000D01*
X196202815Y-96124785D01*
X196287186Y-96076074D01*
X196356074Y-96007186D01*
X196404785Y-95922815D01*
X196430000Y-95828711D01*
X196430000Y-95796447D01*
X197013472Y-96379919D01*
X197013473Y-96379918D01*
X197021329Y-96369107D01*
X197021332Y-96369102D01*
X197101650Y-96211470D01*
X197156324Y-96043204D01*
X197184000Y-95868466D01*
X197184000Y-95691533D01*
X197156324Y-95516795D01*
X197101650Y-95348529D01*
X197021332Y-95190899D01*
X197021329Y-95190893D01*
X197013472Y-95180080D01*
X196430000Y-95763552D01*
X196430000Y-95731289D01*
X196404785Y-95637185D01*
X196356074Y-95552814D01*
X196287186Y-95483926D01*
X196202815Y-95435215D01*
X196108711Y-95410000D01*
X196076447Y-95410000D01*
X196659919Y-94826527D01*
X196659918Y-94826526D01*
X196657568Y-94824818D01*
X196614903Y-94769487D01*
X196608924Y-94699874D01*
X196641530Y-94638079D01*
X196702369Y-94603722D01*
X196730454Y-94600500D01*
X197928697Y-94600500D01*
X197995736Y-94620185D01*
X198041491Y-94672989D01*
X198051435Y-94742147D01*
X198022410Y-94805703D01*
X198001583Y-94824817D01*
X197867438Y-94922280D01*
X197867436Y-94922282D01*
X197867435Y-94922282D01*
X197742282Y-95047435D01*
X197742282Y-95047436D01*
X197742280Y-95047438D01*
X197736630Y-95055215D01*
X197638242Y-95190633D01*
X197606182Y-95253554D01*
X197557885Y-95348342D01*
X197541956Y-95397366D01*
X197503189Y-95516678D01*
X197500932Y-95530927D01*
X197475500Y-95691500D01*
X197475500Y-95868500D01*
X197503189Y-96043321D01*
X197557885Y-96211658D01*
X197638242Y-96369366D01*
X197742280Y-96512562D01*
X197742282Y-96512564D01*
X197863181Y-96633463D01*
X197896666Y-96694786D01*
X197899500Y-96721144D01*
X197899500Y-96831006D01*
X197899500Y-96968994D01*
X197899500Y-96968996D01*
X197899499Y-96968996D01*
X197926418Y-97104322D01*
X197926421Y-97104332D01*
X197979222Y-97231807D01*
X198055887Y-97346545D01*
X200653454Y-99944112D01*
X200768192Y-100020777D01*
X200895667Y-100073578D01*
X200895672Y-100073580D01*
X200895676Y-100073580D01*
X200895677Y-100073581D01*
X201031003Y-100100500D01*
X201031006Y-100100500D01*
X201031007Y-100100500D01*
X204758481Y-100100500D01*
X204825520Y-100120185D01*
X204846162Y-100136819D01*
X207363181Y-102653838D01*
X207396666Y-102715161D01*
X207399500Y-102741519D01*
X207399500Y-115058481D01*
X207379815Y-115125520D01*
X207363181Y-115146162D01*
X203045662Y-119463681D01*
X202984339Y-119497166D01*
X202957981Y-119500000D01*
X196290019Y-119500000D01*
X196222980Y-119480315D01*
X196177225Y-119427511D01*
X196167281Y-119358353D01*
X196196306Y-119294797D01*
X196202338Y-119288319D01*
X199144112Y-116346545D01*
X199144114Y-116346543D01*
X199220775Y-116231811D01*
X199273580Y-116104328D01*
X199300500Y-115968994D01*
X199300500Y-115831006D01*
X199300500Y-104341144D01*
X199320185Y-104274105D01*
X199336819Y-104253463D01*
X199371750Y-104218532D01*
X199457720Y-104132562D01*
X199561758Y-103989366D01*
X199642115Y-103831658D01*
X199696811Y-103663321D01*
X199724500Y-103488500D01*
X199724500Y-103311500D01*
X199696811Y-103136679D01*
X199696809Y-103136672D01*
X199695672Y-103131932D01*
X199697018Y-103131608D01*
X199694047Y-103126168D01*
X199696114Y-103097264D01*
X199695283Y-103068302D01*
X199698575Y-103062839D01*
X199699031Y-103056476D01*
X199716394Y-103033281D01*
X199731355Y-103008465D01*
X199737080Y-103005649D01*
X199740903Y-103000543D01*
X199768048Y-102990418D01*
X199794052Y-102977629D01*
X199800389Y-102978355D01*
X199806367Y-102976126D01*
X199834677Y-102982284D01*
X199863468Y-102985584D01*
X199869970Y-102989962D01*
X199874640Y-102990978D01*
X199902894Y-103012129D01*
X199996360Y-103105595D01*
X200029845Y-103166918D01*
X200031152Y-103212674D01*
X200015500Y-103311494D01*
X200015500Y-103311500D01*
X200015500Y-103488500D01*
X200043189Y-103663321D01*
X200097885Y-103831658D01*
X200178242Y-103989366D01*
X200282280Y-104132562D01*
X200407438Y-104257720D01*
X200550634Y-104361758D01*
X200708342Y-104442115D01*
X200876679Y-104496811D01*
X201051500Y-104524500D01*
X201051501Y-104524500D01*
X201228499Y-104524500D01*
X201228500Y-104524500D01*
X201403321Y-104496811D01*
X201571658Y-104442115D01*
X201729366Y-104361758D01*
X201872562Y-104257720D01*
X201997720Y-104132562D01*
X202101758Y-103989366D01*
X202182115Y-103831658D01*
X202236811Y-103663321D01*
X202264500Y-103488500D01*
X202264500Y-103311500D01*
X202555500Y-103311500D01*
X202555500Y-103488500D01*
X202583189Y-103663321D01*
X202637885Y-103831658D01*
X202718242Y-103989366D01*
X202822280Y-104132562D01*
X202947438Y-104257720D01*
X203090634Y-104361758D01*
X203248342Y-104442115D01*
X203416679Y-104496811D01*
X203591500Y-104524500D01*
X203591501Y-104524500D01*
X203768499Y-104524500D01*
X203768500Y-104524500D01*
X203943321Y-104496811D01*
X204111658Y-104442115D01*
X204269366Y-104361758D01*
X204412562Y-104257720D01*
X204537720Y-104132562D01*
X204641758Y-103989366D01*
X204722115Y-103831658D01*
X204776811Y-103663321D01*
X204804500Y-103488500D01*
X204804500Y-103311500D01*
X204776811Y-103136679D01*
X204722115Y-102968342D01*
X204641758Y-102810634D01*
X204537720Y-102667438D01*
X204412562Y-102542280D01*
X204269366Y-102438242D01*
X204111658Y-102357885D01*
X203943321Y-102303189D01*
X203768500Y-102275500D01*
X203591500Y-102275500D01*
X203549211Y-102282198D01*
X203416678Y-102303189D01*
X203392005Y-102311206D01*
X203248342Y-102357885D01*
X203169488Y-102398063D01*
X203090633Y-102438242D01*
X203008935Y-102497599D01*
X202947438Y-102542280D01*
X202947436Y-102542282D01*
X202947435Y-102542282D01*
X202822282Y-102667435D01*
X202822282Y-102667436D01*
X202822280Y-102667438D01*
X202805774Y-102690157D01*
X202718242Y-102810633D01*
X202678063Y-102889488D01*
X202637885Y-102968342D01*
X202634632Y-102978355D01*
X202583189Y-103136678D01*
X202564103Y-103257185D01*
X202555500Y-103311500D01*
X202264500Y-103311500D01*
X202236811Y-103136679D01*
X202182115Y-102968342D01*
X202101758Y-102810634D01*
X201997720Y-102667438D01*
X201872562Y-102542280D01*
X201729366Y-102438242D01*
X201571658Y-102357885D01*
X201403321Y-102303189D01*
X201228500Y-102275500D01*
X201051500Y-102275500D01*
X201051495Y-102275500D01*
X200952674Y-102291152D01*
X200883381Y-102282198D01*
X200845595Y-102256360D01*
X196627590Y-98038355D01*
X196627588Y-98038352D01*
X196508717Y-97919481D01*
X196508709Y-97919475D01*
X196419923Y-97868215D01*
X196419922Y-97868215D01*
X196371785Y-97840423D01*
X196219057Y-97799499D01*
X196060943Y-97799499D01*
X196053347Y-97799499D01*
X196053331Y-97799500D01*
X193179766Y-97799500D01*
X193112727Y-97779815D01*
X193110875Y-97778602D01*
X192979185Y-97690609D01*
X192979172Y-97690602D01*
X192833501Y-97630264D01*
X192833489Y-97630261D01*
X192678845Y-97599500D01*
X192678842Y-97599500D01*
X192521158Y-97599500D01*
X192521155Y-97599500D01*
X192366510Y-97630261D01*
X192366498Y-97630264D01*
X192220827Y-97690602D01*
X192220814Y-97690609D01*
X192089711Y-97778210D01*
X192089707Y-97778213D01*
X191978213Y-97889707D01*
X191978210Y-97889711D01*
X191890609Y-98020814D01*
X191890602Y-98020827D01*
X191830264Y-98166498D01*
X191830261Y-98166510D01*
X191799500Y-98321153D01*
X191799500Y-98478846D01*
X191830261Y-98633489D01*
X191830264Y-98633501D01*
X191890602Y-98779172D01*
X191890609Y-98779185D01*
X191978210Y-98910288D01*
X191978213Y-98910292D01*
X192089707Y-99021786D01*
X192089711Y-99021789D01*
X192220814Y-99109390D01*
X192220827Y-99109397D01*
X192366498Y-99169735D01*
X192366503Y-99169737D01*
X192521153Y-99200499D01*
X192521156Y-99200500D01*
X192521158Y-99200500D01*
X192678844Y-99200500D01*
X192678845Y-99200499D01*
X192833497Y-99169737D01*
X192979179Y-99109394D01*
X192979185Y-99109390D01*
X193110875Y-99021398D01*
X193177553Y-99000520D01*
X193179766Y-99000500D01*
X195839903Y-99000500D01*
X195906942Y-99020185D01*
X195927584Y-99036819D01*
X198987870Y-102097105D01*
X199021355Y-102158428D01*
X199016371Y-102228120D01*
X198974499Y-102284053D01*
X198909035Y-102308470D01*
X198868267Y-102303498D01*
X198868068Y-102304328D01*
X198863322Y-102303189D01*
X198730789Y-102282198D01*
X198688500Y-102275500D01*
X198511500Y-102275500D01*
X198469211Y-102282198D01*
X198336678Y-102303189D01*
X198312005Y-102311206D01*
X198168342Y-102357885D01*
X198089488Y-102398063D01*
X198010633Y-102438242D01*
X197928935Y-102497599D01*
X197867438Y-102542280D01*
X197867436Y-102542282D01*
X197867435Y-102542282D01*
X197742282Y-102667435D01*
X197742282Y-102667436D01*
X197742280Y-102667438D01*
X197725774Y-102690157D01*
X197638242Y-102810633D01*
X197598063Y-102889488D01*
X197557885Y-102968342D01*
X197554632Y-102978355D01*
X197503189Y-103136678D01*
X197484103Y-103257185D01*
X197475500Y-103311500D01*
X197475500Y-103488500D01*
X197503189Y-103663321D01*
X197557885Y-103831658D01*
X197638242Y-103989366D01*
X197742280Y-104132562D01*
X197742282Y-104132564D01*
X197863181Y-104253463D01*
X197896666Y-104314786D01*
X197899500Y-104341144D01*
X197899500Y-115558481D01*
X197879815Y-115625520D01*
X197863181Y-115646162D01*
X194045662Y-119463681D01*
X193984339Y-119497166D01*
X193957981Y-119500000D01*
X183924500Y-119500000D01*
X183915814Y-119497449D01*
X183906853Y-119498738D01*
X183882812Y-119487759D01*
X183857461Y-119480315D01*
X183851533Y-119473474D01*
X183843297Y-119469713D01*
X183829007Y-119447478D01*
X183811706Y-119427511D01*
X183809418Y-119416996D01*
X183805523Y-119410935D01*
X183800500Y-119376000D01*
X183800500Y-119241519D01*
X183820185Y-119174480D01*
X183836819Y-119153838D01*
X191524112Y-111466545D01*
X191524114Y-111466543D01*
X191600775Y-111351811D01*
X191653580Y-111224328D01*
X191680500Y-111088994D01*
X191680500Y-110951006D01*
X191680500Y-104341144D01*
X191689144Y-104311703D01*
X191695668Y-104281717D01*
X191699422Y-104276701D01*
X191700185Y-104274105D01*
X191716819Y-104253463D01*
X191751750Y-104218532D01*
X191837720Y-104132562D01*
X191941758Y-103989366D01*
X192022115Y-103831658D01*
X192076811Y-103663321D01*
X192104500Y-103488500D01*
X192104500Y-103311533D01*
X192396000Y-103311533D01*
X192396000Y-103488466D01*
X192423675Y-103663204D01*
X192478349Y-103831470D01*
X192558668Y-103989104D01*
X192566526Y-103999918D01*
X192566527Y-103999919D01*
X193150000Y-103416446D01*
X193150000Y-103448711D01*
X193175215Y-103542815D01*
X193223926Y-103627186D01*
X193292814Y-103696074D01*
X193377185Y-103744785D01*
X193471289Y-103770000D01*
X193503554Y-103770000D01*
X192920080Y-104353472D01*
X192930893Y-104361329D01*
X192930899Y-104361332D01*
X193088529Y-104441650D01*
X193256795Y-104496324D01*
X193431534Y-104524000D01*
X193608466Y-104524000D01*
X193783204Y-104496324D01*
X193951470Y-104441650D01*
X194109102Y-104361332D01*
X194109107Y-104361329D01*
X194119919Y-104353472D01*
X193536447Y-103770000D01*
X193568711Y-103770000D01*
X193662815Y-103744785D01*
X193747186Y-103696074D01*
X193816074Y-103627186D01*
X193864785Y-103542815D01*
X193890000Y-103448711D01*
X193890000Y-103416447D01*
X194473472Y-103999919D01*
X194473473Y-103999918D01*
X194481329Y-103989107D01*
X194481332Y-103989102D01*
X194561650Y-103831470D01*
X194616324Y-103663204D01*
X194644000Y-103488466D01*
X194644000Y-103311533D01*
X194936000Y-103311533D01*
X194936000Y-103488466D01*
X194963675Y-103663204D01*
X195018349Y-103831470D01*
X195098668Y-103989104D01*
X195106526Y-103999918D01*
X195106527Y-103999919D01*
X195690000Y-103416446D01*
X195690000Y-103448711D01*
X195715215Y-103542815D01*
X195763926Y-103627186D01*
X195832814Y-103696074D01*
X195917185Y-103744785D01*
X196011289Y-103770000D01*
X196043554Y-103770000D01*
X195460080Y-104353472D01*
X195470893Y-104361329D01*
X195470899Y-104361332D01*
X195628529Y-104441650D01*
X195796795Y-104496324D01*
X195971534Y-104524000D01*
X196148466Y-104524000D01*
X196323204Y-104496324D01*
X196491470Y-104441650D01*
X196649102Y-104361332D01*
X196649107Y-104361329D01*
X196659918Y-104353473D01*
X196659919Y-104353472D01*
X196076447Y-103770000D01*
X196108711Y-103770000D01*
X196202815Y-103744785D01*
X196287186Y-103696074D01*
X196356074Y-103627186D01*
X196404785Y-103542815D01*
X196430000Y-103448711D01*
X196430000Y-103416447D01*
X197013472Y-103999919D01*
X197013473Y-103999918D01*
X197021329Y-103989107D01*
X197021332Y-103989102D01*
X197101650Y-103831470D01*
X197156324Y-103663204D01*
X197184000Y-103488466D01*
X197184000Y-103311533D01*
X197156324Y-103136795D01*
X197101650Y-102968529D01*
X197021332Y-102810899D01*
X197021329Y-102810893D01*
X197013472Y-102800080D01*
X196430000Y-103383552D01*
X196430000Y-103351289D01*
X196404785Y-103257185D01*
X196356074Y-103172814D01*
X196287186Y-103103926D01*
X196202815Y-103055215D01*
X196108711Y-103030000D01*
X196076447Y-103030000D01*
X196659919Y-102446527D01*
X196659918Y-102446526D01*
X196649104Y-102438668D01*
X196491470Y-102358349D01*
X196323204Y-102303675D01*
X196148466Y-102276000D01*
X195971534Y-102276000D01*
X195796795Y-102303675D01*
X195628529Y-102358349D01*
X195470896Y-102438668D01*
X195470890Y-102438672D01*
X195460080Y-102446525D01*
X195460080Y-102446527D01*
X196043554Y-103030000D01*
X196011289Y-103030000D01*
X195917185Y-103055215D01*
X195832814Y-103103926D01*
X195763926Y-103172814D01*
X195715215Y-103257185D01*
X195690000Y-103351289D01*
X195690000Y-103383553D01*
X195106527Y-102800080D01*
X195106525Y-102800080D01*
X195098672Y-102810890D01*
X195098668Y-102810896D01*
X195018349Y-102968529D01*
X194963675Y-103136795D01*
X194936000Y-103311533D01*
X194644000Y-103311533D01*
X194616324Y-103136795D01*
X194561650Y-102968529D01*
X194481332Y-102810899D01*
X194481329Y-102810893D01*
X194473472Y-102800080D01*
X193890000Y-103383552D01*
X193890000Y-103351289D01*
X193864785Y-103257185D01*
X193816074Y-103172814D01*
X193747186Y-103103926D01*
X193662815Y-103055215D01*
X193568711Y-103030000D01*
X193536447Y-103030000D01*
X194119919Y-102446526D01*
X194109104Y-102438668D01*
X193951470Y-102358349D01*
X193783204Y-102303675D01*
X193608466Y-102276000D01*
X193431534Y-102276000D01*
X193256795Y-102303675D01*
X193088529Y-102358349D01*
X192930896Y-102438668D01*
X192930890Y-102438672D01*
X192920080Y-102446525D01*
X192920080Y-102446527D01*
X193503554Y-103030000D01*
X193471289Y-103030000D01*
X193377185Y-103055215D01*
X193292814Y-103103926D01*
X193223926Y-103172814D01*
X193175215Y-103257185D01*
X193150000Y-103351289D01*
X193150000Y-103383553D01*
X192566527Y-102800080D01*
X192566525Y-102800080D01*
X192558672Y-102810890D01*
X192558668Y-102810896D01*
X192478349Y-102968529D01*
X192423675Y-103136795D01*
X192396000Y-103311533D01*
X192104500Y-103311533D01*
X192104500Y-103311500D01*
X192076811Y-103136679D01*
X192022115Y-102968342D01*
X191941758Y-102810634D01*
X191837720Y-102667438D01*
X191712562Y-102542280D01*
X191569366Y-102438242D01*
X191411658Y-102357885D01*
X191243321Y-102303189D01*
X191068500Y-102275500D01*
X190891500Y-102275500D01*
X190849211Y-102282198D01*
X190716678Y-102303189D01*
X190692005Y-102311206D01*
X190548342Y-102357885D01*
X190469488Y-102398063D01*
X190390633Y-102438242D01*
X190308935Y-102497599D01*
X190247438Y-102542280D01*
X190247436Y-102542282D01*
X190247435Y-102542282D01*
X190122282Y-102667435D01*
X190122282Y-102667436D01*
X190122280Y-102667438D01*
X190105774Y-102690157D01*
X190018242Y-102810633D01*
X189978063Y-102889488D01*
X189937885Y-102968342D01*
X189934632Y-102978355D01*
X189883189Y-103136678D01*
X189864103Y-103257185D01*
X189855500Y-103311500D01*
X189855500Y-103488500D01*
X189883189Y-103663321D01*
X189937885Y-103831658D01*
X190018242Y-103989366D01*
X190122280Y-104132562D01*
X190122282Y-104132564D01*
X190243181Y-104253463D01*
X190276666Y-104314786D01*
X190279500Y-104341144D01*
X190279500Y-110678480D01*
X190259815Y-110745519D01*
X190243181Y-110766161D01*
X182555888Y-118453453D01*
X182555887Y-118453454D01*
X182533330Y-118487213D01*
X182510875Y-118520821D01*
X182494995Y-118544586D01*
X182479223Y-118568191D01*
X182426421Y-118695667D01*
X182426418Y-118695677D01*
X182399500Y-118831004D01*
X182399500Y-119376000D01*
X182379815Y-119443039D01*
X182327011Y-119488794D01*
X182275500Y-119500000D01*
X181424500Y-119500000D01*
X181357461Y-119480315D01*
X181311706Y-119427511D01*
X181300500Y-119376000D01*
X181300500Y-105241518D01*
X181320185Y-105174479D01*
X181336814Y-105153842D01*
X184445313Y-102045342D01*
X184506634Y-102011859D01*
X184576326Y-102016843D01*
X184601883Y-102029923D01*
X184720814Y-102109390D01*
X184720827Y-102109397D01*
X184839200Y-102158428D01*
X184866503Y-102169737D01*
X185021153Y-102200499D01*
X185021156Y-102200500D01*
X185021158Y-102200500D01*
X185178844Y-102200500D01*
X185281159Y-102180148D01*
X185350751Y-102186375D01*
X185405928Y-102229238D01*
X185429173Y-102295128D01*
X185413105Y-102363125D01*
X185362826Y-102411640D01*
X185361646Y-102412250D01*
X185310633Y-102438242D01*
X185228935Y-102497599D01*
X185167438Y-102542280D01*
X185167436Y-102542282D01*
X185167435Y-102542282D01*
X185042282Y-102667435D01*
X185042282Y-102667436D01*
X185042280Y-102667438D01*
X185025774Y-102690157D01*
X184938242Y-102810633D01*
X184898063Y-102889488D01*
X184857885Y-102968342D01*
X184854632Y-102978355D01*
X184803189Y-103136678D01*
X184784103Y-103257185D01*
X184775500Y-103311500D01*
X184775500Y-103488500D01*
X184803189Y-103663321D01*
X184857885Y-103831658D01*
X184938242Y-103989366D01*
X185042280Y-104132562D01*
X185167438Y-104257720D01*
X185310634Y-104361758D01*
X185468342Y-104442115D01*
X185636679Y-104496811D01*
X185811500Y-104524500D01*
X185811501Y-104524500D01*
X185988499Y-104524500D01*
X185988500Y-104524500D01*
X186163321Y-104496811D01*
X186331658Y-104442115D01*
X186489366Y-104361758D01*
X186632562Y-104257720D01*
X186757720Y-104132562D01*
X186861758Y-103989366D01*
X186942115Y-103831658D01*
X186996811Y-103663321D01*
X187024500Y-103488500D01*
X187024500Y-103311500D01*
X186996811Y-103136679D01*
X186996809Y-103136672D01*
X186995672Y-103131932D01*
X186997018Y-103131608D01*
X186994047Y-103126168D01*
X186996114Y-103097264D01*
X186995283Y-103068302D01*
X186998575Y-103062839D01*
X186999031Y-103056476D01*
X187016394Y-103033281D01*
X187031355Y-103008465D01*
X187037080Y-103005649D01*
X187040903Y-103000543D01*
X187068048Y-102990418D01*
X187094052Y-102977629D01*
X187100389Y-102978355D01*
X187106367Y-102976126D01*
X187134677Y-102982284D01*
X187163468Y-102985584D01*
X187169970Y-102989962D01*
X187174640Y-102990978D01*
X187202894Y-103012129D01*
X187296360Y-103105595D01*
X187329845Y-103166918D01*
X187331152Y-103212674D01*
X187315500Y-103311494D01*
X187315500Y-103311500D01*
X187315500Y-103488500D01*
X187343189Y-103663321D01*
X187397885Y-103831658D01*
X187478242Y-103989366D01*
X187582280Y-104132562D01*
X187707438Y-104257720D01*
X187850634Y-104361758D01*
X188008342Y-104442115D01*
X188176679Y-104496811D01*
X188351500Y-104524500D01*
X188351501Y-104524500D01*
X188528499Y-104524500D01*
X188528500Y-104524500D01*
X188703321Y-104496811D01*
X188871658Y-104442115D01*
X189029366Y-104361758D01*
X189172562Y-104257720D01*
X189297720Y-104132562D01*
X189401758Y-103989366D01*
X189482115Y-103831658D01*
X189536811Y-103663321D01*
X189564500Y-103488500D01*
X189564500Y-103311500D01*
X189536811Y-103136679D01*
X189482115Y-102968342D01*
X189401758Y-102810634D01*
X189297720Y-102667438D01*
X189172562Y-102542280D01*
X189029366Y-102438242D01*
X188871658Y-102357885D01*
X188703321Y-102303189D01*
X188528500Y-102275500D01*
X188351500Y-102275500D01*
X188351495Y-102275500D01*
X188252674Y-102291152D01*
X188183381Y-102282198D01*
X188145595Y-102256360D01*
X186927590Y-101038355D01*
X186927588Y-101038352D01*
X186808717Y-100919481D01*
X186808716Y-100919480D01*
X186721904Y-100869360D01*
X186721904Y-100869359D01*
X186721900Y-100869358D01*
X186671785Y-100840423D01*
X186519057Y-100799499D01*
X186360943Y-100799499D01*
X186353347Y-100799499D01*
X186353331Y-100799500D01*
X185990519Y-100799500D01*
X185923480Y-100779815D01*
X185877725Y-100727011D01*
X185867781Y-100657853D01*
X185896806Y-100594297D01*
X185902838Y-100587819D01*
X186353838Y-100136819D01*
X186415161Y-100103334D01*
X186441519Y-100100500D01*
X188668996Y-100100500D01*
X188760040Y-100082389D01*
X188804328Y-100073580D01*
X188889376Y-100038352D01*
X188931807Y-100020777D01*
X188931808Y-100020776D01*
X188931811Y-100020775D01*
X189046543Y-99944114D01*
X191524114Y-97466543D01*
X191600775Y-97351811D01*
X191653580Y-97224329D01*
X191660669Y-97188691D01*
X191680500Y-97088993D01*
X191680500Y-96721144D01*
X191689144Y-96691703D01*
X191695668Y-96661717D01*
X191699422Y-96656701D01*
X191700185Y-96654105D01*
X191716819Y-96633463D01*
X191751750Y-96598532D01*
X191753804Y-96596478D01*
X191837720Y-96512562D01*
X191941758Y-96369366D01*
X192022115Y-96211658D01*
X192076811Y-96043321D01*
X192104500Y-95868500D01*
X192104500Y-95691500D01*
X192076811Y-95516679D01*
X192022115Y-95348342D01*
X191941758Y-95190634D01*
X191837720Y-95047438D01*
X191712562Y-94922280D01*
X191578416Y-94824817D01*
X191535752Y-94769488D01*
X191529773Y-94699874D01*
X191562379Y-94638079D01*
X191623218Y-94603722D01*
X191651303Y-94600500D01*
X192849546Y-94600500D01*
X192916585Y-94620185D01*
G37*
%TD.AperFunction*%
%TA.AperFunction,Conductor*%
G36*
X163056521Y-93620185D02*
G01*
X163102276Y-93672989D01*
X163112220Y-93742147D01*
X163083195Y-93805703D01*
X163077168Y-93812175D01*
X162445232Y-94444110D01*
X162270161Y-94619181D01*
X162208838Y-94652666D01*
X162182480Y-94655500D01*
X162011500Y-94655500D01*
X161941209Y-94666633D01*
X161836678Y-94683189D01*
X161772020Y-94704198D01*
X161668342Y-94737885D01*
X161634252Y-94755255D01*
X161510633Y-94818242D01*
X161428935Y-94877599D01*
X161367438Y-94922280D01*
X161367436Y-94922282D01*
X161367435Y-94922282D01*
X161242282Y-95047435D01*
X161242282Y-95047436D01*
X161242280Y-95047438D01*
X161236630Y-95055215D01*
X161138242Y-95190633D01*
X161106182Y-95253554D01*
X161057885Y-95348342D01*
X161041956Y-95397366D01*
X161003189Y-95516678D01*
X161000932Y-95530927D01*
X160975500Y-95691500D01*
X160975500Y-95868500D01*
X161003189Y-96043321D01*
X161057885Y-96211658D01*
X161138242Y-96369366D01*
X161242280Y-96512562D01*
X161367438Y-96637720D01*
X161510634Y-96741758D01*
X161556280Y-96765016D01*
X161607075Y-96812989D01*
X161623870Y-96880810D01*
X161601333Y-96946945D01*
X161546618Y-96990397D01*
X161499984Y-96999500D01*
X160158917Y-96999500D01*
X160091878Y-96979815D01*
X160046123Y-96927011D01*
X160036179Y-96857853D01*
X160065204Y-96794297D01*
X160102622Y-96765015D01*
X160149102Y-96741331D01*
X160149107Y-96741329D01*
X160159918Y-96733473D01*
X160159919Y-96733472D01*
X159576447Y-96150000D01*
X159608711Y-96150000D01*
X159702815Y-96124785D01*
X159787186Y-96076074D01*
X159856074Y-96007186D01*
X159904785Y-95922815D01*
X159930000Y-95828711D01*
X159930000Y-95796447D01*
X160513472Y-96379919D01*
X160513473Y-96379918D01*
X160521329Y-96369107D01*
X160521332Y-96369102D01*
X160601650Y-96211470D01*
X160656324Y-96043204D01*
X160684000Y-95868466D01*
X160684000Y-95691533D01*
X160656324Y-95516795D01*
X160601650Y-95348529D01*
X160521332Y-95190899D01*
X160521329Y-95190893D01*
X160513472Y-95180080D01*
X159930000Y-95763552D01*
X159930000Y-95731289D01*
X159904785Y-95637185D01*
X159856074Y-95552814D01*
X159787186Y-95483926D01*
X159702815Y-95435215D01*
X159608711Y-95410000D01*
X159576447Y-95410000D01*
X160159919Y-94826527D01*
X160159918Y-94826526D01*
X160149104Y-94818668D01*
X159991470Y-94738349D01*
X159823204Y-94683675D01*
X159648466Y-94656000D01*
X159471534Y-94656000D01*
X159296795Y-94683675D01*
X159128529Y-94738349D01*
X158970896Y-94818668D01*
X158970890Y-94818672D01*
X158960080Y-94826525D01*
X158960080Y-94826527D01*
X159543554Y-95410000D01*
X159511289Y-95410000D01*
X159417185Y-95435215D01*
X159332814Y-95483926D01*
X159263926Y-95552814D01*
X159215215Y-95637185D01*
X159190000Y-95731289D01*
X159190000Y-95763553D01*
X158606527Y-95180080D01*
X158606525Y-95180080D01*
X158598672Y-95190890D01*
X158598668Y-95190896D01*
X158518349Y-95348529D01*
X158463675Y-95516795D01*
X158436000Y-95691533D01*
X158436000Y-95868466D01*
X158463675Y-96043204D01*
X158518349Y-96211470D01*
X158598668Y-96369104D01*
X158606526Y-96379918D01*
X158606527Y-96379919D01*
X159190000Y-95796446D01*
X159190000Y-95828711D01*
X159215215Y-95922815D01*
X159263926Y-96007186D01*
X159332814Y-96076074D01*
X159417185Y-96124785D01*
X159511289Y-96150000D01*
X159543554Y-96150000D01*
X158960080Y-96733472D01*
X158970893Y-96741329D01*
X158970898Y-96741332D01*
X159017378Y-96765015D01*
X159068174Y-96812989D01*
X159084969Y-96880810D01*
X159062432Y-96946945D01*
X159007717Y-96990397D01*
X158961083Y-96999500D01*
X157618917Y-96999500D01*
X157551878Y-96979815D01*
X157506123Y-96927011D01*
X157496179Y-96857853D01*
X157525204Y-96794297D01*
X157562622Y-96765015D01*
X157609102Y-96741331D01*
X157609107Y-96741329D01*
X157619918Y-96733473D01*
X157619919Y-96733472D01*
X157036447Y-96150000D01*
X157068711Y-96150000D01*
X157162815Y-96124785D01*
X157247186Y-96076074D01*
X157316074Y-96007186D01*
X157364785Y-95922815D01*
X157390000Y-95828711D01*
X157390000Y-95796447D01*
X157973472Y-96379919D01*
X157973473Y-96379918D01*
X157981329Y-96369107D01*
X157981332Y-96369102D01*
X158061650Y-96211470D01*
X158116324Y-96043204D01*
X158144000Y-95868466D01*
X158144000Y-95691533D01*
X158116324Y-95516795D01*
X158061650Y-95348529D01*
X157981332Y-95190899D01*
X157981329Y-95190893D01*
X157973472Y-95180080D01*
X157390000Y-95763552D01*
X157390000Y-95731289D01*
X157364785Y-95637185D01*
X157316074Y-95552814D01*
X157247186Y-95483926D01*
X157162815Y-95435215D01*
X157068711Y-95410000D01*
X157036447Y-95410000D01*
X157619919Y-94826526D01*
X157609104Y-94818668D01*
X157451470Y-94738349D01*
X157283204Y-94683675D01*
X157108466Y-94656000D01*
X156931534Y-94656000D01*
X156756795Y-94683675D01*
X156588529Y-94738349D01*
X156430896Y-94818668D01*
X156430890Y-94818672D01*
X156420080Y-94826525D01*
X156420080Y-94826527D01*
X157003554Y-95410000D01*
X156971289Y-95410000D01*
X156877185Y-95435215D01*
X156792814Y-95483926D01*
X156723926Y-95552814D01*
X156675215Y-95637185D01*
X156650000Y-95731289D01*
X156650000Y-95763553D01*
X156066527Y-95180080D01*
X156066525Y-95180080D01*
X156058672Y-95190890D01*
X156058668Y-95190896D01*
X155978349Y-95348529D01*
X155923675Y-95516795D01*
X155896000Y-95691533D01*
X155896000Y-95868466D01*
X155923675Y-96043204D01*
X155978349Y-96211470D01*
X156058668Y-96369104D01*
X156066526Y-96379918D01*
X156066527Y-96379919D01*
X156650000Y-95796446D01*
X156650000Y-95828711D01*
X156675215Y-95922815D01*
X156723926Y-96007186D01*
X156792814Y-96076074D01*
X156877185Y-96124785D01*
X156971289Y-96150000D01*
X157003554Y-96150000D01*
X156420080Y-96733472D01*
X156430893Y-96741329D01*
X156430898Y-96741332D01*
X156477378Y-96765015D01*
X156528174Y-96812989D01*
X156544969Y-96880810D01*
X156522432Y-96946945D01*
X156467717Y-96990397D01*
X156421083Y-96999500D01*
X155080016Y-96999500D01*
X155012977Y-96979815D01*
X154967222Y-96927011D01*
X154957278Y-96857853D01*
X154986303Y-96794297D01*
X155023719Y-96765016D01*
X155069366Y-96741758D01*
X155212562Y-96637720D01*
X155337720Y-96512562D01*
X155441758Y-96369366D01*
X155522115Y-96211658D01*
X155576811Y-96043321D01*
X155604500Y-95868500D01*
X155604500Y-95691500D01*
X155576811Y-95516679D01*
X155522115Y-95348342D01*
X155441758Y-95190634D01*
X155343369Y-95055214D01*
X155331907Y-95023089D01*
X155320004Y-94991175D01*
X155320199Y-94990275D01*
X155319890Y-94989408D01*
X155327617Y-94956176D01*
X155334856Y-94922902D01*
X155335579Y-94921935D01*
X155335715Y-94921354D01*
X155356003Y-94894652D01*
X156613837Y-93636819D01*
X156675160Y-93603334D01*
X156701518Y-93600500D01*
X162989482Y-93600500D01*
X163056521Y-93620185D01*
G37*
%TD.AperFunction*%
%TD*%
M02*
