%TF.GenerationSoftware,KiCad,Pcbnew,9.0.0*%
%TF.CreationDate,2025-03-07T14:01:18-07:00*%
%TF.ProjectId,Cntrlr-Turnout,436e7472-6c72-42d5-9475-726e6f75742e,rev?*%
%TF.SameCoordinates,Original*%
%TF.FileFunction,Legend,Top*%
%TF.FilePolarity,Positive*%
%FSLAX46Y46*%
G04 Gerber Fmt 4.6, Leading zero omitted, Abs format (unit mm)*
G04 Created by KiCad (PCBNEW 9.0.0) date 2025-03-07 14:01:18*
%MOMM*%
%LPD*%
G01*
G04 APERTURE LIST*
%ADD10C,0.100000*%
%ADD11C,0.150000*%
%ADD12C,0.127000*%
%ADD13C,0.200000*%
%ADD14C,0.300000*%
%ADD15C,0.152400*%
%ADD16C,0.508000*%
G04 APERTURE END LIST*
D10*
X127023810Y-60152531D02*
X127023810Y-59152531D01*
X127023810Y-59152531D02*
X127357143Y-59866816D01*
X127357143Y-59866816D02*
X127690476Y-59152531D01*
X127690476Y-59152531D02*
X127690476Y-60152531D01*
X128833333Y-60247769D02*
X128738095Y-60200150D01*
X128738095Y-60200150D02*
X128642857Y-60104912D01*
X128642857Y-60104912D02*
X128500000Y-59962054D01*
X128500000Y-59962054D02*
X128404762Y-59914435D01*
X128404762Y-59914435D02*
X128309524Y-59914435D01*
X128357143Y-60152531D02*
X128261905Y-60104912D01*
X128261905Y-60104912D02*
X128166667Y-60009673D01*
X128166667Y-60009673D02*
X128119048Y-59819197D01*
X128119048Y-59819197D02*
X128119048Y-59485864D01*
X128119048Y-59485864D02*
X128166667Y-59295388D01*
X128166667Y-59295388D02*
X128261905Y-59200150D01*
X128261905Y-59200150D02*
X128357143Y-59152531D01*
X128357143Y-59152531D02*
X128547619Y-59152531D01*
X128547619Y-59152531D02*
X128642857Y-59200150D01*
X128642857Y-59200150D02*
X128738095Y-59295388D01*
X128738095Y-59295388D02*
X128785714Y-59485864D01*
X128785714Y-59485864D02*
X128785714Y-59819197D01*
X128785714Y-59819197D02*
X128738095Y-60009673D01*
X128738095Y-60009673D02*
X128642857Y-60104912D01*
X128642857Y-60104912D02*
X128547619Y-60152531D01*
X128547619Y-60152531D02*
X128357143Y-60152531D01*
X129071429Y-59152531D02*
X129642857Y-59152531D01*
X129357143Y-60152531D02*
X129357143Y-59152531D01*
X129833334Y-59152531D02*
X130404762Y-59152531D01*
X130119048Y-60152531D02*
X130119048Y-59152531D01*
X131404763Y-59152531D02*
X131642858Y-60152531D01*
X131642858Y-60152531D02*
X131833334Y-59438245D01*
X131833334Y-59438245D02*
X132023810Y-60152531D01*
X132023810Y-60152531D02*
X132261906Y-59152531D01*
X132642858Y-60152531D02*
X132642858Y-59485864D01*
X132642858Y-59152531D02*
X132595239Y-59200150D01*
X132595239Y-59200150D02*
X132642858Y-59247769D01*
X132642858Y-59247769D02*
X132690477Y-59200150D01*
X132690477Y-59200150D02*
X132642858Y-59152531D01*
X132642858Y-59152531D02*
X132642858Y-59247769D01*
X133452381Y-59628721D02*
X133119048Y-59628721D01*
X133119048Y-60152531D02*
X133119048Y-59152531D01*
X133119048Y-59152531D02*
X133595238Y-59152531D01*
X133976191Y-60152531D02*
X133976191Y-59485864D01*
X133976191Y-59152531D02*
X133928572Y-59200150D01*
X133928572Y-59200150D02*
X133976191Y-59247769D01*
X133976191Y-59247769D02*
X134023810Y-59200150D01*
X134023810Y-59200150D02*
X133976191Y-59152531D01*
X133976191Y-59152531D02*
X133976191Y-59247769D01*
X123714284Y-60762475D02*
X124285712Y-60762475D01*
X123999998Y-61762475D02*
X123999998Y-60762475D01*
X125047617Y-61095808D02*
X125047617Y-61762475D01*
X124619046Y-61095808D02*
X124619046Y-61619617D01*
X124619046Y-61619617D02*
X124666665Y-61714856D01*
X124666665Y-61714856D02*
X124761903Y-61762475D01*
X124761903Y-61762475D02*
X124904760Y-61762475D01*
X124904760Y-61762475D02*
X124999998Y-61714856D01*
X124999998Y-61714856D02*
X125047617Y-61667236D01*
X125523808Y-61762475D02*
X125523808Y-61095808D01*
X125523808Y-61286284D02*
X125571427Y-61191046D01*
X125571427Y-61191046D02*
X125619046Y-61143427D01*
X125619046Y-61143427D02*
X125714284Y-61095808D01*
X125714284Y-61095808D02*
X125809522Y-61095808D01*
X126142856Y-61095808D02*
X126142856Y-61762475D01*
X126142856Y-61191046D02*
X126190475Y-61143427D01*
X126190475Y-61143427D02*
X126285713Y-61095808D01*
X126285713Y-61095808D02*
X126428570Y-61095808D01*
X126428570Y-61095808D02*
X126523808Y-61143427D01*
X126523808Y-61143427D02*
X126571427Y-61238665D01*
X126571427Y-61238665D02*
X126571427Y-61762475D01*
X127190475Y-61762475D02*
X127095237Y-61714856D01*
X127095237Y-61714856D02*
X127047618Y-61667236D01*
X127047618Y-61667236D02*
X126999999Y-61571998D01*
X126999999Y-61571998D02*
X126999999Y-61286284D01*
X126999999Y-61286284D02*
X127047618Y-61191046D01*
X127047618Y-61191046D02*
X127095237Y-61143427D01*
X127095237Y-61143427D02*
X127190475Y-61095808D01*
X127190475Y-61095808D02*
X127333332Y-61095808D01*
X127333332Y-61095808D02*
X127428570Y-61143427D01*
X127428570Y-61143427D02*
X127476189Y-61191046D01*
X127476189Y-61191046D02*
X127523808Y-61286284D01*
X127523808Y-61286284D02*
X127523808Y-61571998D01*
X127523808Y-61571998D02*
X127476189Y-61667236D01*
X127476189Y-61667236D02*
X127428570Y-61714856D01*
X127428570Y-61714856D02*
X127333332Y-61762475D01*
X127333332Y-61762475D02*
X127190475Y-61762475D01*
X128380951Y-61095808D02*
X128380951Y-61762475D01*
X127952380Y-61095808D02*
X127952380Y-61619617D01*
X127952380Y-61619617D02*
X127999999Y-61714856D01*
X127999999Y-61714856D02*
X128095237Y-61762475D01*
X128095237Y-61762475D02*
X128238094Y-61762475D01*
X128238094Y-61762475D02*
X128333332Y-61714856D01*
X128333332Y-61714856D02*
X128380951Y-61667236D01*
X128714285Y-61095808D02*
X129095237Y-61095808D01*
X128857142Y-60762475D02*
X128857142Y-61619617D01*
X128857142Y-61619617D02*
X128904761Y-61714856D01*
X128904761Y-61714856D02*
X128999999Y-61762475D01*
X128999999Y-61762475D02*
X129095237Y-61762475D01*
X130761904Y-61667236D02*
X130714285Y-61714856D01*
X130714285Y-61714856D02*
X130571428Y-61762475D01*
X130571428Y-61762475D02*
X130476190Y-61762475D01*
X130476190Y-61762475D02*
X130333333Y-61714856D01*
X130333333Y-61714856D02*
X130238095Y-61619617D01*
X130238095Y-61619617D02*
X130190476Y-61524379D01*
X130190476Y-61524379D02*
X130142857Y-61333903D01*
X130142857Y-61333903D02*
X130142857Y-61191046D01*
X130142857Y-61191046D02*
X130190476Y-61000570D01*
X130190476Y-61000570D02*
X130238095Y-60905332D01*
X130238095Y-60905332D02*
X130333333Y-60810094D01*
X130333333Y-60810094D02*
X130476190Y-60762475D01*
X130476190Y-60762475D02*
X130571428Y-60762475D01*
X130571428Y-60762475D02*
X130714285Y-60810094D01*
X130714285Y-60810094D02*
X130761904Y-60857713D01*
X131333333Y-61762475D02*
X131238095Y-61714856D01*
X131238095Y-61714856D02*
X131190476Y-61667236D01*
X131190476Y-61667236D02*
X131142857Y-61571998D01*
X131142857Y-61571998D02*
X131142857Y-61286284D01*
X131142857Y-61286284D02*
X131190476Y-61191046D01*
X131190476Y-61191046D02*
X131238095Y-61143427D01*
X131238095Y-61143427D02*
X131333333Y-61095808D01*
X131333333Y-61095808D02*
X131476190Y-61095808D01*
X131476190Y-61095808D02*
X131571428Y-61143427D01*
X131571428Y-61143427D02*
X131619047Y-61191046D01*
X131619047Y-61191046D02*
X131666666Y-61286284D01*
X131666666Y-61286284D02*
X131666666Y-61571998D01*
X131666666Y-61571998D02*
X131619047Y-61667236D01*
X131619047Y-61667236D02*
X131571428Y-61714856D01*
X131571428Y-61714856D02*
X131476190Y-61762475D01*
X131476190Y-61762475D02*
X131333333Y-61762475D01*
X132095238Y-61095808D02*
X132095238Y-61762475D01*
X132095238Y-61191046D02*
X132142857Y-61143427D01*
X132142857Y-61143427D02*
X132238095Y-61095808D01*
X132238095Y-61095808D02*
X132380952Y-61095808D01*
X132380952Y-61095808D02*
X132476190Y-61143427D01*
X132476190Y-61143427D02*
X132523809Y-61238665D01*
X132523809Y-61238665D02*
X132523809Y-61762475D01*
X132857143Y-61095808D02*
X133238095Y-61095808D01*
X133000000Y-60762475D02*
X133000000Y-61619617D01*
X133000000Y-61619617D02*
X133047619Y-61714856D01*
X133047619Y-61714856D02*
X133142857Y-61762475D01*
X133142857Y-61762475D02*
X133238095Y-61762475D01*
X133571429Y-61762475D02*
X133571429Y-61095808D01*
X133571429Y-61286284D02*
X133619048Y-61191046D01*
X133619048Y-61191046D02*
X133666667Y-61143427D01*
X133666667Y-61143427D02*
X133761905Y-61095808D01*
X133761905Y-61095808D02*
X133857143Y-61095808D01*
X134333334Y-61762475D02*
X134238096Y-61714856D01*
X134238096Y-61714856D02*
X134190477Y-61667236D01*
X134190477Y-61667236D02*
X134142858Y-61571998D01*
X134142858Y-61571998D02*
X134142858Y-61286284D01*
X134142858Y-61286284D02*
X134190477Y-61191046D01*
X134190477Y-61191046D02*
X134238096Y-61143427D01*
X134238096Y-61143427D02*
X134333334Y-61095808D01*
X134333334Y-61095808D02*
X134476191Y-61095808D01*
X134476191Y-61095808D02*
X134571429Y-61143427D01*
X134571429Y-61143427D02*
X134619048Y-61191046D01*
X134619048Y-61191046D02*
X134666667Y-61286284D01*
X134666667Y-61286284D02*
X134666667Y-61571998D01*
X134666667Y-61571998D02*
X134619048Y-61667236D01*
X134619048Y-61667236D02*
X134571429Y-61714856D01*
X134571429Y-61714856D02*
X134476191Y-61762475D01*
X134476191Y-61762475D02*
X134333334Y-61762475D01*
X135238096Y-61762475D02*
X135142858Y-61714856D01*
X135142858Y-61714856D02*
X135095239Y-61619617D01*
X135095239Y-61619617D02*
X135095239Y-60762475D01*
X135761906Y-61762475D02*
X135666668Y-61714856D01*
X135666668Y-61714856D02*
X135619049Y-61619617D01*
X135619049Y-61619617D02*
X135619049Y-60762475D01*
X136523811Y-61714856D02*
X136428573Y-61762475D01*
X136428573Y-61762475D02*
X136238097Y-61762475D01*
X136238097Y-61762475D02*
X136142859Y-61714856D01*
X136142859Y-61714856D02*
X136095240Y-61619617D01*
X136095240Y-61619617D02*
X136095240Y-61238665D01*
X136095240Y-61238665D02*
X136142859Y-61143427D01*
X136142859Y-61143427D02*
X136238097Y-61095808D01*
X136238097Y-61095808D02*
X136428573Y-61095808D01*
X136428573Y-61095808D02*
X136523811Y-61143427D01*
X136523811Y-61143427D02*
X136571430Y-61238665D01*
X136571430Y-61238665D02*
X136571430Y-61333903D01*
X136571430Y-61333903D02*
X136095240Y-61429141D01*
X137000002Y-61762475D02*
X137000002Y-61095808D01*
X137000002Y-61286284D02*
X137047621Y-61191046D01*
X137047621Y-61191046D02*
X137095240Y-61143427D01*
X137095240Y-61143427D02*
X137190478Y-61095808D01*
X137190478Y-61095808D02*
X137285716Y-61095808D01*
X127071428Y-63372419D02*
X127071428Y-62372419D01*
X127071428Y-62372419D02*
X127309523Y-62372419D01*
X127309523Y-62372419D02*
X127452380Y-62420038D01*
X127452380Y-62420038D02*
X127547618Y-62515276D01*
X127547618Y-62515276D02*
X127595237Y-62610514D01*
X127595237Y-62610514D02*
X127642856Y-62800990D01*
X127642856Y-62800990D02*
X127642856Y-62943847D01*
X127642856Y-62943847D02*
X127595237Y-63134323D01*
X127595237Y-63134323D02*
X127547618Y-63229561D01*
X127547618Y-63229561D02*
X127452380Y-63324800D01*
X127452380Y-63324800D02*
X127309523Y-63372419D01*
X127309523Y-63372419D02*
X127071428Y-63372419D01*
X128357142Y-62372419D02*
X128357142Y-63086704D01*
X128357142Y-63086704D02*
X128309523Y-63229561D01*
X128309523Y-63229561D02*
X128214285Y-63324800D01*
X128214285Y-63324800D02*
X128071428Y-63372419D01*
X128071428Y-63372419D02*
X127976190Y-63372419D01*
X129166666Y-62848609D02*
X129309523Y-62896228D01*
X129309523Y-62896228D02*
X129357142Y-62943847D01*
X129357142Y-62943847D02*
X129404761Y-63039085D01*
X129404761Y-63039085D02*
X129404761Y-63181942D01*
X129404761Y-63181942D02*
X129357142Y-63277180D01*
X129357142Y-63277180D02*
X129309523Y-63324800D01*
X129309523Y-63324800D02*
X129214285Y-63372419D01*
X129214285Y-63372419D02*
X128833333Y-63372419D01*
X128833333Y-63372419D02*
X128833333Y-62372419D01*
X128833333Y-62372419D02*
X129166666Y-62372419D01*
X129166666Y-62372419D02*
X129261904Y-62420038D01*
X129261904Y-62420038D02*
X129309523Y-62467657D01*
X129309523Y-62467657D02*
X129357142Y-62562895D01*
X129357142Y-62562895D02*
X129357142Y-62658133D01*
X129357142Y-62658133D02*
X129309523Y-62753371D01*
X129309523Y-62753371D02*
X129261904Y-62800990D01*
X129261904Y-62800990D02*
X129166666Y-62848609D01*
X129166666Y-62848609D02*
X128833333Y-62848609D01*
X130547619Y-62467657D02*
X130595238Y-62420038D01*
X130595238Y-62420038D02*
X130690476Y-62372419D01*
X130690476Y-62372419D02*
X130928571Y-62372419D01*
X130928571Y-62372419D02*
X131023809Y-62420038D01*
X131023809Y-62420038D02*
X131071428Y-62467657D01*
X131071428Y-62467657D02*
X131119047Y-62562895D01*
X131119047Y-62562895D02*
X131119047Y-62658133D01*
X131119047Y-62658133D02*
X131071428Y-62800990D01*
X131071428Y-62800990D02*
X130500000Y-63372419D01*
X130500000Y-63372419D02*
X131119047Y-63372419D01*
X131738095Y-62372419D02*
X131833333Y-62372419D01*
X131833333Y-62372419D02*
X131928571Y-62420038D01*
X131928571Y-62420038D02*
X131976190Y-62467657D01*
X131976190Y-62467657D02*
X132023809Y-62562895D01*
X132023809Y-62562895D02*
X132071428Y-62753371D01*
X132071428Y-62753371D02*
X132071428Y-62991466D01*
X132071428Y-62991466D02*
X132023809Y-63181942D01*
X132023809Y-63181942D02*
X131976190Y-63277180D01*
X131976190Y-63277180D02*
X131928571Y-63324800D01*
X131928571Y-63324800D02*
X131833333Y-63372419D01*
X131833333Y-63372419D02*
X131738095Y-63372419D01*
X131738095Y-63372419D02*
X131642857Y-63324800D01*
X131642857Y-63324800D02*
X131595238Y-63277180D01*
X131595238Y-63277180D02*
X131547619Y-63181942D01*
X131547619Y-63181942D02*
X131500000Y-62991466D01*
X131500000Y-62991466D02*
X131500000Y-62753371D01*
X131500000Y-62753371D02*
X131547619Y-62562895D01*
X131547619Y-62562895D02*
X131595238Y-62467657D01*
X131595238Y-62467657D02*
X131642857Y-62420038D01*
X131642857Y-62420038D02*
X131738095Y-62372419D01*
X132452381Y-62467657D02*
X132500000Y-62420038D01*
X132500000Y-62420038D02*
X132595238Y-62372419D01*
X132595238Y-62372419D02*
X132833333Y-62372419D01*
X132833333Y-62372419D02*
X132928571Y-62420038D01*
X132928571Y-62420038D02*
X132976190Y-62467657D01*
X132976190Y-62467657D02*
X133023809Y-62562895D01*
X133023809Y-62562895D02*
X133023809Y-62658133D01*
X133023809Y-62658133D02*
X132976190Y-62800990D01*
X132976190Y-62800990D02*
X132404762Y-63372419D01*
X132404762Y-63372419D02*
X133023809Y-63372419D01*
X133928571Y-62372419D02*
X133452381Y-62372419D01*
X133452381Y-62372419D02*
X133404762Y-62848609D01*
X133404762Y-62848609D02*
X133452381Y-62800990D01*
X133452381Y-62800990D02*
X133547619Y-62753371D01*
X133547619Y-62753371D02*
X133785714Y-62753371D01*
X133785714Y-62753371D02*
X133880952Y-62800990D01*
X133880952Y-62800990D02*
X133928571Y-62848609D01*
X133928571Y-62848609D02*
X133976190Y-62943847D01*
X133976190Y-62943847D02*
X133976190Y-63181942D01*
X133976190Y-63181942D02*
X133928571Y-63277180D01*
X133928571Y-63277180D02*
X133880952Y-63324800D01*
X133880952Y-63324800D02*
X133785714Y-63372419D01*
X133785714Y-63372419D02*
X133547619Y-63372419D01*
X133547619Y-63372419D02*
X133452381Y-63324800D01*
X133452381Y-63324800D02*
X133404762Y-63277180D01*
D11*
X120722533Y-90711580D02*
X120674914Y-90759200D01*
X120674914Y-90759200D02*
X120532057Y-90806819D01*
X120532057Y-90806819D02*
X120436819Y-90806819D01*
X120436819Y-90806819D02*
X120293962Y-90759200D01*
X120293962Y-90759200D02*
X120198724Y-90663961D01*
X120198724Y-90663961D02*
X120151105Y-90568723D01*
X120151105Y-90568723D02*
X120103486Y-90378247D01*
X120103486Y-90378247D02*
X120103486Y-90235390D01*
X120103486Y-90235390D02*
X120151105Y-90044914D01*
X120151105Y-90044914D02*
X120198724Y-89949676D01*
X120198724Y-89949676D02*
X120293962Y-89854438D01*
X120293962Y-89854438D02*
X120436819Y-89806819D01*
X120436819Y-89806819D02*
X120532057Y-89806819D01*
X120532057Y-89806819D02*
X120674914Y-89854438D01*
X120674914Y-89854438D02*
X120722533Y-89902057D01*
X121579676Y-90140152D02*
X121579676Y-90806819D01*
X121341581Y-89759200D02*
X121103486Y-90473485D01*
X121103486Y-90473485D02*
X121722533Y-90473485D01*
X205379819Y-100026904D02*
X206189342Y-100026904D01*
X206189342Y-100026904D02*
X206284580Y-99979285D01*
X206284580Y-99979285D02*
X206332200Y-99931666D01*
X206332200Y-99931666D02*
X206379819Y-99836428D01*
X206379819Y-99836428D02*
X206379819Y-99645952D01*
X206379819Y-99645952D02*
X206332200Y-99550714D01*
X206332200Y-99550714D02*
X206284580Y-99503095D01*
X206284580Y-99503095D02*
X206189342Y-99455476D01*
X206189342Y-99455476D02*
X205379819Y-99455476D01*
X205379819Y-99074523D02*
X205379819Y-98455476D01*
X205379819Y-98455476D02*
X205760771Y-98788809D01*
X205760771Y-98788809D02*
X205760771Y-98645952D01*
X205760771Y-98645952D02*
X205808390Y-98550714D01*
X205808390Y-98550714D02*
X205856009Y-98503095D01*
X205856009Y-98503095D02*
X205951247Y-98455476D01*
X205951247Y-98455476D02*
X206189342Y-98455476D01*
X206189342Y-98455476D02*
X206284580Y-98503095D01*
X206284580Y-98503095D02*
X206332200Y-98550714D01*
X206332200Y-98550714D02*
X206379819Y-98645952D01*
X206379819Y-98645952D02*
X206379819Y-98931666D01*
X206379819Y-98931666D02*
X206332200Y-99026904D01*
X206332200Y-99026904D02*
X206284580Y-99074523D01*
X192277700Y-79587420D02*
X193412972Y-79587420D01*
X193412972Y-79587420D02*
X193546533Y-79520640D01*
X193546533Y-79520640D02*
X193613314Y-79453859D01*
X193613314Y-79453859D02*
X193680094Y-79320298D01*
X193680094Y-79320298D02*
X193680094Y-79053175D01*
X193680094Y-79053175D02*
X193613314Y-78919614D01*
X193613314Y-78919614D02*
X193546533Y-78852833D01*
X193546533Y-78852833D02*
X193412972Y-78786052D01*
X193412972Y-78786052D02*
X192277700Y-78786052D01*
X192745165Y-77517219D02*
X193680094Y-77517219D01*
X192210920Y-77851123D02*
X193212630Y-78185026D01*
X193212630Y-78185026D02*
X193212630Y-77316877D01*
X168879819Y-100026904D02*
X169689342Y-100026904D01*
X169689342Y-100026904D02*
X169784580Y-99979285D01*
X169784580Y-99979285D02*
X169832200Y-99931666D01*
X169832200Y-99931666D02*
X169879819Y-99836428D01*
X169879819Y-99836428D02*
X169879819Y-99645952D01*
X169879819Y-99645952D02*
X169832200Y-99550714D01*
X169832200Y-99550714D02*
X169784580Y-99503095D01*
X169784580Y-99503095D02*
X169689342Y-99455476D01*
X169689342Y-99455476D02*
X168879819Y-99455476D01*
X168975057Y-99026904D02*
X168927438Y-98979285D01*
X168927438Y-98979285D02*
X168879819Y-98884047D01*
X168879819Y-98884047D02*
X168879819Y-98645952D01*
X168879819Y-98645952D02*
X168927438Y-98550714D01*
X168927438Y-98550714D02*
X168975057Y-98503095D01*
X168975057Y-98503095D02*
X169070295Y-98455476D01*
X169070295Y-98455476D02*
X169165533Y-98455476D01*
X169165533Y-98455476D02*
X169308390Y-98503095D01*
X169308390Y-98503095D02*
X169879819Y-99074523D01*
X169879819Y-99074523D02*
X169879819Y-98455476D01*
X131838095Y-118354819D02*
X132409523Y-118354819D01*
X132123809Y-119354819D02*
X132123809Y-118354819D01*
X133076190Y-118831009D02*
X133219047Y-118878628D01*
X133219047Y-118878628D02*
X133266666Y-118926247D01*
X133266666Y-118926247D02*
X133314285Y-119021485D01*
X133314285Y-119021485D02*
X133314285Y-119164342D01*
X133314285Y-119164342D02*
X133266666Y-119259580D01*
X133266666Y-119259580D02*
X133219047Y-119307200D01*
X133219047Y-119307200D02*
X133123809Y-119354819D01*
X133123809Y-119354819D02*
X132742857Y-119354819D01*
X132742857Y-119354819D02*
X132742857Y-118354819D01*
X132742857Y-118354819D02*
X133076190Y-118354819D01*
X133076190Y-118354819D02*
X133171428Y-118402438D01*
X133171428Y-118402438D02*
X133219047Y-118450057D01*
X133219047Y-118450057D02*
X133266666Y-118545295D01*
X133266666Y-118545295D02*
X133266666Y-118640533D01*
X133266666Y-118640533D02*
X133219047Y-118735771D01*
X133219047Y-118735771D02*
X133171428Y-118783390D01*
X133171428Y-118783390D02*
X133076190Y-118831009D01*
X133076190Y-118831009D02*
X132742857Y-118831009D01*
X134171428Y-118688152D02*
X134171428Y-119354819D01*
X133933333Y-118307200D02*
X133695238Y-119021485D01*
X133695238Y-119021485D02*
X134314285Y-119021485D01*
X163338095Y-114854819D02*
X163909523Y-114854819D01*
X163623809Y-115854819D02*
X163623809Y-114854819D01*
X164576190Y-115331009D02*
X164719047Y-115378628D01*
X164719047Y-115378628D02*
X164766666Y-115426247D01*
X164766666Y-115426247D02*
X164814285Y-115521485D01*
X164814285Y-115521485D02*
X164814285Y-115664342D01*
X164814285Y-115664342D02*
X164766666Y-115759580D01*
X164766666Y-115759580D02*
X164719047Y-115807200D01*
X164719047Y-115807200D02*
X164623809Y-115854819D01*
X164623809Y-115854819D02*
X164242857Y-115854819D01*
X164242857Y-115854819D02*
X164242857Y-114854819D01*
X164242857Y-114854819D02*
X164576190Y-114854819D01*
X164576190Y-114854819D02*
X164671428Y-114902438D01*
X164671428Y-114902438D02*
X164719047Y-114950057D01*
X164719047Y-114950057D02*
X164766666Y-115045295D01*
X164766666Y-115045295D02*
X164766666Y-115140533D01*
X164766666Y-115140533D02*
X164719047Y-115235771D01*
X164719047Y-115235771D02*
X164671428Y-115283390D01*
X164671428Y-115283390D02*
X164576190Y-115331009D01*
X164576190Y-115331009D02*
X164242857Y-115331009D01*
X165195238Y-114950057D02*
X165242857Y-114902438D01*
X165242857Y-114902438D02*
X165338095Y-114854819D01*
X165338095Y-114854819D02*
X165576190Y-114854819D01*
X165576190Y-114854819D02*
X165671428Y-114902438D01*
X165671428Y-114902438D02*
X165719047Y-114950057D01*
X165719047Y-114950057D02*
X165766666Y-115045295D01*
X165766666Y-115045295D02*
X165766666Y-115140533D01*
X165766666Y-115140533D02*
X165719047Y-115283390D01*
X165719047Y-115283390D02*
X165147619Y-115854819D01*
X165147619Y-115854819D02*
X165766666Y-115854819D01*
X120144133Y-112807580D02*
X120096514Y-112855200D01*
X120096514Y-112855200D02*
X119953657Y-112902819D01*
X119953657Y-112902819D02*
X119858419Y-112902819D01*
X119858419Y-112902819D02*
X119715562Y-112855200D01*
X119715562Y-112855200D02*
X119620324Y-112759961D01*
X119620324Y-112759961D02*
X119572705Y-112664723D01*
X119572705Y-112664723D02*
X119525086Y-112474247D01*
X119525086Y-112474247D02*
X119525086Y-112331390D01*
X119525086Y-112331390D02*
X119572705Y-112140914D01*
X119572705Y-112140914D02*
X119620324Y-112045676D01*
X119620324Y-112045676D02*
X119715562Y-111950438D01*
X119715562Y-111950438D02*
X119858419Y-111902819D01*
X119858419Y-111902819D02*
X119953657Y-111902819D01*
X119953657Y-111902819D02*
X120096514Y-111950438D01*
X120096514Y-111950438D02*
X120144133Y-111998057D01*
X120477467Y-111902819D02*
X121096514Y-111902819D01*
X121096514Y-111902819D02*
X120763181Y-112283771D01*
X120763181Y-112283771D02*
X120906038Y-112283771D01*
X120906038Y-112283771D02*
X121001276Y-112331390D01*
X121001276Y-112331390D02*
X121048895Y-112379009D01*
X121048895Y-112379009D02*
X121096514Y-112474247D01*
X121096514Y-112474247D02*
X121096514Y-112712342D01*
X121096514Y-112712342D02*
X121048895Y-112807580D01*
X121048895Y-112807580D02*
X121001276Y-112855200D01*
X121001276Y-112855200D02*
X120906038Y-112902819D01*
X120906038Y-112902819D02*
X120620324Y-112902819D01*
X120620324Y-112902819D02*
X120525086Y-112855200D01*
X120525086Y-112855200D02*
X120477467Y-112807580D01*
X200338095Y-53719819D02*
X200909523Y-53719819D01*
X200623809Y-54719819D02*
X200623809Y-53719819D01*
X201576190Y-54196009D02*
X201719047Y-54243628D01*
X201719047Y-54243628D02*
X201766666Y-54291247D01*
X201766666Y-54291247D02*
X201814285Y-54386485D01*
X201814285Y-54386485D02*
X201814285Y-54529342D01*
X201814285Y-54529342D02*
X201766666Y-54624580D01*
X201766666Y-54624580D02*
X201719047Y-54672200D01*
X201719047Y-54672200D02*
X201623809Y-54719819D01*
X201623809Y-54719819D02*
X201242857Y-54719819D01*
X201242857Y-54719819D02*
X201242857Y-53719819D01*
X201242857Y-53719819D02*
X201576190Y-53719819D01*
X201576190Y-53719819D02*
X201671428Y-53767438D01*
X201671428Y-53767438D02*
X201719047Y-53815057D01*
X201719047Y-53815057D02*
X201766666Y-53910295D01*
X201766666Y-53910295D02*
X201766666Y-54005533D01*
X201766666Y-54005533D02*
X201719047Y-54100771D01*
X201719047Y-54100771D02*
X201671428Y-54148390D01*
X201671428Y-54148390D02*
X201576190Y-54196009D01*
X201576190Y-54196009D02*
X201242857Y-54196009D01*
X202147619Y-53719819D02*
X202766666Y-53719819D01*
X202766666Y-53719819D02*
X202433333Y-54100771D01*
X202433333Y-54100771D02*
X202576190Y-54100771D01*
X202576190Y-54100771D02*
X202671428Y-54148390D01*
X202671428Y-54148390D02*
X202719047Y-54196009D01*
X202719047Y-54196009D02*
X202766666Y-54291247D01*
X202766666Y-54291247D02*
X202766666Y-54529342D01*
X202766666Y-54529342D02*
X202719047Y-54624580D01*
X202719047Y-54624580D02*
X202671428Y-54672200D01*
X202671428Y-54672200D02*
X202576190Y-54719819D01*
X202576190Y-54719819D02*
X202290476Y-54719819D01*
X202290476Y-54719819D02*
X202195238Y-54672200D01*
X202195238Y-54672200D02*
X202147619Y-54624580D01*
X171338095Y-53354819D02*
X171909523Y-53354819D01*
X171623809Y-54354819D02*
X171623809Y-53354819D01*
X172576190Y-53831009D02*
X172719047Y-53878628D01*
X172719047Y-53878628D02*
X172766666Y-53926247D01*
X172766666Y-53926247D02*
X172814285Y-54021485D01*
X172814285Y-54021485D02*
X172814285Y-54164342D01*
X172814285Y-54164342D02*
X172766666Y-54259580D01*
X172766666Y-54259580D02*
X172719047Y-54307200D01*
X172719047Y-54307200D02*
X172623809Y-54354819D01*
X172623809Y-54354819D02*
X172242857Y-54354819D01*
X172242857Y-54354819D02*
X172242857Y-53354819D01*
X172242857Y-53354819D02*
X172576190Y-53354819D01*
X172576190Y-53354819D02*
X172671428Y-53402438D01*
X172671428Y-53402438D02*
X172719047Y-53450057D01*
X172719047Y-53450057D02*
X172766666Y-53545295D01*
X172766666Y-53545295D02*
X172766666Y-53640533D01*
X172766666Y-53640533D02*
X172719047Y-53735771D01*
X172719047Y-53735771D02*
X172671428Y-53783390D01*
X172671428Y-53783390D02*
X172576190Y-53831009D01*
X172576190Y-53831009D02*
X172242857Y-53831009D01*
X173766666Y-54354819D02*
X173195238Y-54354819D01*
X173480952Y-54354819D02*
X173480952Y-53354819D01*
X173480952Y-53354819D02*
X173385714Y-53497676D01*
X173385714Y-53497676D02*
X173290476Y-53592914D01*
X173290476Y-53592914D02*
X173195238Y-53640533D01*
X93254333Y-94274580D02*
X93206714Y-94322200D01*
X93206714Y-94322200D02*
X93063857Y-94369819D01*
X93063857Y-94369819D02*
X92968619Y-94369819D01*
X92968619Y-94369819D02*
X92825762Y-94322200D01*
X92825762Y-94322200D02*
X92730524Y-94226961D01*
X92730524Y-94226961D02*
X92682905Y-94131723D01*
X92682905Y-94131723D02*
X92635286Y-93941247D01*
X92635286Y-93941247D02*
X92635286Y-93798390D01*
X92635286Y-93798390D02*
X92682905Y-93607914D01*
X92682905Y-93607914D02*
X92730524Y-93512676D01*
X92730524Y-93512676D02*
X92825762Y-93417438D01*
X92825762Y-93417438D02*
X92968619Y-93369819D01*
X92968619Y-93369819D02*
X93063857Y-93369819D01*
X93063857Y-93369819D02*
X93206714Y-93417438D01*
X93206714Y-93417438D02*
X93254333Y-93465057D01*
X93635286Y-93465057D02*
X93682905Y-93417438D01*
X93682905Y-93417438D02*
X93778143Y-93369819D01*
X93778143Y-93369819D02*
X94016238Y-93369819D01*
X94016238Y-93369819D02*
X94111476Y-93417438D01*
X94111476Y-93417438D02*
X94159095Y-93465057D01*
X94159095Y-93465057D02*
X94206714Y-93560295D01*
X94206714Y-93560295D02*
X94206714Y-93655533D01*
X94206714Y-93655533D02*
X94159095Y-93798390D01*
X94159095Y-93798390D02*
X93587667Y-94369819D01*
X93587667Y-94369819D02*
X94206714Y-94369819D01*
X126444580Y-119887666D02*
X126492200Y-119935285D01*
X126492200Y-119935285D02*
X126539819Y-120078142D01*
X126539819Y-120078142D02*
X126539819Y-120173380D01*
X126539819Y-120173380D02*
X126492200Y-120316237D01*
X126492200Y-120316237D02*
X126396961Y-120411475D01*
X126396961Y-120411475D02*
X126301723Y-120459094D01*
X126301723Y-120459094D02*
X126111247Y-120506713D01*
X126111247Y-120506713D02*
X125968390Y-120506713D01*
X125968390Y-120506713D02*
X125777914Y-120459094D01*
X125777914Y-120459094D02*
X125682676Y-120411475D01*
X125682676Y-120411475D02*
X125587438Y-120316237D01*
X125587438Y-120316237D02*
X125539819Y-120173380D01*
X125539819Y-120173380D02*
X125539819Y-120078142D01*
X125539819Y-120078142D02*
X125587438Y-119935285D01*
X125587438Y-119935285D02*
X125635057Y-119887666D01*
X126539819Y-118935285D02*
X126539819Y-119506713D01*
X126539819Y-119220999D02*
X125539819Y-119220999D01*
X125539819Y-119220999D02*
X125682676Y-119316237D01*
X125682676Y-119316237D02*
X125777914Y-119411475D01*
X125777914Y-119411475D02*
X125825533Y-119506713D01*
X83338095Y-55354819D02*
X83338095Y-56164342D01*
X83338095Y-56164342D02*
X83385714Y-56259580D01*
X83385714Y-56259580D02*
X83433333Y-56307200D01*
X83433333Y-56307200D02*
X83528571Y-56354819D01*
X83528571Y-56354819D02*
X83719047Y-56354819D01*
X83719047Y-56354819D02*
X83814285Y-56307200D01*
X83814285Y-56307200D02*
X83861904Y-56259580D01*
X83861904Y-56259580D02*
X83909523Y-56164342D01*
X83909523Y-56164342D02*
X83909523Y-55354819D01*
X84909523Y-56354819D02*
X84338095Y-56354819D01*
X84623809Y-56354819D02*
X84623809Y-55354819D01*
X84623809Y-55354819D02*
X84528571Y-55497676D01*
X84528571Y-55497676D02*
X84433333Y-55592914D01*
X84433333Y-55592914D02*
X84338095Y-55640533D01*
D12*
%TO.C,C4*%
X118287500Y-93950000D02*
G75*
G02*
X122912500Y-93950000I2312500J-950005D01*
G01*
X122912500Y-95850000D02*
G75*
G02*
X118287500Y-95850000I-2312500J950005D01*
G01*
D13*
X116737000Y-94900000D02*
G75*
G02*
X116537000Y-94900000I-100000J0D01*
G01*
X116537000Y-94900000D02*
G75*
G02*
X116737000Y-94900000I100000J0D01*
G01*
D12*
%TO.C,U3*%
X184890000Y-96290000D02*
X184890000Y-102890000D01*
X204690000Y-96290000D02*
X204690000Y-102890000D01*
D13*
X203780000Y-94590000D02*
G75*
G02*
X203580000Y-94590000I-100000J0D01*
G01*
X203580000Y-94590000D02*
G75*
G02*
X203780000Y-94590000I100000J0D01*
G01*
D12*
%TO.C,U4*%
X155930000Y-75085000D02*
X156184000Y-75085000D01*
X155930000Y-82585000D02*
X155930000Y-75085000D01*
X155930000Y-82585000D02*
X156184000Y-82585000D01*
X191490000Y-75085000D02*
X191236000Y-75085000D01*
X191490000Y-82585000D02*
X191236000Y-82585000D01*
X191490000Y-82585000D02*
X191490000Y-75085000D01*
D13*
X190354300Y-73120580D02*
G75*
G02*
X190154300Y-73120580I-100000J0D01*
G01*
X190154300Y-73120580D02*
G75*
G02*
X190354300Y-73120580I100000J0D01*
G01*
D12*
%TO.C,U2*%
X148390000Y-96290000D02*
X148390000Y-102890000D01*
X168190000Y-96290000D02*
X168190000Y-102890000D01*
D13*
X167280000Y-94590000D02*
G75*
G02*
X167080000Y-94590000I-100000J0D01*
G01*
X167080000Y-94590000D02*
G75*
G02*
X167280000Y-94590000I100000J0D01*
G01*
%TO.C,TB4*%
X128400000Y-122125000D02*
X129000000Y-122200000D01*
X128400000Y-123175000D02*
X128400000Y-122125000D01*
X129000000Y-117100000D02*
X144200000Y-117100000D01*
X129000000Y-122200000D02*
X129000000Y-117100000D01*
X129000000Y-123100000D02*
X128400000Y-123175000D01*
X129000000Y-124800000D02*
X129000000Y-123100000D01*
X144200000Y-117100000D02*
X144200000Y-118050000D01*
X144200000Y-118050000D02*
X144800000Y-118000000D01*
X144200000Y-119100000D02*
X144200000Y-124800000D01*
X144200000Y-124800000D02*
X129000000Y-124800000D01*
X144800000Y-118000000D02*
X144800000Y-119150000D01*
X144800000Y-119150000D02*
X144200000Y-119100000D01*
D14*
X130900000Y-120000000D02*
G75*
G02*
X130700000Y-120000000I-100000J0D01*
G01*
X130700000Y-120000000D02*
G75*
G02*
X130900000Y-120000000I100000J0D01*
G01*
D15*
%TO.C,TB2*%
X164833000Y-117173001D02*
X164833000Y-125627002D01*
X164833000Y-125627002D02*
X190100000Y-125627000D01*
X190100000Y-117172999D02*
X164833000Y-117173001D01*
X190100000Y-125627000D02*
X190100000Y-117172999D01*
D16*
X164579000Y-121400000D02*
G75*
G02*
X163817000Y-121400000I-381000J0D01*
G01*
X163817000Y-121400000D02*
G75*
G02*
X164579000Y-121400000I381000J0D01*
G01*
D12*
%TO.C,C3*%
X118287500Y-106950000D02*
G75*
G02*
X122912500Y-106950000I2312500J-950005D01*
G01*
X122912500Y-108850000D02*
G75*
G02*
X118287500Y-108850000I-2312500J950005D01*
G01*
D13*
X124663000Y-107900000D02*
G75*
G02*
X124463000Y-107900000I-100000J0D01*
G01*
X124463000Y-107900000D02*
G75*
G02*
X124663000Y-107900000I100000J0D01*
G01*
%TO.C,TB3*%
X193400000Y-60625000D02*
X194000000Y-60700000D01*
X193400000Y-61675000D02*
X193400000Y-60625000D01*
X194000000Y-55600000D02*
X209200000Y-55600000D01*
X194000000Y-60700000D02*
X194000000Y-55600000D01*
X194000000Y-61600000D02*
X193400000Y-61675000D01*
X194000000Y-63300000D02*
X194000000Y-61600000D01*
X209200000Y-55600000D02*
X209200000Y-56550000D01*
X209200000Y-56550000D02*
X209800000Y-56500000D01*
X209200000Y-57600000D02*
X209200000Y-63300000D01*
X209200000Y-63300000D02*
X194000000Y-63300000D01*
X209800000Y-56500000D02*
X209800000Y-57650000D01*
X209800000Y-57650000D02*
X209200000Y-57600000D01*
D14*
X195900000Y-58500000D02*
G75*
G02*
X195700000Y-58500000I-100000J0D01*
G01*
X195700000Y-58500000D02*
G75*
G02*
X195900000Y-58500000I100000J0D01*
G01*
D15*
%TO.C,TB1*%
X161100000Y-55673000D02*
X161100000Y-64127001D01*
X161100000Y-64127001D02*
X186367000Y-64126999D01*
X186367000Y-55672998D02*
X161100000Y-55673000D01*
X186367000Y-64126999D02*
X186367000Y-55672998D01*
D16*
X187383000Y-59900000D02*
G75*
G02*
X186621000Y-59900000I-381000J0D01*
G01*
X186621000Y-59900000D02*
G75*
G02*
X187383000Y-59900000I381000J0D01*
G01*
D12*
%TO.C,C2*%
X93500000Y-95800000D02*
X96700000Y-95800000D01*
X93500000Y-96900000D02*
X91100000Y-96900000D01*
X93500000Y-96900000D02*
X93500000Y-95800000D01*
X93500000Y-98000000D02*
X93500000Y-96900000D01*
X96700000Y-95800000D02*
X96700000Y-96900000D01*
X96700000Y-96900000D02*
X96700000Y-98000000D01*
X96700000Y-96900000D02*
X99100000Y-96900000D01*
X96700000Y-98000000D02*
X93500000Y-98000000D01*
%TO.C,C1*%
X122000000Y-119800000D02*
X123100000Y-119800000D01*
X122000000Y-123000000D02*
X122000000Y-119800000D01*
X123100000Y-119800000D02*
X123100000Y-117400000D01*
X123100000Y-119800000D02*
X124200000Y-119800000D01*
X123100000Y-123000000D02*
X122000000Y-123000000D01*
X123100000Y-123000000D02*
X123100000Y-125400000D01*
X124200000Y-119800000D02*
X124200000Y-123000000D01*
X124200000Y-123000000D02*
X123100000Y-123000000D01*
%TO.C,U1*%
X81100000Y-57400000D02*
X112100000Y-57400000D01*
X81100000Y-115350000D02*
X81100000Y-57400000D01*
D10*
X87600000Y-58900000D02*
X87600000Y-64900000D01*
X87600000Y-58900000D02*
X90100000Y-58900000D01*
X87600000Y-64900000D02*
X99600000Y-64900000D01*
X90100000Y-58900000D02*
X90100000Y-63900000D01*
X90100000Y-63900000D02*
X92600000Y-63900000D01*
X92600000Y-58900000D02*
X95100000Y-58900000D01*
X92600000Y-63900000D02*
X92600000Y-58900000D01*
D12*
X92600000Y-115400000D02*
X81100000Y-115400000D01*
X92600000Y-115400000D02*
X92600000Y-116400000D01*
X92600000Y-116400000D02*
X100600000Y-116400000D01*
D10*
X95100000Y-63900000D02*
X95100000Y-58900000D01*
X95100000Y-63900000D02*
X97600000Y-63900000D01*
X97600000Y-58900000D02*
X99600000Y-58900000D01*
X97600000Y-63900000D02*
X97600000Y-58900000D01*
X99600000Y-58900000D02*
X99600000Y-63900000D01*
X99600000Y-63900000D02*
X101600000Y-63900000D01*
D12*
X100600000Y-116400000D02*
X100600000Y-115400000D01*
D10*
X101600000Y-58900000D02*
X106100000Y-58900000D01*
X101600000Y-63900000D02*
X101600000Y-58900000D01*
D12*
X112100000Y-57400000D02*
X112100000Y-115400000D01*
X112100000Y-115400000D02*
X100600000Y-115400000D01*
D13*
X80200000Y-68400000D02*
G75*
G02*
X80000000Y-68400000I-100000J0D01*
G01*
X80000000Y-68400000D02*
G75*
G02*
X80200000Y-68400000I100000J0D01*
G01*
D10*
X84100000Y-113400000D02*
G75*
G02*
X81863932Y-113400000I-1118034J0D01*
G01*
X81863932Y-113400000D02*
G75*
G02*
X84100000Y-113400000I1118034J0D01*
G01*
X84218034Y-59400000D02*
G75*
G02*
X81981966Y-59400000I-1118034J0D01*
G01*
X81981966Y-59400000D02*
G75*
G02*
X84218034Y-59400000I1118034J0D01*
G01*
X111100000Y-59400000D02*
G75*
G02*
X108863932Y-59400000I-1118034J0D01*
G01*
X108863932Y-59400000D02*
G75*
G02*
X111100000Y-59400000I1118034J0D01*
G01*
X111600000Y-113400000D02*
G75*
G02*
X109363932Y-113400000I-1118034J0D01*
G01*
X109363932Y-113400000D02*
G75*
G02*
X111600000Y-113400000I1118034J0D01*
G01*
%TD*%
M02*
