M48
; DRILL file {KiCad 9.0.0} date 2025-03-04T20:00:13-0700
; FORMAT={-:-/ absolute / metric / decimal}
; #@! TF.CreationDate,2025-03-04T20:00:13-07:00
; #@! TF.GenerationSoftware,Kicad,Pcbnew,9.0.0
; #@! TF.FileFunction,Plated,1,2,PTH
FMAT,2
METRIC
; #@! TA.AperFunction,Plated,PTH,ViaDrill
T1C0.300
; #@! TA.AperFunction,Plated,PTH,ComponentDrill
T2C0.700
; #@! TA.AperFunction,Plated,PTH,ComponentDrill
T3C0.740
; #@! TA.AperFunction,Plated,PTH,ComponentDrill
T4C0.750
; #@! TA.AperFunction,Plated,PTH,ComponentDrill
T5C0.820
; #@! TA.AperFunction,Plated,PTH,ComponentDrill
T6C1.016
; #@! TA.AperFunction,Plated,PTH,ComponentDrill
T7C1.219
; #@! TA.AperFunction,Plated,PTH,ComponentDrill
T8C1.300
%
G90
G05
T1
X147.1Y-100.4
X172.44Y-90.74
X172.44Y-103.9
X185.1Y-101.4
X192.1Y-89.9
X192.6Y-98.4
X209.1Y-118.9
X209.1Y-122.4
T2
X91.1Y-96.9
X99.1Y-96.9
X123.1Y-117.4
X123.1Y-125.4
T3
X149.4Y-95.78
X149.4Y-103.4
X151.94Y-95.78
X151.94Y-103.4
X154.48Y-95.78
X154.48Y-103.4
X157.02Y-95.78
X157.02Y-103.4
X159.56Y-95.78
X159.56Y-103.4
X162.1Y-95.78
X162.1Y-103.4
X164.64Y-95.78
X164.64Y-103.4
X167.18Y-95.78
X167.18Y-103.4
X185.9Y-95.78
X185.9Y-103.4
X188.44Y-95.78
X188.44Y-103.4
X190.98Y-95.78
X190.98Y-103.4
X193.52Y-95.78
X193.52Y-103.4
X196.06Y-95.78
X196.06Y-103.4
X198.6Y-95.78
X198.6Y-103.4
X201.14Y-95.78
X201.14Y-103.4
X203.68Y-95.78
X203.68Y-103.4
T4
X118.1Y-94.9
X118.1Y-107.9
X123.1Y-94.9
X123.1Y-107.9
T5
X157.2Y-74.9
X157.2Y-82.77
X159.74Y-74.9
X159.74Y-82.77
X162.28Y-74.9
X162.28Y-82.77
X164.82Y-74.9
X164.82Y-82.77
X167.36Y-74.9
X167.36Y-82.77
X169.9Y-74.9
X169.9Y-82.77
X172.44Y-74.9
X172.44Y-82.77
X174.98Y-74.9
X174.98Y-82.77
X177.52Y-74.9
X177.52Y-82.77
X180.06Y-74.9
X180.06Y-82.77
X182.6Y-74.9
X182.6Y-82.77
X185.14Y-74.9
X185.14Y-82.77
X187.68Y-74.9
X187.68Y-82.77
X190.22Y-74.9
X190.22Y-82.77
T6
X82.6Y-68.44
X82.6Y-70.98
X82.6Y-73.52
X82.6Y-76.06
X82.6Y-78.6
X82.6Y-81.14
X82.6Y-83.68
X82.6Y-86.22
X82.6Y-88.76
X82.6Y-91.3
X82.6Y-93.84
X82.6Y-96.38
X82.6Y-98.92
X82.6Y-101.46
X82.6Y-104.0
X110.6Y-68.4
X110.6Y-70.94
X110.6Y-73.48
X110.6Y-76.02
X110.6Y-78.56
X110.6Y-81.1
X110.6Y-83.64
X110.6Y-86.18
X110.6Y-88.72
X110.6Y-91.26
X110.6Y-93.8
X110.6Y-96.34
X110.6Y-98.88
X110.6Y-101.42
X110.6Y-103.96
T7
X165.6Y-59.9
X168.1Y-59.9
X168.1Y-121.4
X170.6Y-59.9
X170.6Y-121.4
X173.1Y-59.9
X173.1Y-121.4
X175.6Y-59.9
X175.6Y-121.4
X178.1Y-59.9
X178.1Y-121.4
X180.6Y-59.9
X180.6Y-121.4
X183.1Y-59.9
X183.1Y-121.4
X185.6Y-121.4
T8
X131.6Y-121.4
X136.6Y-121.4
X141.6Y-121.4
X196.6Y-59.9
X201.6Y-59.9
X206.6Y-59.9
M30
